<?xml version="1.0" standalone="no"?>
<!DOCTYPE svg PUBLIC "-//W3C//DTD SVG 1.1//EN" "http://www.w3.org/Graphics/SVG/1.1/DTD/svg11.dtd" >
<svg xmlns="http://www.w3.org/2000/svg" xmlns:xlink="http://www.w3.org/1999/xlink" version="1.1">
<metadata>
Created by FontForge 20170731 at Wed Feb  2 18:20:30 2022
 By Aleksey,,,
Copyright (c) 2016 by Radomir Tinkov. All rights reserved.
</metadata>
<defs>
<font id="Gilroy-Bold" horiz-adv-x="1282" >
  <font-face 
    font-family="Gilroy Bold"
    font-weight="700"
    font-stretch="normal"
    units-per-em="2048"
    panose-1="0 0 8 0 0 0 0 0 0 0"
    ascent="1638"
    descent="-410"
    x-height="1024"
    cap-height="1434"
    bbox="-850 -539 2241 1997"
    underline-thickness="102"
    underline-position="-307"
    unicode-range="U+0020-FB02"
  />
<missing-glyph horiz-adv-x="1024" 
d="M840 1638v-2048h-650v2048h650zM682 1501h-338v-67h133v-76h-135v-68h340v68h-135v76h135v67zM547 1237h-205v-213h340v70h-135v143zM477 1167v-73h-67v73h67zM682 969h-340v-68h135v-76h-135v-67h205v143h135v68zM682 846h-68v-135h-272v-70h340v205zM682 596h-205v-115
h70v47h67v-96h-204v164h-68v-231h340v231zM682 242h-340v-232h340v232zM614 174v-96h-204v96h204zM682 -37h-340v-67h143l-143 -97v-67h340v67h-209l143 97h66v67z" />
    <glyph glyph-name="fi" unicode="fi" horiz-adv-x="1140" 
d="M1020 1024v-1024h-264v770h-301v-770h-265v770h-147v254h147v10q0 428 482 428q108 0 239 -28v-242q-138 16 -239 16q-110 0 -163.5 -37.5t-53.5 -136.5v-10h565z" />
    <glyph glyph-name="fl" unicode="fl" horiz-adv-x="1140" 
d="M672 1462q137 0 348 -43v-1419h-264v1229q-29 2 -84 2q-217 0 -217 -197v-10h170v-254h-170v-770h-265v770h-147v254h147v10q0 428 482 428z" />
    <glyph glyph-name="f_f" unicode="ff" horiz-adv-x="1239" 
d="M1239 1229q-106 8 -161.5 -33t-55.5 -141v-31h217v-254h-217v-770h-264v770h-303v-770h-265v770h-147v254h147v10q0 217 121.5 330t360.5 98v-254q-107 8 -162 -32.5t-55 -141.5v-10h303v31q0 217 121.5 330t359.5 98v-254z" />
    <glyph glyph-name="f_f_i" unicode="ffi" horiz-adv-x="1708" 
d="M1587 1024v-1024h-264v770h-301v-770h-264v770h-303v-770h-265v770h-147v254h147v10q0 217 121.5 330t360.5 98v-254q-107 8 -162 -32.5t-55 -141.5v-10h303v31q0 428 481 428q107 0 242 -29v-242q-150 17 -242 17q-109 0 -163 -37.5t-54 -136.5v-31h565z" />
    <glyph glyph-name="f_f_l" unicode="ffl" horiz-adv-x="1708" 
d="M1239 1483q140 0 348 -43v-1440h-264v1249q-29 2 -84 2q-217 0 -217 -196v-31h172v-254h-172v-770h-264v770h-303v-770h-265v770h-147v254h147v10q0 217 121.5 330t360.5 98v-254q-107 8 -162 -32.5t-55 -141.5v-10h303v31q0 428 481 428z" />
    <glyph glyph-name=".notdef" horiz-adv-x="1024" 
d="M840 1638v-2048h-650v2048h650zM682 1501h-338v-67h133v-76h-135v-68h340v68h-135v76h135v67zM547 1237h-205v-213h340v70h-135v143zM477 1167v-73h-67v73h67zM682 969h-340v-68h135v-76h-135v-67h205v143h135v68zM682 846h-68v-135h-272v-70h340v205zM682 596h-205v-115
h70v47h67v-96h-204v164h-68v-231h340v231zM682 242h-340v-232h340v232zM614 174v-96h-204v96h204zM682 -37h-340v-67h143l-143 -97v-67h340v67h-209l143 97h66v67z" />
    <glyph glyph-name=".null" horiz-adv-x="0" 
 />
    <glyph glyph-name="nonmarkingreturn" horiz-adv-x="682" 
 />
    <glyph glyph-name="space" unicode=" " horiz-adv-x="512" 
 />
    <glyph glyph-name="exclam" unicode="!" horiz-adv-x="548" 
d="M170 481l-55 543v410h317v-410l-53 -543h-209zM274 -27q-72 0 -123 51t-51 123t51 123.5t123 51.5t123.5 -51.5t51.5 -123.5t-51.5 -123t-123.5 -51z" />
    <glyph glyph-name="quotedbl" unicode="&#x22;" horiz-adv-x="774" 
d="M123 963l-35 471h250l-35 -471h-180zM471 963l-35 471h250l-35 -471h-180z" />
    <glyph glyph-name="numbersign" unicode="#" horiz-adv-x="1261" 
d="M1182 809h-221l-31 -184h223l-33 -199h-225l-53 -324h-209l53 324h-209l-53 -324h-207l53 324h-223l33 199h225l31 184h-227l32 201h228l53 321h207l-54 -321h209l54 321h209l-54 -321h221zM721 625l31 184h-209l-31 -184h209z" />
    <glyph glyph-name="dollar" unicode="$" horiz-adv-x="1124" 
d="M1073 401q0 -180 -114.5 -291.5t-299.5 -134.5v-180h-137v178q-171 12 -294 96.5t-177 227.5l244 141q66 -163 227 -186v354q-1 0 -3 1t-3 1q-50 19 -83 33.5t-79 38.5t-76.5 46.5t-64 56.5t-53 71t-32.5 86.5t-13 106.5q0 92 33 168t90 126.5t129.5 80.5t154.5 38v178
h137v-182q131 -15 234 -88.5t160 -200.5l-238 -139q-50 123 -156 150v-342q149 -59 199 -87q158 -86 199 -227q16 -56 16 -121zM395 1044q0 -45 28.5 -78.5t98.5 -68.5v287q-61 -12 -94 -49.5t-33 -90.5zM659 256q66 14 99 53.5t33 89.5q0 51 -32.5 86t-99.5 66v-295z" />
    <glyph glyph-name="percent" unicode="%" horiz-adv-x="1566" 
d="M438 786q-148 0 -247 98t-99 240q0 141 99 239.5t247 98.5q147 0 245.5 -97.5t98.5 -240.5q0 -142 -98 -240t-246 -98zM238 217l933 1038l125 -69l-936 -1041zM436 993q56 0 92.5 38t36.5 93t-36.5 92t-92.5 37q-55 0 -91 -37t-36 -92q0 -56 36 -93.5t91 -37.5zM1130 -25
q-148 0 -246 98.5t-98 239.5t98 239.5t246 98.5t246.5 -98.5t98.5 -239.5t-98.5 -239.5t-246.5 -98.5zM1130 182q56 0 91.5 38.5t35.5 92.5q0 56 -35.5 93.5t-91.5 37.5t-91 -37.5t-35 -93.5t35 -93.5t91 -37.5z" />
    <glyph glyph-name="ampersand" unicode="&#x26;" horiz-adv-x="1378" 
d="M1335 82l-225 -129l-131 141q-165 -123 -385 -123q-222 0 -362 115.5t-140 310.5q0 127 62 235.5t178 176.5q-70 113 -70 240q0 182 127 297.5t322 115.5q154 0 275 -79t181 -228l-241 -139q-28 81 -82 126.5t-129 45.5q-74 0 -122 -43t-48 -109q0 -58 28 -104.5
t89 -112.5l307 -336q44 96 69 238l238 -135q-41 -167 -125 -301zM612 231q107 0 191 52l-309 335q-5 5 -5 7q-112 -70 -112 -199q0 -89 60 -142t175 -53z" />
    <glyph glyph-name="quotesingle" unicode="'" horiz-adv-x="425" 
d="M123 963l-35 471h250l-35 -471h-180z" />
    <glyph glyph-name="parenleft" unicode="(" horiz-adv-x="628" 
d="M334 -205q-225 452 -225 922q0 469 225 921h264q-225 -452 -225 -921q0 -470 225 -922h-264z" />
    <glyph glyph-name="parenright" unicode=")" horiz-adv-x="628" 
d="M295 -205h-264q225 452 225 922q0 469 -225 921h264q225 -452 225 -921q0 -470 -225 -922z" />
    <glyph glyph-name="asterisk" unicode="*" horiz-adv-x="815" 
d="M709 1247v-164l-187 15l113 -144l-139 -86l-88 172l-89 -172l-137 86l111 144l-184 -15v164l184 -16l-111 145l137 86l89 -172l88 172l139 -86l-113 -145z" />
    <glyph glyph-name="plus" unicode="+" horiz-adv-x="1136" 
d="M1030 842v-248h-338v-338h-248v338h-335v248h335v336h248v-336h338z" />
    <glyph glyph-name="comma" unicode="," horiz-adv-x="569" 
d="M469 283l-154 -570h-215l82 570h287z" />
    <glyph glyph-name="hyphen" unicode="-" horiz-adv-x="1034" 
d="M133 492v253h768v-253h-768z" />
    <glyph glyph-name="period" unicode="." horiz-adv-x="548" 
d="M274 -27q-72 0 -123 51t-51 123t51 123.5t123 51.5t123.5 -51.5t51.5 -123.5t-51.5 -123t-123.5 -51z" />
    <glyph glyph-name="slash" unicode="/" horiz-adv-x="1071" 
d="M184 -205h-116l819 1843h117z" />
    <glyph glyph-name="zero" unicode="0" horiz-adv-x="1290" 
d="M645 -29q-179 0 -309.5 94.5t-197 262t-66.5 389.5q0 337 152 541t421 204q180 0 311 -94.5t197 -261.5t66 -389q0 -338 -152 -542t-422 -204zM645 248q144 0 218.5 120.5t74.5 348.5q0 229 -74.5 350t-218.5 121t-217.5 -121t-73.5 -350t73.5 -349t217.5 -120z" />
    <glyph glyph-name="one" unicode="1" horiz-adv-x="792" 
d="M399 1434h246v-1434h-283v1135l-270 -76l-69 241z" />
    <glyph glyph-name="two" unicode="2" horiz-adv-x="1087" 
d="M55 0v211l490 504q79 82 121.5 150.5t42.5 135.5q0 85 -52 136t-135 51q-81 0 -142 -44.5t-97 -123.5l-238 139q67 149 194 226t279 77q125 0 231.5 -51.5t174 -156t67.5 -242.5q0 -224 -235 -459l-281 -281h539v-272h-959z" />
    <glyph glyph-name="three" unicode="3" horiz-adv-x="1116" 
d="M723 852q146 -43 237 -150.5t91 -259.5q0 -148 -72.5 -257t-187 -161.5t-252.5 -52.5q-110 0 -205 32.5t-171 101.5t-116 169l242 140q55 -166 250 -166q109 0 169 52.5t60 141.5q0 88 -60.5 141.5t-168.5 53.5h-62l-108 164l282 368h-561v265h901v-234z" />
    <glyph glyph-name="four" unicode="4" horiz-adv-x="1187" 
d="M1159 506v-262h-153v-244h-285v244h-678v262l477 928h303l-475 -928h373v340h285v-340h153z" />
    <glyph glyph-name="five" unicode="5" horiz-adv-x="1122" 
d="M573 911q99 0 187 -30.5t156 -88t107.5 -148t39.5 -202.5q0 -148 -72.5 -257t-187 -161.5t-252.5 -52.5q-174 0 -307 78t-193 230l242 141q54 -172 258 -172q109 0 169 52.5t60 141.5q0 88 -59 141.5t-162 53.5h-434l57 797h813v-265h-551l-18 -258h147z" />
    <glyph glyph-name="six" unicode="6" horiz-adv-x="1132" 
d="M584 969q223 -6 362 -144.5t139 -353.5q0 -220 -145 -360t-375 -140t-374 140t-144 360q0 162 84 289l447 674h323zM565 238q103 0 171.5 63.5t68.5 169.5q0 105 -68.5 168t-171.5 63t-170 -62.5t-67 -168.5t67.5 -169.5t169.5 -63.5z" />
    <glyph glyph-name="seven" unicode="7" horiz-adv-x="1003" 
d="M27 1434h925v-240l-485 -1194h-299l471 1163h-612v271z" />
    <glyph glyph-name="eight" unicode="8" horiz-adv-x="1163" 
d="M897 745q95 -57 147 -147t52 -199q0 -198 -138 -313t-376 -115q-239 0 -376.5 115t-137.5 313q0 109 51 199t145 147q-149 109 -149 297q0 101 37.5 182t102 132t148 78.5t179.5 27.5t179.5 -27.5t147.5 -78.5t101 -132t37 -182q0 -189 -150 -297zM582 1196
q-81 0 -133 -45t-52 -123q0 -77 52 -123.5t133 -46.5t132.5 46.5t51.5 123.5q0 78 -51.5 123t-132.5 45zM582 238q104 0 168.5 52t64.5 146q0 93 -64.5 145t-168.5 52t-169 -52t-65 -145q0 -94 65 -146t169 -52z" />
    <glyph glyph-name="nine" unicode="9" horiz-adv-x="1132" 
d="M1085 965q0 -166 -86 -291h2l-446 -674h-324l320 467q-223 5 -363.5 143.5t-140.5 354.5q0 220 144.5 358.5t373.5 138.5q231 0 375.5 -138.5t144.5 -358.5zM328 965q0 -106 68 -170t169 -64q104 0 172 64t68 170t-68 168.5t-172 62.5q-101 0 -169 -63t-68 -168z" />
    <glyph glyph-name="colon" unicode=":" horiz-adv-x="548" 
d="M274 707q-72 0 -123 51t-51 123t51 123t123 51t123.5 -51t51.5 -123t-51.5 -123t-123.5 -51zM274 -27q-72 0 -123 51t-51 123t51 123.5t123 51.5t123.5 -51.5t51.5 -123.5t-51.5 -123t-123.5 -51z" />
    <glyph glyph-name="semicolon" unicode=";" horiz-adv-x="571" 
d="M297 707q-72 0 -123 51t-51 123t51 123t123 51t123 -51t51 -123t-51 -123t-123 -51zM469 283l-154 -570h-215l82 570h287z" />
    <glyph glyph-name="less" unicode="&#x3c;" horiz-adv-x="1081" 
d="M989 1225v-275l-596 -233l596 -232v-274l-897 389v236z" />
    <glyph glyph-name="equal" unicode="=" horiz-adv-x="1075" 
d="M92 805v248h891v-248h-891zM92 381v248h891v-248h-891z" />
    <glyph glyph-name="greater" unicode="&#x3e;" horiz-adv-x="1081" 
d="M92 1225l897 -389v-236l-897 -389v274l596 232l-596 233v275z" />
    <glyph glyph-name="question" unicode="?" horiz-adv-x="1132" 
d="M399 481q0 63 25.5 120.5t63.5 98.5t83 84.5t83 79t63.5 81.5t25.5 93q0 71 -48.5 110.5t-137.5 39.5q-173 0 -244 -182l-241 139q62 152 195 234.5t300 82.5q88 0 169.5 -26.5t146.5 -75.5t104 -127t39 -174q0 -72 -25.5 -137t-63.5 -109.5t-83 -90t-83 -80t-63.5 -77
t-25.5 -84.5h-283zM541 -27q-72 0 -123 51t-51 123t51 123.5t123 51.5t123 -51.5t51 -123.5t-51 -123t-123 -51z" />
    <glyph glyph-name="at" unicode="@" horiz-adv-x="1595" 
d="M813 1253q133 0 249.5 -40t201 -109t145.5 -158.5t91 -190t30 -202.5q0 -214 -92 -329t-234 -115q-101 0 -170.5 42.5t-99.5 118.5q-78 -94 -203 -94q-131 0 -216 95.5t-85 240.5t85 240.5t216 95.5q111 0 187 -76v53h219v-473q0 -149 118 -149q88 0 142.5 87.5
t54.5 262.5t-84 320t-231 228t-324 83q-185 0 -338.5 -88t-242.5 -242.5t-89 -341.5q0 -143 53.5 -268t146.5 -213.5t224.5 -139.5t282.5 -51q195 0 332 51v-73q-136 -47 -332 -47q-221 0 -399.5 95t-280.5 264.5t-102 381.5q0 203 96.5 372.5t268 269t380.5 99.5zM786 373
q57 0 93 39t36 100q0 63 -36 101t-93 38q-59 0 -96 -38t-37 -101q0 -61 37 -100t96 -39z" />
    <glyph glyph-name="A" unicode="A" horiz-adv-x="1368" 
d="M1055 0l-86 258h-572l-86 -258h-305l502 1434h350l504 -1434h-307zM487 522h394l-197 586z" />
    <glyph glyph-name="B" unicode="B" horiz-adv-x="1239" 
d="M999 743q89 -51 139 -134.5t50 -192.5q0 -182 -129 -299t-318 -117h-608v1434h565q185 0 311 -113.5t126 -290.5t-136 -287zM698 1169h-282v-315h282q66 0 110 45t44 113t-43.5 112.5t-110.5 44.5zM741 264q72 0 119 48t47 122q0 72 -47 120t-119 48h-325v-338h325z" />
    <glyph glyph-name="C" unicode="C" horiz-adv-x="1486" 
d="M813 -29q-213 0 -384 99t-266 269.5t-95 377.5q0 208 95 378t266 268.5t384 98.5q195 0 359.5 -91.5t257.5 -246.5l-244 -141q-53 96 -152 150.5t-221 54.5q-209 0 -337 -131t-128 -340q0 -207 128 -338t337 -131q123 0 222.5 54.5t150.5 148.5l244 -142
q-92 -155 -256.5 -246.5t-360.5 -91.5z" />
    <glyph glyph-name="D" unicode="D" horiz-adv-x="1460" 
d="M702 1434q146 0 274.5 -55.5t219.5 -151.5t144 -228.5t53 -281.5t-53 -281.5t-144 -228.5t-219.5 -151.5t-274.5 -55.5h-569v1434h569zM702 270q186 0 303 124.5t117 322.5t-117 322t-303 124h-286v-893h286z" />
    <glyph glyph-name="E" unicode="E" horiz-adv-x="1085" 
d="M416 270h604v-270h-887v1434h877v-271h-594v-305h542v-266h-542v-322z" />
    <glyph glyph-name="F" unicode="F" horiz-adv-x="1062" 
d="M989 1163h-573v-340h557v-270h-557v-553h-283v1434h856v-271z" />
    <glyph glyph-name="G" unicode="G" horiz-adv-x="1607" 
d="M1540 770v-111q0 -308 -196.5 -498t-507.5 -190q-165 0 -309 59t-244 159t-157.5 237t-57.5 289q0 154 57.5 292t157 238t239 158.5t297.5 58.5q200 0 366 -91.5t259 -242.5l-242 -139q-51 89 -154.5 144t-230.5 55q-204 0 -336.5 -134.5t-132.5 -338.5
q0 -203 134.5 -335t355.5 -132q165 0 272 73t145 199h-434v250h719z" />
    <glyph glyph-name="H" unicode="H" horiz-adv-x="1361" 
d="M948 1434h281v-1434h-281v594h-532v-594h-283v1434h283v-570h532v570z" />
    <glyph glyph-name="I" unicode="I" horiz-adv-x="548" 
d="M133 1434h283v-1434h-283v1434z" />
    <glyph glyph-name="J" unicode="J" horiz-adv-x="1165" 
d="M541 -29q-165 0 -286 70t-187 203l243 139q35 -69 89 -102t141 -33q113 0 168 53t55 145v988h280v-988q0 -224 -141.5 -349.5t-361.5 -125.5z" />
    <glyph glyph-name="K" unicode="K" horiz-adv-x="1259" 
d="M1253 0h-325l-512 672v-672h-283v1434h283v-633l491 633h326l-531 -697z" />
    <glyph glyph-name="L" unicode="L" horiz-adv-x="989" 
d="M416 270h547v-270h-830v1434h283v-1164z" />
    <glyph glyph-name="M" unicode="M" horiz-adv-x="1669" 
d="M1536 1434v-1434h-281v930l-403 -666h-33l-403 664v-928h-283v1434h291l412 -678l409 678h291z" />
    <glyph glyph-name="N" unicode="N" horiz-adv-x="1378" 
d="M963 1434h282v-1434h-215l-614 877v-877h-283v1434h215l615 -875v875z" />
    <glyph glyph-name="O" unicode="O" horiz-adv-x="1622" 
d="M811 -29q-153 0 -290.5 58t-236.5 157.5t-157.5 238t-58.5 292.5q0 206 99 377.5t269.5 269.5t374.5 98t375 -98t270.5 -269.5t99.5 -377.5t-99.5 -377.5t-270.5 -270t-375 -98.5zM811 248q197 0 330 132.5t133 336.5q0 205 -133 338t-330 133t-330 -133t-133 -338
q0 -204 133 -336.5t330 -132.5z" />
    <glyph glyph-name="P" unicode="P" horiz-adv-x="1208" 
d="M668 1434q206 0 347.5 -140t141.5 -342t-141.5 -341.5t-347.5 -139.5h-252v-471h-283v1434h535zM668 735q90 0 149.5 62t59.5 155q0 94 -59 155.5t-150 61.5h-252v-434h252z" />
    <glyph glyph-name="Q" unicode="Q" horiz-adv-x="1632" 
d="M1556 717q0 -279 -176 -484l148 -153l-201 -178l-156 161q-165 -92 -360 -92q-152 0 -289.5 58t-237 157.5t-158 238t-58.5 292.5q0 155 58.5 293.5t158 237t237 156.5t289.5 58t289.5 -58t237.5 -156.5t159 -237t59 -293.5zM811 248q80 0 160 26l-236 246l201 178
l252 -262q86 123 86 281q0 135 -62 243.5t-167.5 168t-233.5 59.5t-233.5 -59.5t-167.5 -168t-62 -243.5q0 -203 133.5 -336t329.5 -133z" />
    <glyph glyph-name="R" unicode="R" horiz-adv-x="1257" 
d="M920 0l-289 498h-215v-498h-283v1434h574q130 0 240 -64t173.5 -173.5t63.5 -238.5q0 -133 -76 -246t-201 -171l318 -541h-305zM416 1169v-424h291q80 0 137 62t57 151t-57 150t-137 61h-291z" />
    <glyph glyph-name="S" unicode="S" horiz-adv-x="1193" 
d="M623 -29q-214 0 -359 95t-205 260l242 141q84 -219 330 -219q119 0 174 42.5t55 108.5q0 75 -68 117t-241 92q-75 22 -130 43t-115.5 56.5t-98.5 78.5t-63 107t-25 143q0 130 67 229t173 148t231 49q175 0 307 -84t205 -237l-238 -137q-41 88 -106 136t-168 48
q-87 0 -138 -40.5t-51 -103.5q0 -67 56.5 -109t216.5 -91q184 -58 262 -102q172 -94 201 -262q6 -37 6 -77q0 -198 -144 -315t-376 -117z" />
    <glyph glyph-name="T" unicode="T" horiz-adv-x="1105" 
d="M1081 1434v-271h-387v-1163h-282v1163h-385v271h1054z" />
    <glyph glyph-name="U" unicode="U" horiz-adv-x="1337" 
d="M668 -29q-157 0 -280.5 59.5t-195 173.5t-71.5 265v965h280v-942q0 -112 64.5 -178t202.5 -66t202 66t64 178v942h283v-965q0 -151 -71.5 -265t-195.5 -173.5t-282 -59.5z" />
    <glyph glyph-name="V" unicode="V" horiz-adv-x="1325" 
d="M487 0l-481 1434h307l351 -1102l348 1102h309l-483 -1434h-351z" />
    <glyph glyph-name="W" unicode="W" horiz-adv-x="2045" 
d="M432 0l-401 1434h297l274 -1063l299 1063h242l301 -1063l274 1063h297l-401 -1434h-322l-270 946l-268 -946h-322z" />
    <glyph glyph-name="X" unicode="X" horiz-adv-x="1249" 
d="M1225 0h-322l-278 467l-279 -467h-319l438 735l-416 699h320l256 -430l256 430h319l-416 -697z" />
    <glyph glyph-name="Y" unicode="Y" horiz-adv-x="1271" 
d="M1268 1434l-492 -875v-559h-280v559l-490 875h320l311 -598l311 598h320z" />
    <glyph glyph-name="Z" unicode="Z" horiz-adv-x="1095" 
d="M434 270h608v-270h-968v225l596 938h-582v271h942v-224z" />
    <glyph glyph-name="bracketleft" unicode="[" horiz-adv-x="634" 
d="M594 1384h-221v-1335h221v-254h-485v1843h485v-254z" />
    <glyph glyph-name="backslash" unicode="\" horiz-adv-x="1071" 
d="M887 -205l-819 1843h116l820 -1843h-117z" />
    <glyph glyph-name="bracketright" unicode="]" horiz-adv-x="634" 
d="M526 1638v-1843h-485v254h221v1335h-221v254h485z" />
    <glyph glyph-name="asciicircum" unicode="^" horiz-adv-x="1146" 
d="M674 1434l391 -676h-285l-207 372l-206 -372h-285l391 676h201z" />
    <glyph glyph-name="underscore" unicode="_" horiz-adv-x="1064" 
d="M68 -350v254h931v-254h-931z" />
    <glyph glyph-name="grave" unicode="`" horiz-adv-x="563" 
d="M522 1153l-164 281h-317l227 -281h254z" />
    <glyph glyph-name="a" unicode="a" 
d="M899 1024h264v-1024h-264v121q-121 -150 -334 -150q-205 0 -351 157t-146 384t146 384t351 157q213 0 334 -150v121zM614 223q124 0 204.5 80.5t80.5 208.5t-80.5 208.5t-204.5 80.5q-123 0 -202.5 -80.5t-79.5 -208.5t79.5 -208.5t202.5 -80.5z" />
    <glyph glyph-name="b" unicode="b" 
d="M717 1053q135 0 250 -71t182.5 -195.5t67.5 -274.5t-67.5 -274.5t-182.5 -195.5t-250 -71q-214 0 -332 150v-121h-264v1434h264v-531q118 150 332 150zM668 223q124 0 204 80.5t80 208.5t-80 208.5t-204 80.5q-123 0 -203 -80.5t-80 -208.5t80 -208.5t203 -80.5z" />
    <glyph glyph-name="c" unicode="c" horiz-adv-x="1097" 
d="M608 -29q-153 0 -277 71.5t-193.5 195t-69.5 274.5t69.5 274.5t193.5 195t277 71.5q149 0 272 -72.5t187 -192.5l-227 -133q-31 63 -93.5 100.5t-140.5 37.5q-119 0 -196.5 -79t-77.5 -202q0 -121 77.5 -200t196.5 -79q79 0 142 36.5t94 99.5l229 -131
q-67 -122 -190.5 -194.5t-272.5 -72.5z" />
    <glyph glyph-name="d" unicode="d" 
d="M897 1434h264v-1434h-264v121q-118 -150 -332 -150q-101 0 -193 42t-159.5 113.5t-107 172.5t-39.5 213t39.5 213t107 172.5t159.5 113.5t193 42q214 0 332 -150v531zM614 223q123 0 203 80.5t80 208.5t-80 208.5t-203 80.5q-124 0 -204 -80.5t-80 -208.5t80 -208.5
t204 -80.5z" />
    <glyph glyph-name="e" unicode="e" horiz-adv-x="1189" 
d="M344 403q27 -97 103.5 -144.5t185.5 -47.5q74 0 134 28t95 74l213 -123q-73 -106 -186.5 -162.5t-259.5 -56.5q-126 0 -232 41.5t-178 114.5t-111.5 172t-39.5 213q0 232 151 386.5t389 154.5q148 0 267.5 -72.5t185 -196t65.5 -272.5q0 -51 -10 -109h-772zM340 608h522
q-23 104 -93.5 155.5t-160.5 51.5q-105 0 -175 -54t-93 -153z" />
    <glyph glyph-name="f" unicode="f" horiz-adv-x="671" 
d="M672 1208q-107 8 -162 -32.5t-55 -141.5v-10h217v-254h-217v-770h-265v770h-147v254h147v10q0 217 121.5 330t360.5 98v-254z" />
    <glyph glyph-name="g" unicode="g" 
d="M905 1024h258v-975q0 -98 -29.5 -179.5t-80.5 -137.5t-119.5 -95t-145 -57t-159.5 -18q-167 0 -293 63.5t-193 186.5l226 129q24 -44 53.5 -73.5t84.5 -50t130 -20.5q126 0 197 66t71 186v111q-117 -156 -327 -156q-143 0 -260.5 70.5t-183.5 190.5t-66 263
q0 142 66 262.5t184 191.5t260 71q210 0 327 -156v127zM618 248q125 0 206 78.5t81 201.5q0 121 -81 200t-206 79t-205.5 -79t-80.5 -200q0 -123 80.5 -201.5t205.5 -78.5z" />
    <glyph glyph-name="h" unicode="h" horiz-adv-x="1181" 
d="M690 1053q169 0 278 -113t109 -311v-629h-264v596q0 102 -55.5 156.5t-147.5 54.5q-102 0 -163.5 -63t-61.5 -191v-553h-264v1434h264v-525q46 69 124.5 106.5t180.5 37.5z" />
    <glyph glyph-name="i" unicode="i" horiz-adv-x="505" 
d="M252 1147q-66 0 -114 48t-48 114t48 115t114 49q67 0 115.5 -49t48.5 -115t-48.5 -114t-115.5 -48zM121 0v1024h264v-1024h-264z" />
    <glyph glyph-name="j" unicode="j" horiz-adv-x="540" 
d="M289 1147q-67 0 -115.5 48t-48.5 114t48.5 115t115.5 49q66 0 114 -49t48 -115t-48 -114t-114 -48zM156 -20v1044h264v-1044q0 -226 -110 -328.5t-337 -89.5v254q95 -6 139 32.5t44 131.5z" />
    <glyph glyph-name="k" unicode="k" horiz-adv-x="1075" 
d="M1065 0h-307l-373 465v-465h-264v1434h264v-861l352 451h316l-412 -506z" />
    <glyph glyph-name="l" unicode="l" horiz-adv-x="505" 
d="M121 0v1495h264v-1495h-264z" />
    <glyph glyph-name="m" unicode="m" horiz-adv-x="1744" 
d="M1253 1053q175 0 281 -115t106 -307v-631h-264v612q0 92 -45 143.5t-127 51.5q-89 0 -139.5 -59.5t-50.5 -172.5v-575h-264v612q0 92 -45 143.5t-127 51.5q-88 0 -140.5 -60t-52.5 -172v-575h-264v1024h264v-109q91 138 285 138q188 0 278 -148q101 148 305 148z" />
    <glyph glyph-name="n" unicode="n" horiz-adv-x="1181" 
d="M690 1053q169 0 278 -113t109 -311v-629h-264v596q0 102 -55.5 156.5t-147.5 54.5q-102 0 -163.5 -63t-61.5 -191v-553h-264v1024h264v-115q46 69 124.5 106.5t180.5 37.5z" />
    <glyph glyph-name="o" unicode="o" horiz-adv-x="1216" 
d="M608 -29q-148 0 -272 71t-196 195.5t-72 274.5t72 274.5t196 195.5t272 71q149 0 273.5 -71t197 -195.5t72.5 -274.5t-72.5 -274.5t-197 -195.5t-273.5 -71zM608 229q120 0 199.5 79.5t79.5 203.5t-79.5 203.5t-199.5 79.5q-118 0 -197 -80t-79 -203t79 -203t197 -80z
" />
    <glyph glyph-name="p" unicode="p" 
d="M717 1053q135 0 250 -71t182.5 -195.5t67.5 -274.5t-67.5 -274.5t-182.5 -195.5t-250 -71q-214 0 -332 150v-531h-264v1434h264v-121q118 150 332 150zM668 223q124 0 204 80.5t80 208.5t-80 208.5t-204 80.5q-123 0 -203 -80.5t-80 -208.5t80 -208.5t203 -80.5z" />
    <glyph glyph-name="q" unicode="q" 
d="M897 1024h264v-1434h-264v531q-118 -150 -332 -150q-101 0 -193 42t-159.5 113.5t-107 172.5t-39.5 213t39.5 213t107 172.5t159.5 113.5t193 42q214 0 332 -150v121zM614 223q123 0 203 80.5t80 208.5t-80 208.5t-203 80.5q-124 0 -204 -80.5t-80 -208.5t80 -208.5
t204 -80.5z" />
    <glyph glyph-name="r" unicode="r" horiz-adv-x="729" 
d="M385 848q38 99 122.5 147.5t188.5 48.5v-294q-54 6 -106.5 -4.5t-99.5 -39t-76 -84.5t-29 -133v-489h-264v1024h264v-176z" />
    <glyph glyph-name="s" unicode="s" horiz-adv-x="952" 
d="M365 733q0 -27 22.5 -47t60 -32t85 -26t96.5 -27.5t96.5 -38.5t85 -57t60 -85t22.5 -121q0 -106 -58 -182t-149.5 -111t-204.5 -35q-154 0 -264 62.5t-166 181.5l230 129q22 -64 73 -98.5t127 -34.5q65 0 103.5 22.5t38.5 65.5q0 30 -29 51.5t-76 36.5t-103.5 30
t-112.5 38t-103 55.5t-76 88t-29 128.5q0 151 112 238.5t277 87.5q126 0 228 -56t161 -161l-225 -123q-49 104 -164 104q-52 0 -85 -22t-33 -62z" />
    <glyph glyph-name="t" unicode="t" horiz-adv-x="788" 
d="M707 770h-232v-426q0 -53 26.5 -78t78 -27.5t127.5 1.5v-240q-185 -20 -294 11t-155.5 111t-46.5 222v426h-178v254h178v207l264 80v-287h232v-254z" />
    <glyph glyph-name="u" unicode="u" horiz-adv-x="1181" 
d="M797 1024h264v-1024h-264v115q-46 -69 -124.5 -106.5t-180.5 -37.5q-169 0 -278.5 113t-109.5 311v629h265v-596q0 -102 55 -156.5t147 -54.5q102 0 164 63t62 191v553z" />
    <glyph glyph-name="v" unicode="v" horiz-adv-x="1091" 
d="M795 1024h290l-389 -1024h-301l-389 1024h291l248 -717z" />
    <glyph glyph-name="w" unicode="w" horiz-adv-x="1576" 
d="M1274 1024h280l-325 -1024h-252l-189 621l-188 -621h-252l-325 1024h280l174 -629l187 629h249l187 -631z" />
    <glyph glyph-name="x" unicode="x" horiz-adv-x="1075" 
d="M1065 0h-305l-221 311l-224 -311h-305l375 522l-358 502h305l207 -289l206 289h304l-359 -500z" />
    <glyph glyph-name="y" unicode="y" horiz-adv-x="1075" 
d="M788 1024h283l-373 -1024q-79 -220 -211.5 -320.5t-328.5 -89.5v246q107 -1 169 45.5t99 151.5l-420 991h289l266 -688z" />
    <glyph glyph-name="z" unicode="z" horiz-adv-x="970" 
d="M442 248h455v-248h-809v176l432 600h-411v248h768v-176z" />
    <glyph glyph-name="braceleft" unicode="{" horiz-adv-x="735" 
d="M694 -219q-430 -29 -430 381v303q0 83 -39.5 108.5t-122.5 18.5v256q83 -7 122.5 18.5t39.5 108.5v303q0 410 430 381v-254q-86 10 -126 -16.5t-40 -110.5v-303q0 -187 -122 -254q122 -70 122 -256v-303q0 -84 40 -110.5t126 -16.5v-254z" />
    <glyph glyph-name="bar" unicode="|" horiz-adv-x="530" 
d="M133 -410v1885h264v-1885h-264z" />
    <glyph glyph-name="braceright" unicode="}" horiz-adv-x="735" 
d="M41 -219v254q86 -10 126 16.5t40 110.5v303q0 185 123 256q-123 68 -123 254v303q0 84 -40 110.5t-126 16.5v254q430 29 430 -381v-303q0 -83 39.5 -108.5t122.5 -18.5v-256q-83 7 -122.5 -18.5t-39.5 -108.5v-303q0 -410 -430 -381z" />
    <glyph glyph-name="asciitilde" unicode="~" horiz-adv-x="1226" 
d="M920 907l215 -104q-36 -134 -113 -207.5t-178 -76.5t-221 52q-66 31 -108 46t-77.5 20t-57.5 -7.5t-39.5 -37.5t-33.5 -70l-215 103q36 134 113 207t178 76.5t221 -50.5q82 -39 130 -55t85.5 -11t58.5 32t42 83z" />
    <glyph glyph-name="exclamdown" unicode="&#xa1;" horiz-adv-x="548" 
d="M274 1051q72 0 123.5 -51t51.5 -123t-51.5 -123.5t-123.5 -51.5t-123 51.5t-51 123.5t51 123t123 51zM170 543h209l53 -543v-410h-317v410z" />
    <glyph glyph-name="cent" unicode="&#xa2;" horiz-adv-x="1097" 
d="M842 573l229 -131q-67 -122 -190.5 -194t-272.5 -72q-70 0 -125 14l-61 -190h-119l72 225q-141 64 -224 195t-83 297q0 230 154 385t386 155q55 0 99 -8l59 185h119l-70 -217q81 -32 146.5 -90.5t105.5 -133.5l-227 -133q-35 72 -107 107l-168 -527q12 -2 41 -2
q79 0 142 36t94 99zM332 717q0 -77 33.5 -139.5t91.5 -98.5l168 518h-19q-119 0 -196.5 -78.5t-77.5 -201.5z" />
    <glyph glyph-name="sterling" unicode="&#xa3;" horiz-adv-x="1189" 
d="M498 272h669v-272h-1099v272h149v289h-125v248h125v205q0 90 26 165.5t69.5 127t102 87t122.5 52t131 16.5q155 0 270.5 -79t173.5 -220l-244 -139q-27 83 -73 123.5t-121 40.5q-76 0 -126 -47t-50 -137v-195h415v-248h-415v-289z" />
    <glyph glyph-name="currency" unicode="&#xa4;" horiz-adv-x="1112" 
d="M995 717q0 -152 -92 -268l144 -144l-78 -78l-146 146q-113 -86 -266 -86q-151 0 -268 84l-144 -144l-77 78l141 144q-92 116 -92 268q0 151 92 270l-141 141l77 78l144 -143q120 86 268 86q146 0 266 -86l146 143l78 -78l-144 -143q92 -119 92 -268zM557 537q78 0 128 51
t50 129q0 79 -50 129.5t-128 50.5q-79 0 -128.5 -50t-49.5 -130q0 -79 49.5 -129.5t128.5 -50.5z" />
    <glyph glyph-name="yen" unicode="&#xa5;" horiz-adv-x="1230" 
d="M1268 1434l-389 -693h208v-163h-301l-10 -19v-74h311v-166h-311v-319h-280v319h-351v166h351v74l-11 19h-340v163h248l-387 693h320l311 -598l311 598h320z" />
    <glyph glyph-name="brokenbar" unicode="&#xa6;" horiz-adv-x="530" 
d="M133 717v758h264v-758h-264zM133 -410v758h264v-758h-264z" />
    <glyph glyph-name="section" unicode="&#xa7;" horiz-adv-x="1110" 
d="M1034 582q0 -78 -32 -146.5t-89 -116.5q68 -85 68 -204q0 -110 -56.5 -189t-148 -117t-207.5 -38q-343 0 -452 258l235 135q56 -160 217 -160q72 0 110 29.5t38 81.5q0 19 -8 35.5t-26 31.5t-36 27t-50 26t-55 23.5t-63.5 25t-64.5 25.5q-68 29 -116.5 57t-97.5 70.5
t-74.5 100.5t-25.5 129q0 160 127 256q-61 80 -61 202q0 158 114 248t277 90q135 0 245 -66t165 -192l-217 -119q-66 144 -193 144q-58 0 -92.5 -28t-34.5 -77q0 -39 38.5 -73.5t75.5 -51.5t125 -52q28 -11 42 -17q69 -28 118.5 -54.5t100.5 -68t77.5 -98.5t26.5 -127z
M365 680q0 -56 43.5 -93t121.5 -67q20 -8 87.5 -31t105.5 -40q47 41 47 102q0 60 -45 95.5t-137 72.5q-145 53 -174 65q-49 -37 -49 -104z" />
    <glyph glyph-name="dieresis" unicode="&#xa8;" horiz-adv-x="747" 
d="M180 1124q-57 0 -98 40.5t-41 97.5t41 98t98 41t97 -41t40 -98t-40 -97.5t-97 -40.5zM569 1124q-57 0 -98 40.5t-41 97.5t41 98t98 41t97.5 -41t40.5 -98t-40.5 -97.5t-97.5 -40.5z" />
    <glyph glyph-name="copyright" unicode="&#xa9;" horiz-adv-x="1615" 
d="M809 -25q-202 0 -372.5 99.5t-269.5 270t-99 372.5q0 151 58.5 288.5t157.5 236.5t236.5 157.5t288.5 58.5t288.5 -58.5t236.5 -157.5t157.5 -236.5t58.5 -288.5q0 -202 -99 -372.5t-269.5 -270t-372.5 -99.5zM809 45q180 0 333 90t242 244.5t89 337.5t-89 337.5
t-242 244.5t-333 90q-181 0 -334.5 -90t-242.5 -244.5t-89 -337.5t89 -337.5t242.5 -244.5t334.5 -90zM815 315q-167 0 -286 118.5t-119 283.5t119 283t286 118q106 0 198 -52t144 -144l-196 -115q-20 37 -59.5 60.5t-92.5 23.5q-77 0 -124.5 -51.5t-47.5 -122.5
t47.5 -122.5t124.5 -51.5q53 0 92.5 24t59.5 62l198 -117q-52 -91 -145 -144t-199 -53z" />
    <glyph glyph-name="guillemotleft" unicode="&#xab;" horiz-adv-x="1116" 
d="M598 1018l-225 -385l225 -383h-244l-225 383l225 385h244zM987 1018l-225 -385l225 -383h-244l-225 383l225 385h244z" />
    <glyph glyph-name="logicalnot" unicode="&#xac;" horiz-adv-x="1126" 
d="M92 842h942v-492h-264v244h-678v248z" />
    <glyph glyph-name="registered" unicode="&#xae;" horiz-adv-x="1615" 
d="M809 1458q151 0 288.5 -58.5t236.5 -157.5t157.5 -236.5t58.5 -288.5q0 -202 -99 -372.5t-269.5 -270t-372.5 -99.5t-372.5 99.5t-269.5 270t-99 372.5q0 151 58.5 288.5t157.5 236.5t236.5 157.5t288.5 58.5zM809 45q180 0 333 90t242 244.5t89 337.5t-89 337.5
t-242 244.5t-333 90q-181 0 -334.5 -90t-242.5 -244.5t-89 -337.5t89 -337.5t242.5 -244.5t334.5 -90zM1126 844q0 -150 -112 -228l155 -278h-235l-109 225h-77v-225h-220v758h306q124 0 208 -70t84 -182zM748 897v-149h67q42 0 67 20t25 53q0 76 -92 76h-67z" />
    <glyph glyph-name="macron" unicode="&#xaf;" horiz-adv-x="675" 
d="M41 1155v215h594v-215h-594z" />
    <glyph glyph-name="degree" unicode="&#xb0;" horiz-adv-x="821" 
d="M412 983q-147 0 -245.5 99t-98.5 239q0 141 98 239.5t246 98.5t246 -98.5t98 -239.5t-97 -239.5t-247 -98.5zM412 1198q54 0 87 34.5t33 88.5q0 53 -33.5 88t-86.5 35t-87 -35t-34 -88t34 -88t87 -35z" />
    <glyph glyph-name="plusminus" unicode="&#xb1;" horiz-adv-x="1136" 
d="M692 1028h338v-248h-338v-299h-248v299h-335v248h335v299h248v-299zM109 109v247h921v-247h-921z" />
    <glyph glyph-name="acute" unicode="&#xb4;" horiz-adv-x="563" 
d="M41 1153h254l227 281h-317z" />
    <glyph glyph-name="uni00B5" unicode="&#xb5;" horiz-adv-x="1263" 
d="M1143 248h74v-248h-123q-155 0 -228 102q-96 -131 -297 -131q-107 0 -184 45v-426h-264v1434h264v-594q0 -103 55.5 -158t147.5 -55q102 0 163.5 63t61.5 191v553h264v-711q0 -31 17.5 -48t48.5 -17z" />
    <glyph glyph-name="paragraph" unicode="&#xb6;" horiz-adv-x="1370" 
d="M1276 1434v-232h-127v-1612h-248v1612h-162v-1612h-247v963q-120 0 -221.5 59t-160.5 160.5t-59 220.5q0 183 129 312t312 129h784z" />
    <glyph glyph-name="periodcentered" unicode="&#xb7;" horiz-adv-x="548" 
d="M274 537q-72 0 -123 51t-51 123t51 123t123 51t123.5 -51t51.5 -123t-51.5 -123t-123.5 -51z" />
    <glyph glyph-name="cedilla" unicode="&#xb8;" horiz-adv-x="532" 
d="M348 -94q60 -14 102 -54.5t42 -105.5q0 -214 -451 -188v186q221 -15 221 41q0 23 -32 34.5t-97 16.5v164h215v-94z" />
    <glyph glyph-name="guillemotright" unicode="&#xbb;" horiz-adv-x="1116" 
d="M373 1018l225 -385l-225 -383h-244l225 383l-225 385h244zM762 1018l225 -385l-225 -383h-244l225 383l-225 385h244z" />
    <glyph glyph-name="onequarter" unicode="&#xbc;" horiz-adv-x="1667" 
d="M444 614h-219v598l-168 -47l-51 181l246 88h192v-820zM1059 1434h184l-819 -1434h-184zM1634 332v-201h-84v-131h-209v131h-383v201l265 487h233l-252 -487h137v141h209v-141h84z" />
    <glyph glyph-name="onehalf" unicode="&#xbd;" horiz-adv-x="1665" 
d="M444 614h-219v598l-168 -47l-51 181l246 88h192v-820zM1059 1434h184l-819 -1434h-184zM1313 199h284v-199h-612v143l307 306q72 69 72 124q0 34 -23 54t-61 20q-84 0 -127 -104l-178 102q40 94 118.5 148.5t188.5 54.5q130 0 216.5 -72.5t86.5 -185.5q0 -72 -36 -134.5
t-103 -129.5z" />
    <glyph glyph-name="threequarters" unicode="&#xbe;" horiz-adv-x="1832" 
d="M657 862q0 -132 -84 -204t-233 -72q-238 0 -320 182l185 106q36 -96 135 -96q47 0 72.5 22t25.5 62q0 38 -29 60t-75 22h-39l-82 119l141 172h-297v199h564v-162l-148 -176q88 -25 136 -85.5t48 -148.5zM1225 1434h184l-819 -1434h-184zM1800 332v-201h-84v-131h-209v131
h-383v201l265 487h233l-252 -487h137v141h209v-141h84z" />
    <glyph glyph-name="questiondown" unicode="&#xbf;" horiz-adv-x="1132" 
d="M592 1051q72 0 123 -51t51 -123t-51 -123.5t-123 -51.5t-123 51.5t-51 123.5t51 123t123 51zM733 543q0 -63 -25.5 -120.5t-63.5 -98.5t-83 -84.5t-83 -79t-63.5 -81.5t-25.5 -93q0 -71 48.5 -110.5t137.5 -39.5q173 0 244 182l242 -139q-62 -152 -195.5 -234.5
t-300.5 -82.5q-88 0 -169.5 26.5t-146.5 75.5t-104 127t-39 174q0 62 19 118.5t49.5 99t67 81.5t73.5 73t67.5 66t49.5 68t19 72h282z" />
    <glyph glyph-name="Agrave" unicode="&#xc0;" horiz-adv-x="1368" 
d="M852 1563h-254l-227 280h317zM1055 0l-86 258h-572l-86 -258h-305l502 1434h350l504 -1434h-307zM487 522h394l-197 586z" />
    <glyph glyph-name="Aacute" unicode="&#xc1;" horiz-adv-x="1368" 
d="M1001 1843l-227 -280h-254l164 280h317zM1055 0l-86 258h-572l-86 -258h-305l502 1434h350l504 -1434h-307zM487 522h394l-197 586z" />
    <glyph glyph-name="Acircumflex" unicode="&#xc2;" horiz-adv-x="1368" 
d="M678 1679l-90 -133h-262l217 297h268l217 -297h-262zM1055 0l-86 258h-572l-86 -258h-305l502 1434h350l504 -1434h-307zM487 522h394l-197 586z" />
    <glyph glyph-name="Atilde" unicode="&#xc3;" horiz-adv-x="1368" 
d="M657 1606q-60 41 -84 32.5t-24 -82.5h-213q0 95 22 161.5t58.5 99.5t85 42t101 -6t106.5 -49q60 -41 83 -33t23 82h215q0 -94 -22 -161t-59 -99.5t-85.5 -41.5t-101 6t-105.5 49zM1055 0l-86 258h-572l-86 -258h-305l502 1434h350l504 -1434h-307zM487 522h394l-197 586z
" />
    <glyph glyph-name="Adieresis" unicode="&#xc4;" horiz-adv-x="1368" 
d="M489 1534q-57 0 -98 40t-41 97t41 98t98 41t97.5 -41t40.5 -98t-40.5 -97t-97.5 -40zM879 1534q-57 0 -98.5 40t-41.5 97t41.5 98t98.5 41t97 -41t40 -98t-40 -97t-97 -40zM1055 0l-86 258h-572l-86 -258h-305l502 1434h350l504 -1434h-307zM487 522h394l-197 586z" />
    <glyph glyph-name="Aring" unicode="&#xc5;" horiz-adv-x="1368" 
d="M1055 0l-86 258h-572l-86 -258h-305l490 1401q-70 70 -70 172q0 104 72.5 173t185.5 69q115 0 186.5 -69t71.5 -173q0 -105 -72 -174l492 -1399h-307zM684 1649q-37 0 -58.5 -21.5t-21.5 -54.5q0 -35 21.5 -56.5t58.5 -21.5q40 0 61 21.5t21 56.5q0 34 -21 55t-61 21z
M487 522h394l-197 586z" />
    <glyph glyph-name="AE" unicode="&#xc6;" horiz-adv-x="1802" 
d="M1196 270h541v-270h-815v258h-453l-152 -258h-317l848 1434h878v-271h-530v-305h483v-266h-483v-322zM625 522h297v504z" />
    <glyph glyph-name="Ccedilla" unicode="&#xc7;" horiz-adv-x="1486" 
d="M813 248q123 0 222.5 54.5t150.5 148.5l244 -142q-76 -130 -207 -216.5t-291 -112.5v-74q60 -14 101.5 -54.5t41.5 -105.5q0 -214 -450 -188v186q221 -15 221 41q0 23 -32 34.5t-97 16.5v141q-189 21 -337 123.5t-230 263.5t-82 353q0 208 95 378t266 268.5t384 98.5
q195 0 359.5 -91.5t257.5 -246.5l-244 -141q-53 96 -152 150.5t-221 54.5q-209 0 -337 -131t-128 -340q0 -207 128 -338t337 -131z" />
    <glyph glyph-name="Egrave" unicode="&#xc8;" horiz-adv-x="1085" 
d="M739 1563h-254l-227 280h317zM416 270h604v-270h-887v1434h877v-271h-594v-305h542v-266h-542v-322z" />
    <glyph glyph-name="Eacute" unicode="&#xc9;" horiz-adv-x="1085" 
d="M889 1843l-227 -280h-254l163 280h318zM416 270h604v-270h-887v1434h877v-271h-594v-305h542v-266h-542v-322z" />
    <glyph glyph-name="Ecircumflex" unicode="&#xca;" horiz-adv-x="1085" 
d="M565 1679l-90 -133h-262l217 297h268l217 -297h-262zM416 270h604v-270h-887v1434h877v-271h-594v-305h542v-266h-542v-322z" />
    <glyph glyph-name="Edieresis" unicode="&#xcb;" horiz-adv-x="1085" 
d="M377 1534q-57 0 -98 40t-41 97t41 98t98 41t97 -41t40 -98t-40 -97t-97 -40zM766 1534q-57 0 -98 40t-41 97t41 98t98 41t97 -41t40 -98t-40 -97t-97 -40zM416 270h604v-270h-887v1434h877v-271h-594v-305h542v-266h-542v-322z" />
    <glyph glyph-name="Igrave" unicode="&#xcc;" horiz-adv-x="548" 
d="M442 1563l-163 280h-318l227 -280h254zM133 1434h283v-1434h-283v1434z" />
    <glyph glyph-name="Iacute" unicode="&#xcd;" horiz-adv-x="548" 
d="M111 1563h254l227 280h-318zM133 1434h283v-1434h-283v1434z" />
    <glyph glyph-name="Icircumflex" unicode="&#xce;" horiz-adv-x="548" 
d="M268 1679l-90 -133h-262l217 297h268l217 -297h-262zM133 0v1434h283v-1434h-283z" />
    <glyph glyph-name="Idieresis" unicode="&#xcf;" horiz-adv-x="548" 
d="M80 1534q-57 0 -98 40t-41 97t41 98t98 41t97 -41t40 -98t-40 -97t-97 -40zM469 1534q-57 0 -98 40t-41 97t41 98t98 41t97 -41t40 -98t-40 -97t-97 -40zM133 1434h283v-1434h-283v1434z" />
    <glyph glyph-name="Eth" unicode="&#xd0;" horiz-adv-x="1531" 
d="M774 1434q194 0 352.5 -94.5t248 -259t89.5 -363.5t-89.5 -363.5t-248 -259t-352.5 -94.5h-569v575h-160v254h160v605h569zM774 270q186 0 303 124.5t117 322.5t-117 322t-303 124h-287v-334h326v-254h-326v-305h287z" />
    <glyph glyph-name="Ntilde" unicode="&#xd1;" horiz-adv-x="1378" 
d="M326 1556q0 95 22 161.5t58.5 99.5t84.5 42t100.5 -6t106.5 -49q60 -41 83.5 -33t23.5 82h215q0 -94 -22 -161t-59 -99.5t-85.5 -41.5t-101 6t-105.5 49q-60 41 -84 32.5t-24 -82.5h-213zM963 1434h282v-1434h-215l-614 877v-877h-283v1434h215l615 -875v875z" />
    <glyph glyph-name="Ograve" unicode="&#xd2;" horiz-adv-x="1622" 
d="M979 1579l-164 281h-317l227 -281h254zM811 -29q-153 0 -290.5 58t-236.5 157.5t-157.5 238t-58.5 292.5q0 206 99 377.5t269.5 269.5t374.5 98t375 -98t270.5 -269.5t99.5 -377.5t-99.5 -377.5t-270.5 -270t-375 -98.5zM811 248q197 0 330 132.5t133 336.5
q0 205 -133 338t-330 133t-330 -133t-133 -338q0 -204 133 -336.5t330 -132.5z" />
    <glyph glyph-name="Oacute" unicode="&#xd3;" horiz-adv-x="1622" 
d="M647 1579h254l227 281h-317zM811 -29q-153 0 -290.5 58t-236.5 157.5t-157.5 238t-58.5 292.5q0 206 99 377.5t269.5 269.5t374.5 98t375 -98t270.5 -269.5t99.5 -377.5t-99.5 -377.5t-270.5 -270t-375 -98.5zM811 248q197 0 330 132.5t133 336.5q0 205 -133 338
t-330 133t-330 -133t-133 -338q0 -204 133 -336.5t330 -132.5z" />
    <glyph glyph-name="Ocircumflex" unicode="&#xd4;" horiz-adv-x="1622" 
d="M805 1696l-90 -133h-262l217 297h268l217 -297h-262zM811 1462q204 0 375 -98t270.5 -269.5t99.5 -377.5t-99.5 -377.5t-270.5 -270t-375 -98.5q-153 0 -290.5 58t-236.5 157.5t-157.5 238t-58.5 292.5q0 206 99 377.5t269.5 269.5t374.5 98zM811 248q197 0 330 132.5
t133 336.5q0 205 -133 338t-330 133t-330 -133t-133 -338q0 -204 133 -336.5t330 -132.5z" />
    <glyph glyph-name="Otilde" unicode="&#xd5;" horiz-adv-x="1622" 
d="M463 1573q0 95 22 161.5t58.5 99.5t85 42t101 -6t106.5 -49q60 -41 83 -33t23 82h215q0 -94 -22 -161t-59 -100t-85.5 -42t-101 6t-105.5 49q-60 41 -84 33t-24 -82h-213zM811 -29q-153 0 -290.5 58t-236.5 157.5t-157.5 238t-58.5 292.5q0 206 99 377.5t269.5 269.5
t374.5 98t375 -98t270.5 -269.5t99.5 -377.5t-99.5 -377.5t-270.5 -270t-375 -98.5zM811 248q197 0 330 132.5t133 336.5q0 205 -133 338t-330 133t-330 -133t-133 -338q0 -204 133 -336.5t330 -132.5z" />
    <glyph glyph-name="Odieresis" unicode="&#xd6;" horiz-adv-x="1622" 
d="M616 1550q-57 0 -98 40.5t-41 97.5t41 98t98 41t97.5 -41t40.5 -98t-40.5 -97.5t-97.5 -40.5zM1006 1550q-57 0 -98.5 40.5t-41.5 97.5t41.5 98t98.5 41t97 -41t40 -98t-40 -97.5t-97 -40.5zM811 -29q-153 0 -290.5 58t-236.5 157.5t-157.5 238t-58.5 292.5
q0 206 99 377.5t269.5 269.5t374.5 98t375 -98t270.5 -269.5t99.5 -377.5t-99.5 -377.5t-270.5 -270t-375 -98.5zM811 248q197 0 330 132.5t133 336.5q0 205 -133 338t-330 133t-330 -133t-133 -338q0 -204 133 -336.5t330 -132.5z" />
    <glyph glyph-name="multiply" unicode="&#xd7;" horiz-adv-x="1048" 
d="M946 965l-248 -248l248 -248l-176 -172l-246 246l-245 -246l-177 172l248 248l-248 248l177 172l245 -246l246 246z" />
    <glyph glyph-name="Oslash" unicode="&#xd8;" horiz-adv-x="1634" 
d="M1360 1239q99 -102 154 -236.5t55 -285.5q0 -154 -59 -292.5t-158.5 -238t-237.5 -157.5t-291 -58q-227 0 -411 123l-97 -117l-139 82l113 136q-99 104 -154 237.5t-55 284.5q0 206 99 377.5t269.5 269.5t374.5 98q226 0 414 -123l96 117l140 -80zM360 717
q0 -181 107 -307l594 716q-111 62 -238 62q-197 0 -330 -133t-133 -338zM823 248q197 0 330 132.5t133 336.5q0 181 -104 307l-594 -717q106 -59 235 -59z" />
    <glyph glyph-name="Ugrave" unicode="&#xd9;" horiz-adv-x="1337" 
d="M836 1563l-164 280h-318l228 -280h254zM668 -29q-157 0 -280.5 59.5t-195 173.5t-71.5 265v965h280v-942q0 -112 64.5 -178t202.5 -66t202 66t64 178v942h283v-965q0 -151 -71.5 -265t-195.5 -173.5t-282 -59.5z" />
    <glyph glyph-name="Uacute" unicode="&#xda;" horiz-adv-x="1337" 
d="M504 1563h254l227 280h-317zM668 -29q-157 0 -280.5 59.5t-195 173.5t-71.5 265v965h280v-942q0 -112 64.5 -178t202.5 -66t202 66t64 178v942h283v-965q0 -151 -71.5 -265t-195.5 -173.5t-282 -59.5z" />
    <glyph glyph-name="Ucircumflex" unicode="&#xdb;" horiz-adv-x="1337" 
d="M662 1679l-91 -133h-262l217 297h269l217 -297h-262zM934 1434h283v-965q0 -151 -71.5 -265t-195.5 -173.5t-282 -59.5q-157 0 -280.5 59.5t-195 173.5t-71.5 265v965h280v-942q0 -112 64.5 -178t202.5 -66t202 66t64 178v942z" />
    <glyph glyph-name="Udieresis" unicode="&#xdc;" horiz-adv-x="1337" 
d="M473 1534q-57 0 -98 40t-41 97t41 98t98 41t97 -41t40 -98t-40 -97t-97 -40zM862 1534q-57 0 -98 40t-41 97t41 98t98 41t97 -41t40 -98t-40 -97t-97 -40zM668 -29q-157 0 -280.5 59.5t-195 173.5t-71.5 265v965h280v-942q0 -112 64.5 -178t202.5 -66t202 66t64 178v942
h283v-965q0 -151 -71.5 -265t-195.5 -173.5t-282 -59.5z" />
    <glyph glyph-name="Yacute" unicode="&#xdd;" horiz-adv-x="1271" 
d="M952 1843l-227 -280h-254l164 280h317zM1268 1434l-492 -875v-559h-280v559l-490 875h320l311 -598l311 598h320z" />
    <glyph glyph-name="Thorn" unicode="&#xde;" horiz-adv-x="1208" 
d="M676 1198q201 0 341 -140t140 -341t-140 -341t-341 -140h-260v-236h-283v1434h283v-236h260zM676 500q85 0 143 62.5t58 154.5q0 93 -58 155t-143 62h-260v-434h260z" />
    <glyph glyph-name="germandbls" unicode="&#xdf;" horiz-adv-x="1099" 
d="M571 -12v233q124 -11 178 20.5t54 100.5q0 38 -25 86t-61 94.5t-72 93.5t-61 95.5t-25 87.5q0 38 20 77t44.5 67t44.5 68t20 79q0 56 -37.5 93.5t-101.5 37.5q-72 0 -118 -45t-46 -134v-1042h-264v1040q0 193 119 307.5t319 114.5q179 0 286 -97t107 -235
q0 -48 -12.5 -90t-31 -71t-36.5 -54.5t-30.5 -51t-12.5 -48.5q0 -33 24.5 -76.5t59.5 -90t70 -98t59.5 -118.5t24.5 -135q0 -59 -15 -108t-51.5 -92t-92 -70t-141.5 -38t-196 -1z" />
    <glyph glyph-name="agrave" unicode="&#xe0;" 
d="M801 1153h-254l-228 281h318zM899 1024h264v-1024h-264v121q-121 -150 -334 -150q-205 0 -351 157t-146 384t146 384t351 157q213 0 334 -150v121zM614 223q124 0 204.5 80.5t80.5 208.5t-80.5 208.5t-204.5 80.5q-123 0 -202.5 -80.5t-79.5 -208.5t79.5 -208.5
t202.5 -80.5z" />
    <glyph glyph-name="aacute" unicode="&#xe1;" 
d="M950 1434l-227 -281h-254l164 281h317zM899 1024h264v-1024h-264v121q-121 -150 -334 -150q-205 0 -351 157t-146 384t146 384t351 157q213 0 334 -150v121zM614 223q124 0 204.5 80.5t80.5 208.5t-80.5 208.5t-204.5 80.5q-123 0 -202.5 -80.5t-79.5 -208.5t79.5 -208.5
t202.5 -80.5z" />
    <glyph glyph-name="acircumflex" unicode="&#xe2;" 
d="M627 1270l-90 -133h-263l218 297h268l217 -297h-262zM899 1024h264v-1024h-264v121q-121 -150 -334 -150q-205 0 -351 157t-146 384t146 384t351 157q213 0 334 -150v121zM614 223q124 0 204.5 80.5t80.5 208.5t-80.5 208.5t-204.5 80.5q-123 0 -202.5 -80.5
t-79.5 -208.5t79.5 -208.5t202.5 -80.5z" />
    <glyph glyph-name="atilde" unicode="&#xe3;" 
d="M606 1196q-60 41 -84 33t-24 -82h-213q0 95 22 161.5t58.5 99.5t84.5 42t100.5 -6t106.5 -49q60 -41 83.5 -33t23.5 82h215q0 -94 -22 -161t-59 -100t-85.5 -42t-101 6t-105.5 49zM899 1024h264v-1024h-264v121q-121 -150 -334 -150q-205 0 -351 157t-146 384t146 384
t351 157q213 0 334 -150v121zM614 223q124 0 204.5 80.5t80.5 208.5t-80.5 208.5t-204.5 80.5q-123 0 -202.5 -80.5t-79.5 -208.5t79.5 -208.5t202.5 -80.5z" />
    <glyph glyph-name="adieresis" unicode="&#xe4;" 
d="M438 1124q-57 0 -98 40.5t-41 97.5t41 98t98 41t97 -41t40 -98t-40 -97.5t-97 -40.5zM827 1124q-57 0 -98 40.5t-41 97.5t41 98t98 41t97.5 -41t40.5 -98t-40.5 -97.5t-97.5 -40.5zM899 1024h264v-1024h-264v121q-121 -150 -334 -150q-205 0 -351 157t-146 384t146 384
t351 157q213 0 334 -150v121zM614 223q124 0 204.5 80.5t80.5 208.5t-80.5 208.5t-204.5 80.5q-123 0 -202.5 -80.5t-79.5 -208.5t79.5 -208.5t202.5 -80.5z" />
    <glyph glyph-name="aring" unicode="&#xe5;" 
d="M633 1104q-113 0 -185.5 69.5t-72.5 174.5q0 104 72.5 172.5t185.5 68.5q115 0 186.5 -68.5t71.5 -172.5q0 -106 -71.5 -175t-186.5 -69zM633 1423q-37 0 -58.5 -21t-21.5 -54q0 -35 21.5 -56.5t58.5 -21.5q40 0 61 21.5t21 56.5q0 34 -21 54.5t-61 20.5zM899 1024h264
v-1024h-264v121q-121 -150 -334 -150q-205 0 -351 157t-146 384t146 384t351 157q213 0 334 -150v121zM614 223q124 0 204.5 80.5t80.5 208.5t-80.5 208.5t-204.5 80.5q-123 0 -202.5 -80.5t-79.5 -208.5t79.5 -208.5t202.5 -80.5z" />
    <glyph glyph-name="ae" unicode="&#xe6;" horiz-adv-x="2023" 
d="M1178 403q28 -97 104.5 -144.5t181.5 -47.5q75 0 136 28t96 74l213 -123q-75 -109 -174 -164t-240 -55q-216 0 -348 158v-129h-248v121q-121 -150 -334 -150q-205 0 -351 157t-146 384t146 384t351 157q213 0 334 -150v121h248v-127q130 156 340 156q147 0 256 -73
t163 -194.5t54 -273.5q0 -51 -10 -109h-772zM1174 610h522q-22 104 -91 154.5t-161 50.5q-105 0 -175 -54t-95 -151zM614 223q124 0 204.5 80.5t80.5 208.5t-80.5 208.5t-204.5 80.5q-123 0 -202.5 -80.5t-79.5 -208.5t79.5 -208.5t202.5 -80.5z" />
    <glyph glyph-name="ccedilla" unicode="&#xe7;" horiz-adv-x="1097" 
d="M1071 238q-53 -96 -142.5 -162.5t-201.5 -91.5v-78q60 -14 101.5 -54.5t41.5 -105.5q0 -214 -450 -188v186q221 -15 221 41q0 23 -32 34.5t-97 16.5v144q-197 32 -320.5 180t-123.5 352q0 151 69.5 274.5t193.5 195t277 71.5q149 0 272 -72.5t187 -192.5l-227 -133
q-31 63 -93.5 100.5t-140.5 37.5q-119 0 -196.5 -79t-77.5 -202q0 -121 77.5 -200t196.5 -79q79 0 142 36.5t94 99.5z" />
    <glyph glyph-name="egrave" unicode="&#xe8;" horiz-adv-x="1189" 
d="M764 1161h-254l-227 281h317zM344 403q27 -97 103.5 -144.5t185.5 -47.5q74 0 134 28t95 74l213 -123q-73 -106 -186.5 -162.5t-259.5 -56.5q-126 0 -232 41.5t-178 114.5t-111.5 172t-39.5 213q0 232 151 386.5t389 154.5q148 0 267.5 -72.5t185 -196t65.5 -272.5
q0 -51 -10 -109h-772zM340 608h522q-23 104 -93.5 155.5t-160.5 51.5q-105 0 -175 -54t-93 -153z" />
    <glyph glyph-name="eacute" unicode="&#xe9;" horiz-adv-x="1189" 
d="M913 1442l-227 -281h-254l164 281h317zM344 403q27 -97 103.5 -144.5t185.5 -47.5q74 0 134 28t95 74l213 -123q-73 -106 -186.5 -162.5t-259.5 -56.5q-126 0 -232 41.5t-178 114.5t-111.5 172t-39.5 213q0 232 151 386.5t389 154.5q148 0 267.5 -72.5t185 -196
t65.5 -272.5q0 -51 -10 -109h-772zM340 608h522q-23 104 -93.5 155.5t-160.5 51.5q-105 0 -175 -54t-93 -153z" />
    <glyph glyph-name="ecircumflex" unicode="&#xea;" horiz-adv-x="1189" 
d="M590 1278l-90 -133h-262l217 297h268l217 -297h-262zM344 403q27 -97 103.5 -144.5t185.5 -47.5q74 0 134 28t95 74l213 -123q-73 -106 -186.5 -162.5t-259.5 -56.5q-126 0 -232 41.5t-178 114.5t-111.5 172t-39.5 213q0 232 151 386.5t389 154.5q148 0 267.5 -72.5
t185 -196t65.5 -272.5q0 -51 -10 -109h-772zM340 608h522q-23 104 -93.5 155.5t-160.5 51.5q-105 0 -175 -54t-93 -153z" />
    <glyph glyph-name="edieresis" unicode="&#xeb;" horiz-adv-x="1189" 
d="M401 1133q-57 0 -98 40t-41 97t41 98t98 41t97.5 -41t40.5 -98t-40.5 -97t-97.5 -40zM791 1133q-57 0 -98.5 40t-41.5 97t41.5 98t98.5 41t97 -41t40 -98t-40 -97t-97 -40zM344 403q27 -97 103.5 -144.5t185.5 -47.5q74 0 134 28t95 74l213 -123q-73 -106 -186.5 -162.5
t-259.5 -56.5q-126 0 -232 41.5t-178 114.5t-111.5 172t-39.5 213q0 232 151 386.5t389 154.5q148 0 267.5 -72.5t185 -196t65.5 -272.5q0 -51 -10 -109h-772zM340 608h522q-23 104 -93.5 155.5t-160.5 51.5q-105 0 -175 -54t-93 -153z" />
    <glyph glyph-name="igrave" unicode="&#xec;" horiz-adv-x="505" 
d="M377 1137l-88 297h-303l137 -297h254zM385 0h-264v1024h264v-1024z" />
    <glyph glyph-name="iacute" unicode="&#xed;" horiz-adv-x="505" 
d="M123 1137h254l135 297h-303zM121 0v1024h264v-1024h-264z" />
    <glyph glyph-name="icircumflex" unicode="&#xee;" horiz-adv-x="505" 
d="M254 1247l-66 -110h-262l193 297h268l191 -297h-261zM121 0v1024h264v-1024h-264z" />
    <glyph glyph-name="idieresis" unicode="&#xef;" horiz-adv-x="505" 
d="M78 1133q-57 0 -97 40t-40 97t40 98t97 41t98 -41t41 -98t-41 -97t-98 -40zM426 1133q-57 0 -97 40t-40 97t40 98t97 41t98 -41t41 -98t-41 -97t-98 -40zM121 0v1024h264v-1024h-264z" />
    <glyph glyph-name="eth" unicode="&#xf0;" horiz-adv-x="1169" 
d="M1010 758q94 -130 94 -287q0 -150 -73 -265t-189.5 -173t-255.5 -58t-255.5 58t-189.5 173t-73 265q0 133 66.5 242.5t181.5 169t249 49.5l-119 164l-260 -129v184l162 80l-147 203h305l67 -91l242 119v-184l-141 -70zM586 223q110 0 182 67t72 181q0 83 -43 143
q-76 97 -211 97q-112 0 -183 -65.5t-71 -174.5q0 -114 71.5 -181t182.5 -67z" />
    <glyph glyph-name="ntilde" unicode="&#xf1;" horiz-adv-x="1181" 
d="M584 1212q-60 41 -84.5 33t-24.5 -82h-213q0 95 22 161.5t58.5 99.5t85 42t101 -6t106.5 -49q60 -41 83 -33t23 82h215q0 -95 -22 -161.5t-59 -99.5t-85 -42t-100.5 6t-105.5 49zM690 1053q169 0 278 -113t109 -311v-629h-264v596q0 102 -55.5 156.5t-147.5 54.5
q-102 0 -163.5 -63t-61.5 -191v-553h-264v1024h264v-115q46 69 124.5 106.5t180.5 37.5z" />
    <glyph glyph-name="ograve" unicode="&#xf2;" horiz-adv-x="1216" 
d="M776 1169l-164 281h-317l227 -281h254zM608 -29q-148 0 -272 71t-196 195.5t-72 274.5t72 274.5t196 195.5t272 71q149 0 273.5 -71t197 -195.5t72.5 -274.5t-72.5 -274.5t-197 -195.5t-273.5 -71zM608 229q120 0 199.5 79.5t79.5 203.5t-79.5 203.5t-199.5 79.5
q-118 0 -197 -80t-79 -203t79 -203t197 -80z" />
    <glyph glyph-name="oacute" unicode="&#xf3;" horiz-adv-x="1216" 
d="M444 1169h254l228 281h-318zM608 -29q-148 0 -272 71t-196 195.5t-72 274.5t72 274.5t196 195.5t272 71q149 0 273.5 -71t197 -195.5t72.5 -274.5t-72.5 -274.5t-197 -195.5t-273.5 -71zM608 229q120 0 199.5 79.5t79.5 203.5t-79.5 203.5t-199.5 79.5q-118 0 -197 -80
t-79 -203t79 -203t197 -80z" />
    <glyph glyph-name="ocircumflex" unicode="&#xf4;" horiz-adv-x="1216" 
d="M602 1286l-90 -133h-262l217 297h268l217 -297h-262zM608 1053q149 0 273.5 -71t197 -195.5t72.5 -274.5t-72.5 -274.5t-197 -195.5t-273.5 -71q-148 0 -272 71t-196 195.5t-72 274.5t72 274.5t196 195.5t272 71zM608 229q120 0 199.5 79.5t79.5 203.5t-79.5 203.5
t-199.5 79.5q-118 0 -197 -80t-79 -203t79 -203t197 -80z" />
    <glyph glyph-name="otilde" unicode="&#xf5;" horiz-adv-x="1216" 
d="M260 1163q0 95 22 161.5t58.5 99.5t85 42t101 -6t106.5 -49q60 -41 83 -33t23 82h215q0 -95 -22 -161.5t-59 -99.5t-85 -42t-100.5 6t-105.5 49q-60 41 -84.5 33t-24.5 -82h-213zM608 -29q-148 0 -272 71t-196 195.5t-72 274.5t72 274.5t196 195.5t272 71
q149 0 273.5 -71t197 -195.5t72.5 -274.5t-72.5 -274.5t-197 -195.5t-273.5 -71zM608 229q120 0 199.5 79.5t79.5 203.5t-79.5 203.5t-199.5 79.5q-118 0 -197 -80t-79 -203t79 -203t197 -80z" />
    <glyph glyph-name="odieresis" unicode="&#xf6;" horiz-adv-x="1216" 
d="M414 1141q-57 0 -98.5 40t-41.5 97t41.5 98t98.5 41t97 -41t40 -98t-40 -97t-97 -40zM803 1141q-57 0 -98 40t-41 97t41 98t98 41t97 -41t40 -98t-40 -97t-97 -40zM608 -29q-148 0 -272 71t-196 195.5t-72 274.5t72 274.5t196 195.5t272 71q149 0 273.5 -71t197 -195.5
t72.5 -274.5t-72.5 -274.5t-197 -195.5t-273.5 -71zM608 229q120 0 199.5 79.5t79.5 203.5t-79.5 203.5t-199.5 79.5q-118 0 -197 -80t-79 -203t79 -203t197 -80z" />
    <glyph glyph-name="divide" unicode="&#xf7;" horiz-adv-x="1157" 
d="M580 948q-70 0 -119 49t-49 119t48.5 118t119.5 48q70 0 117.5 -47.5t47.5 -118.5t-47.5 -119.5t-117.5 -48.5zM92 594v248h973v-248h-973zM580 152q-71 0 -119.5 48.5t-48.5 118.5t48.5 118t119.5 48q70 0 117.5 -47.5t47.5 -118.5t-47.5 -119t-117.5 -48z" />
    <glyph glyph-name="oslash" unicode="&#xf8;" horiz-adv-x="1216" 
d="M1006 883q145 -155 145 -371q0 -150 -72.5 -274.5t-197 -195.5t-273.5 -71q-166 0 -297 86l-65 -75l-113 65l80 94q-69 72 -107 168t-38 203q0 150 72 274.5t196 195.5t272 71q161 0 299 -88l66 77l112 -65zM332 512q0 -97 51 -170l356 422q-60 31 -131 31
q-118 0 -197 -80t-79 -203zM608 229q120 0 199.5 79.5t79.5 203.5q0 98 -51 168l-357 -420q60 -31 129 -31z" />
    <glyph glyph-name="ugrave" unicode="&#xf9;" horiz-adv-x="1181" 
d="M750 1153h-254l-228 281h318zM797 1024h264v-1024h-264v115q-46 -69 -124.5 -106.5t-180.5 -37.5q-169 0 -278.5 113t-109.5 311v629h265v-596q0 -102 55 -156.5t147 -54.5q102 0 164 63t62 191v553z" />
    <glyph glyph-name="uacute" unicode="&#xfa;" horiz-adv-x="1181" 
d="M899 1434l-227 -281h-254l164 281h317zM797 1024h264v-1024h-264v115q-46 -69 -124.5 -106.5t-180.5 -37.5q-169 0 -278.5 113t-109.5 311v629h265v-596q0 -102 55 -156.5t147 -54.5q102 0 164 63t62 191v553z" />
    <glyph glyph-name="ucircumflex" unicode="&#xfb;" horiz-adv-x="1181" 
d="M575 1270l-90 -133h-262l217 297h269l217 -297h-262zM797 1024h264v-1024h-264v115q-46 -69 -124.5 -106.5t-180.5 -37.5q-169 0 -278.5 113t-109.5 311v629h265v-596q0 -102 55 -156.5t147 -54.5q102 0 164 63t62 191v553z" />
    <glyph glyph-name="udieresis" unicode="&#xfc;" horiz-adv-x="1181" 
d="M387 1124q-57 0 -98 40.5t-41 97.5t41 98t98 41t97 -41t40 -98t-40 -97.5t-97 -40.5zM776 1124q-57 0 -98 40.5t-41 97.5t41 98t98 41t97 -41t40 -98t-40 -97.5t-97 -40.5zM797 1024h264v-1024h-264v115q-46 -69 -124.5 -106.5t-180.5 -37.5q-169 0 -278.5 113
t-109.5 311v629h265v-596q0 -102 55 -156.5t147 -54.5q102 0 164 63t62 191v553z" />
    <glyph glyph-name="yacute" unicode="&#xfd;" horiz-adv-x="1075" 
d="M856 1434l-227 -281h-254l164 281h317zM788 1024h283l-373 -1024q-79 -220 -211.5 -320.5t-328.5 -89.5v246q107 -1 169 45.5t99 151.5l-420 991h289l266 -688z" />
    <glyph glyph-name="thorn" unicode="&#xfe;" 
d="M717 1053q135 0 250 -71t182.5 -195.5t67.5 -274.5t-67.5 -274.5t-182.5 -195.5t-250 -71q-214 0 -332 150v-531h-264v1844h264v-531q118 150 332 150zM668 223q124 0 204 80.5t80 208.5t-80 208.5t-204 80.5q-123 0 -203 -80.5t-80 -208.5t80 -208.5t203 -80.5z" />
    <glyph glyph-name="ydieresis" unicode="&#xff;" horiz-adv-x="1075" 
d="M344 1124q-57 0 -98 40.5t-41 97.5t41 98t98 41t97 -41t40 -98t-40 -97.5t-97 -40.5zM733 1124q-57 0 -98 40.5t-41 97.5t41 98t98 41t97 -41t40 -98t-40 -97.5t-97 -40.5zM788 1024h283l-373 -1024q-79 -220 -211.5 -320.5t-328.5 -89.5v246q107 -1 169 45.5t99 151.5
l-420 991h289l266 -688z" />
    <glyph glyph-name="Amacron" unicode="&#x100;" horiz-adv-x="1368" 
d="M981 1780v-215h-594v215h594zM1055 0l-86 258h-572l-86 -258h-305l502 1434h350l504 -1434h-307zM487 522h394l-197 586z" />
    <glyph glyph-name="amacron" unicode="&#x101;" 
d="M930 1370v-215h-594v215h594zM899 1024h264v-1024h-264v121q-121 -150 -334 -150q-205 0 -351 157t-146 384t146 384t351 157q213 0 334 -150v121zM614 223q124 0 204.5 80.5t80.5 208.5t-80.5 208.5t-204.5 80.5q-123 0 -202.5 -80.5t-79.5 -208.5t79.5 -208.5
t202.5 -80.5z" />
    <glyph glyph-name="Abreve" unicode="&#x102;" horiz-adv-x="1368" 
d="M684 1530q-161 0 -250.5 78t-89.5 219h236q0 -107 104 -107q107 0 107 107h235q0 -141 -89 -219t-253 -78zM1055 0l-86 258h-572l-86 -258h-305l502 1434h350l504 -1434h-307zM487 522h394l-197 586z" />
    <glyph glyph-name="abreve" unicode="&#x103;" 
d="M633 1120q-161 0 -250.5 78t-89.5 219h235q0 -106 105 -106q106 0 106 106h236q0 -141 -89 -219t-253 -78zM899 1024h264v-1024h-264v121q-121 -150 -334 -150q-205 0 -351 157t-146 384t146 384t351 157q213 0 334 -150v121zM614 223q124 0 204.5 80.5t80.5 208.5
t-80.5 208.5t-204.5 80.5q-123 0 -202.5 -80.5t-79.5 -208.5t79.5 -208.5t202.5 -80.5z" />
    <glyph glyph-name="Aogonek" unicode="&#x104;" horiz-adv-x="1368" 
d="M1305 -250q25 -3 57 10v-166q-78 -32 -166 -32q-87 0 -141 46t-54 134q0 115 136 258h-82l-86 258h-572l-86 -258h-305l502 1434h350l504 -1434q-51 -54 -80 -106t-29 -89q0 -55 52 -55zM487 522h394l-197 586z" />
    <glyph glyph-name="aogonek" unicode="&#x105;" 
d="M1163 0q-51 -53 -79.5 -105t-28.5 -90q-3 -55 51 -55q21 -3 57 10v-166q-82 -32 -166 -32q-88 0 -142 46t-54 134q0 114 131 258h-33v121q-121 -150 -334 -150q-205 0 -351 157t-146 384t146 384t351 157q213 0 334 -150v121h264v-1024zM614 223q124 0 204.5 80.5
t80.5 208.5t-80.5 208.5t-204.5 80.5q-123 0 -202.5 -80.5t-79.5 -208.5t79.5 -208.5t202.5 -80.5z" />
    <glyph glyph-name="Cacute" unicode="&#x106;" horiz-adv-x="1486" 
d="M649 1579h254l227 281h-317zM813 -29q-213 0 -384 99t-266 269.5t-95 377.5q0 208 95 378t266 268.5t384 98.5q195 0 359.5 -91.5t257.5 -246.5l-244 -141q-53 96 -152 150.5t-221 54.5q-209 0 -337 -131t-128 -340q0 -207 128 -338t337 -131q123 0 222.5 54.5
t150.5 148.5l244 -142q-92 -155 -256.5 -246.5t-360.5 -91.5z" />
    <glyph glyph-name="cacute" unicode="&#x107;" horiz-adv-x="1097" 
d="M442 1153h254l228 281h-318zM608 -29q-153 0 -277 71.5t-193.5 195t-69.5 274.5t69.5 274.5t193.5 195t277 71.5q149 0 272 -72.5t187 -192.5l-227 -133q-31 63 -93.5 100.5t-140.5 37.5q-119 0 -196.5 -79t-77.5 -202q0 -121 77.5 -200t196.5 -79q79 0 142 36.5t94 99.5
l229 -131q-67 -122 -190.5 -194.5t-272.5 -72.5z" />
    <glyph glyph-name="Cdotaccent" unicode="&#x10a;" horiz-adv-x="1486" 
d="M813 1554q-66 0 -113 47.5t-47 112.5t47 111.5t113 46.5q65 0 111.5 -47t46.5 -111q0 -65 -47 -112.5t-111 -47.5zM813 -29q-213 0 -384 99t-266 269.5t-95 377.5q0 208 95 378t266 268.5t384 98.5q195 0 359.5 -91.5t257.5 -246.5l-244 -141q-53 96 -152 150.5
t-221 54.5q-209 0 -337 -131t-128 -340q0 -207 128 -338t337 -131q123 0 222.5 54.5t150.5 148.5l244 -142q-92 -155 -256.5 -246.5t-360.5 -91.5z" />
    <glyph glyph-name="cdotaccent" unicode="&#x10b;" horiz-adv-x="1097" 
d="M606 1128q-66 0 -113 47.5t-47 112.5t47 111.5t113 46.5q64 0 111 -47t47 -111q0 -65 -47 -112.5t-111 -47.5zM608 -29q-153 0 -277 71.5t-193.5 195t-69.5 274.5t69.5 274.5t193.5 195t277 71.5q149 0 272 -72.5t187 -192.5l-227 -133q-31 63 -93.5 100.5t-140.5 37.5
q-119 0 -196.5 -79t-77.5 -202q0 -121 77.5 -200t196.5 -79q79 0 142 36.5t94 99.5l229 -131q-67 -122 -190.5 -194.5t-272.5 -72.5z" />
    <glyph glyph-name="Ccaron" unicode="&#x10c;" horiz-adv-x="1486" 
d="M672 1563l-217 297h262l90 -134l88 134h262l-217 -297h-268zM813 248q123 0 222.5 54.5t150.5 148.5l244 -142q-92 -155 -256.5 -246.5t-360.5 -91.5q-213 0 -384 99t-266 269.5t-95 377.5q0 208 95 378t266 268.5t384 98.5q195 0 359.5 -91.5t257.5 -246.5l-244 -141
q-53 96 -152 150.5t-221 54.5q-209 0 -337 -131t-128 -340q0 -207 128 -338t337 -131z" />
    <glyph glyph-name="ccaron" unicode="&#x10d;" horiz-adv-x="1097" 
d="M465 1137l-217 297h262l90 -134l88 134h262l-217 -297h-268zM842 369l229 -131q-67 -122 -190.5 -194.5t-272.5 -72.5q-153 0 -277 71.5t-193.5 195t-69.5 274.5t69.5 274.5t193.5 195t277 71.5q149 0 272 -72.5t187 -192.5l-227 -133q-31 63 -93.5 100.5t-140.5 37.5
q-119 0 -196.5 -79t-77.5 -202q0 -121 77.5 -200t196.5 -79q79 0 142 36.5t94 99.5z" />
    <glyph glyph-name="Dcaron" unicode="&#x10e;" horiz-adv-x="1460" 
d="M545 1546l-217 297h262l90 -133l88 133h262l-217 -297h-268zM702 1434q146 0 274.5 -55.5t219.5 -151.5t144 -228.5t53 -281.5t-53 -281.5t-144 -228.5t-219.5 -151.5t-274.5 -55.5h-569v1434h569zM702 270q186 0 303 124.5t117 322.5t-117 322t-303 124h-286v-893h286z
" />
    <glyph glyph-name="dcaron" unicode="&#x10f;" horiz-adv-x="1505" 
d="M897 903v531h264v-1434h-264v121q-118 -150 -332 -150q-101 0 -193 42t-159.5 113.5t-107 172.5t-39.5 213t39.5 213t107 172.5t159.5 113.5t193 42q214 0 332 -150zM1278 1434h248l-62 -410h-207zM614 223q123 0 203 80.5t80 208.5t-80 208.5t-203 80.5
q-124 0 -204 -80.5t-80 -208.5t80 -208.5t204 -80.5z" />
    <glyph glyph-name="Dcroat" unicode="&#x110;" horiz-adv-x="1531" 
d="M774 1434q194 0 352.5 -94.5t248 -259t89.5 -363.5t-89.5 -363.5t-248 -259t-352.5 -94.5h-569v575h-160v254h160v605h569zM774 270q186 0 303 124.5t117 322.5t-117 322t-303 124h-287v-334h326v-254h-326v-305h287z" />
    <glyph glyph-name="dcroat" unicode="&#x111;" horiz-adv-x="1296" 
d="M1290 1307v-172h-127v-1135h-264v121q-121 -150 -334 -150q-205 0 -351 157t-146 384t146 384t351 157q213 0 334 -150v232h-309v172h309v127h264v-127h127zM614 223q124 0 204.5 80.5t80.5 208.5t-80.5 208.5t-204.5 80.5q-123 0 -202.5 -80.5t-79.5 -208.5t79.5 -208.5
t202.5 -80.5z" />
    <glyph glyph-name="Emacron" unicode="&#x112;" horiz-adv-x="1085" 
d="M868 1780v-215h-594v215h594zM416 270h604v-270h-887v1434h877v-271h-594v-305h542v-266h-542v-322z" />
    <glyph glyph-name="emacron" unicode="&#x113;" horiz-adv-x="1189" 
d="M893 1378v-215h-594v215h594zM344 403q27 -97 103.5 -144.5t185.5 -47.5q74 0 134 28t95 74l213 -123q-73 -106 -186.5 -162.5t-259.5 -56.5q-126 0 -232 41.5t-178 114.5t-111.5 172t-39.5 213q0 232 151 386.5t389 154.5q148 0 267.5 -72.5t185 -196t65.5 -272.5
q0 -51 -10 -109h-772zM340 608h522q-23 104 -93.5 155.5t-160.5 51.5q-105 0 -175 -54t-93 -153z" />
    <glyph glyph-name="Edotaccent" unicode="&#x116;" horiz-adv-x="1085" 
d="M571 1538q-66 0 -112.5 47.5t-46.5 112.5t46.5 111t112.5 46q65 0 111.5 -46.5t46.5 -110.5q0 -65 -47 -112.5t-111 -47.5zM416 270h604v-270h-887v1434h877v-271h-594v-305h542v-266h-542v-322z" />
    <glyph glyph-name="edotaccent" unicode="&#x117;" horiz-adv-x="1189" 
d="M596 1137q-66 0 -113 47t-47 112t47 111.5t113 46.5q64 0 111 -47t47 -111q0 -65 -47 -112t-111 -47zM344 403q27 -97 103.5 -144.5t185.5 -47.5q74 0 134 28t95 74l213 -123q-73 -106 -186.5 -162.5t-259.5 -56.5q-126 0 -232 41.5t-178 114.5t-111.5 172t-39.5 213
q0 232 151 386.5t389 154.5q148 0 267.5 -72.5t185 -196t65.5 -272.5q0 -51 -10 -109h-772zM340 608h522q-23 104 -93.5 155.5t-160.5 51.5q-105 0 -175 -54t-93 -153z" />
    <glyph glyph-name="Eogonek" unicode="&#x118;" horiz-adv-x="1085" 
d="M416 270h604v-270h-2q-50 -53 -78.5 -105.5t-28.5 -89.5q-3 -55 52 -55q23 -3 55 10v-166q-78 -32 -164 -32q-88 0 -142.5 46t-54.5 134q0 115 136 258h-660v1434h877v-271h-594v-305h542v-266h-542v-322z" />
    <glyph glyph-name="eogonek" unicode="&#x119;" horiz-adv-x="1189" 
d="M344 403q27 -97 103.5 -144.5t185.5 -47.5q74 0 134 28t95 74l213 -123q-28 -40 -76 -88q-97 -104 -134.5 -179t-37.5 -118q0 -55 52 -55q24 -3 57 10v-166q-82 -32 -166 -32q-88 0 -141.5 46t-53.5 134q0 119 134 233q-54 -4 -80 -4q-126 0 -232 41.5t-178 114.5
t-111.5 172t-39.5 213q0 232 151 386.5t389 154.5q148 0 267.5 -72.5t185 -196t65.5 -272.5q0 -51 -10 -109h-772zM340 608h522q-23 104 -93.5 155.5t-160.5 51.5q-105 0 -175 -54t-93 -153z" />
    <glyph glyph-name="Ecaron" unicode="&#x11a;" horiz-adv-x="1085" 
d="M430 1546l-217 297h262l90 -133l88 133h262l-217 -297h-268zM416 270h604v-270h-887v1434h877v-271h-594v-305h542v-266h-542v-322z" />
    <glyph glyph-name="ecaron" unicode="&#x11b;" horiz-adv-x="1189" 
d="M455 1145l-217 297h262l90 -133l88 133h262l-217 -297h-268zM344 403q27 -97 103.5 -144.5t185.5 -47.5q74 0 134 28t95 74l213 -123q-73 -106 -186.5 -162.5t-259.5 -56.5q-126 0 -232 41.5t-178 114.5t-111.5 172t-39.5 213q0 232 151 386.5t389 154.5
q148 0 267.5 -72.5t185 -196t65.5 -272.5q0 -51 -10 -109h-772zM340 608h522q-23 104 -93.5 155.5t-160.5 51.5q-105 0 -175 -54t-93 -153z" />
    <glyph glyph-name="Gbreve" unicode="&#x11e;" horiz-adv-x="1607" 
d="M813 1546q-161 0 -250.5 78t-89.5 219h236q0 -106 104 -106q107 0 107 106h235q0 -141 -89 -219t-253 -78zM1540 770v-111q0 -308 -196.5 -498t-507.5 -190q-165 0 -309 59t-244 159t-157.5 237t-57.5 289q0 154 57.5 292t157 238t239 158.5t297.5 58.5q200 0 366 -91.5
t259 -242.5l-242 -139q-51 89 -154.5 144t-230.5 55q-204 0 -336.5 -134.5t-132.5 -338.5q0 -203 134.5 -335t355.5 -132q165 0 272 73t145 199h-434v250h719z" />
    <glyph glyph-name="gbreve" unicode="&#x11f;" 
d="M608 1137q-161 0 -250.5 78t-89.5 219h236q0 -107 104 -107q107 0 107 107h235q0 -141 -89 -219t-253 -78zM905 1024h258v-975q0 -98 -29.5 -179.5t-80.5 -137.5t-119.5 -95t-145 -57t-159.5 -18q-167 0 -293 63.5t-193 186.5l226 129q24 -44 53.5 -73.5t84.5 -50
t130 -20.5q126 0 197 66t71 186v111q-117 -156 -327 -156q-143 0 -260.5 70.5t-183.5 190.5t-66 263q0 142 66 262.5t184 191.5t260 71q210 0 327 -156v127zM618 248q125 0 206 78.5t81 201.5q0 121 -81 200t-206 79t-205.5 -79t-80.5 -200q0 -123 80.5 -201.5t205.5 -78.5z
" />
    <glyph glyph-name="Gdotaccent" unicode="&#x120;" horiz-adv-x="1607" 
d="M813 1554q-66 0 -113 47.5t-47 112.5t47 111.5t113 46.5q65 0 111.5 -47t46.5 -111q0 -65 -47 -112.5t-111 -47.5zM1540 770v-111q0 -308 -196.5 -498t-507.5 -190q-165 0 -309 59t-244 159t-157.5 237t-57.5 289q0 154 57.5 292t157 238t239 158.5t297.5 58.5
q200 0 366 -91.5t259 -242.5l-242 -139q-51 89 -154.5 144t-230.5 55q-204 0 -336.5 -134.5t-132.5 -338.5q0 -203 134.5 -335t355.5 -132q165 0 272 73t145 199h-434v250h719z" />
    <glyph glyph-name="gdotaccent" unicode="&#x121;" 
d="M608 1145q-66 0 -112.5 47.5t-46.5 112.5t46.5 111t112.5 46q65 0 111.5 -46.5t46.5 -110.5q0 -65 -47 -112.5t-111 -47.5zM905 1024h258v-975q0 -98 -29.5 -179.5t-80.5 -137.5t-119.5 -95t-145 -57t-159.5 -18q-167 0 -293 63.5t-193 186.5l226 129q24 -44 53.5 -73.5
t84.5 -50t130 -20.5q126 0 197 66t71 186v111q-117 -156 -327 -156q-143 0 -260.5 70.5t-183.5 190.5t-66 263q0 142 66 262.5t184 191.5t260 71q210 0 327 -156v127zM618 248q125 0 206 78.5t81 201.5q0 121 -81 200t-206 79t-205.5 -79t-80.5 -200q0 -123 80.5 -201.5
t205.5 -78.5z" />
    <glyph glyph-name="Gcommaaccent" unicode="&#x122;" horiz-adv-x="1607" 
d="M1540 770v-111q0 -308 -196.5 -498t-507.5 -190q-165 0 -309 59t-244 159t-157.5 237t-57.5 289q0 154 57.5 292t157 238t239 158.5t297.5 58.5q200 0 366 -91.5t259 -242.5l-242 -139q-51 89 -154.5 144t-230.5 55q-204 0 -336.5 -134.5t-132.5 -338.5
q0 -203 134.5 -335t355.5 -132q165 0 272 73t145 199h-434v250h719zM698 -539l21 410h250l-62 -410h-209z" />
    <glyph glyph-name="gcommaaccent" unicode="&#x123;" 
d="M739 1604l-20 -410h-250l61 410h209zM905 1024h258v-975q0 -98 -29.5 -179.5t-80.5 -137.5t-119.5 -95t-145 -57t-159.5 -18q-167 0 -293 63.5t-193 186.5l226 129q24 -44 53.5 -73.5t84.5 -50t130 -20.5q126 0 197 66t71 186v111q-117 -156 -327 -156
q-143 0 -260.5 70.5t-183.5 190.5t-66 263q0 142 66 262.5t184 191.5t260 71q210 0 327 -156v127zM618 248q125 0 206 78.5t81 201.5q0 121 -81 200t-206 79t-205.5 -79t-80.5 -200q0 -123 80.5 -201.5t205.5 -78.5z" />
    <glyph glyph-name="Hbar" unicode="&#x126;" horiz-adv-x="1449" 
d="M1399 1233v-207h-127v-1026h-281v557h-532v-557h-283v1026h-125v207h125v201h283v-201h532v201h281v-201h127zM991 827v199h-532v-199h532z" />
    <glyph glyph-name="hbar" unicode="&#x127;" horiz-adv-x="1193" 
d="M702 1053q170 0 280 -113t110 -311v-629h-265v596q0 101 -56 156t-148 55q-102 0 -164 -63t-62 -191v-553h-264v1135h-127v172h127v127h264v-127h289v-172h-289v-228q95 146 305 146z" />
    <glyph glyph-name="Imacron" unicode="&#x12a;" horiz-adv-x="548" 
d="M-23 1565v215h594v-215h-594zM133 1434h283v-1434h-283v1434z" />
    <glyph glyph-name="imacron" unicode="&#x12b;" horiz-adv-x="505" 
d="M16 1155v229h471v-229h-471zM121 0v1024h264v-1024h-264z" />
    <glyph glyph-name="Iogonek" unicode="&#x12e;" horiz-adv-x="548" 
d="M397 -250q22 -3 58 10v-166q-82 -32 -166 -32q-88 0 -142.5 46t-54.5 134q0 114 94 258h-53v1434h283v-1434q-70 -115 -70 -195q-3 -55 51 -55z" />
    <glyph glyph-name="iogonek" unicode="&#x12f;" horiz-adv-x="505" 
d="M252 1147q-66 0 -114 48t-48 114t48 115t114 49q67 0 115.5 -49t48.5 -115t-48.5 -114t-115.5 -48zM367 -250q23 -3 55 10v-166q-78 -32 -164 -32q-87 0 -142 48.5t-55 135.5q0 106 89 254h-29v1024h264v-1024q-70 -114 -70 -188q-2 -28 12 -45t40 -17z" />
    <glyph glyph-name="Idotaccent" unicode="&#x130;" horiz-adv-x="548" 
d="M274 1538q-66 0 -112.5 47.5t-46.5 112.5t46.5 111t112.5 46q65 0 111.5 -46.5t46.5 -110.5q0 -65 -47 -112.5t-111 -47.5zM133 1434h283v-1434h-283v1434z" />
    <glyph glyph-name="dotlessi" unicode="&#x131;" horiz-adv-x="505" 
d="M121 0v1024h264v-1024h-264z" />
    <glyph glyph-name="Kcommaaccent" unicode="&#x136;" horiz-adv-x="1259" 
d="M702 737l551 -737h-325l-512 672v-672h-283v1434h283v-633l491 633h326zM496 -539l20 410h250l-61 -410h-209z" />
    <glyph glyph-name="kcommaaccent" unicode="&#x137;" horiz-adv-x="1075" 
d="M641 518l424 -518h-307l-373 465v-465h-264v1434h264v-861l352 451h316zM440 -539l21 410h250l-62 -410h-209z" />
    <glyph glyph-name="Lacute" unicode="&#x139;" horiz-adv-x="989" 
d="M618 1843l-227 -280h-254l164 280h317zM416 270h547v-270h-830v1434h283v-1164z" />
    <glyph glyph-name="lacute" unicode="&#x13a;" horiz-adv-x="505" 
d="M117 1563h254l227 280h-317zM121 0v1495h264v-1495h-264z" />
    <glyph glyph-name="Lcommaaccent" unicode="&#x13b;" horiz-adv-x="989" 
d="M416 270h547v-270h-830v1434h283v-1164zM428 -539l21 410h249l-61 -410h-209z" />
    <glyph glyph-name="lcommaaccent" unicode="&#x13c;" horiz-adv-x="505" 
d="M121 0v1495h264v-1495h-264zM322 -539l61 410h-250l-20 -410h209z" />
    <glyph glyph-name="Lcaron" unicode="&#x13d;" horiz-adv-x="989" 
d="M416 270h547v-270h-830v1434h283v-1164zM831 1434l-61 -379h-223l20 379h264z" />
    <glyph glyph-name="lcaron" unicode="&#x13e;" horiz-adv-x="724" 
d="M121 0v1495h264v-1495h-264zM684 1085l61 410h-249l-21 -410h209z" />
    <glyph glyph-name="Lslash" unicode="&#x141;" horiz-adv-x="1030" 
d="M457 270h547v-270h-830v432l-123 -74v283l123 74v719h283v-551l270 159v-282l-270 -160v-330z" />
    <glyph glyph-name="lslash" unicode="&#x142;" horiz-adv-x="538" 
d="M512 1004v-252l-111 -76v-676h-264v496l-110 -76v252l110 76v747h264v-567z" />
    <glyph glyph-name="Nacute" unicode="&#x143;" horiz-adv-x="1378" 
d="M510 1563h254l227 280h-317zM963 1434h282v-1434h-215l-614 877v-877h-283v1434h215l615 -875v875z" />
    <glyph glyph-name="nacute" unicode="&#x144;" horiz-adv-x="1181" 
d="M928 1450l-228 -281h-254l164 281h318zM690 1053q169 0 278 -113t109 -311v-629h-264v596q0 102 -55.5 156.5t-147.5 54.5q-102 0 -163.5 -63t-61.5 -191v-553h-264v1024h264v-115q46 69 124.5 106.5t180.5 37.5z" />
    <glyph glyph-name="Ncommaaccent" unicode="&#x145;" horiz-adv-x="1378" 
d="M963 1434h282v-1434h-215l-614 877v-877h-283v1434h215l615 -875v875zM764 -539l61 410h-250l-20 -410h209z" />
    <glyph glyph-name="ncommaaccent" unicode="&#x146;" horiz-adv-x="1181" 
d="M690 1053q169 0 278 -113t109 -311v-629h-264v596q0 102 -55.5 156.5t-147.5 54.5q-102 0 -163.5 -63t-61.5 -191v-553h-264v1024h264v-115q46 69 124.5 106.5t180.5 37.5zM467 -539l20 410h250l-61 -410h-209z" />
    <glyph glyph-name="Ncaron" unicode="&#x147;" horiz-adv-x="1378" 
d="M532 1546l-217 297h263l90 -133l88 133h262l-217 -297h-269zM963 1434h282v-1434h-215l-614 877v-877h-283v1434h215l615 -875v875z" />
    <glyph glyph-name="ncaron" unicode="&#x148;" horiz-adv-x="1181" 
d="M469 1153l-217 297h262l90 -133l88 133h262l-217 -297h-268zM690 1053q169 0 278 -113t109 -311v-629h-264v596q0 102 -55.5 156.5t-147.5 54.5q-102 0 -163.5 -63t-61.5 -191v-553h-264v1024h264v-115q46 69 124.5 106.5t180.5 37.5z" />
    <glyph glyph-name="Eng" unicode="&#x14a;" horiz-adv-x="1378" 
d="M963 1434h282v-1434q0 -210 -125 -316t-352 -94v258q99 0 147 36t48 132v80l-547 781v-877h-283v1434h215l615 -875v875z" />
    <glyph glyph-name="eng" unicode="&#x14b;" horiz-adv-x="1181" 
d="M690 1053q169 0 278 -113t109 -311v-649q0 -213 -107 -323t-323 -95v254q83 -8 124.5 30t41.5 134v616q0 102 -55.5 156.5t-147.5 54.5q-102 0 -163.5 -63t-61.5 -191v-553h-264v1024h264v-115q46 69 124.5 106.5t180.5 37.5z" />
    <glyph glyph-name="Omacron" unicode="&#x14c;" horiz-adv-x="1622" 
d="M514 1581v215h594v-215h-594zM811 -29q-153 0 -290.5 58t-236.5 157.5t-157.5 238t-58.5 292.5q0 206 99 377.5t269.5 269.5t374.5 98t375 -98t270.5 -269.5t99.5 -377.5t-99.5 -377.5t-270.5 -270t-375 -98.5zM811 248q197 0 330 132.5t133 336.5q0 205 -133 338
t-330 133t-330 -133t-133 -338q0 -204 133 -336.5t330 -132.5z" />
    <glyph glyph-name="omacron" unicode="&#x14d;" horiz-adv-x="1216" 
d="M311 1171v215h594v-215h-594zM608 -29q-148 0 -272 71t-196 195.5t-72 274.5t72 274.5t196 195.5t272 71q149 0 273.5 -71t197 -195.5t72.5 -274.5t-72.5 -274.5t-197 -195.5t-273.5 -71zM608 229q120 0 199.5 79.5t79.5 203.5t-79.5 203.5t-199.5 79.5q-118 0 -197 -80
t-79 -203t79 -203t197 -80z" />
    <glyph glyph-name="Ohungarumlaut" unicode="&#x150;" horiz-adv-x="1622" 
d="M453 1563h262l172 282h-275zM807 1563h262l193 282h-275zM811 -29q-153 0 -290.5 58t-236.5 157.5t-157.5 238t-58.5 292.5q0 206 99 377.5t269.5 269.5t374.5 98t375 -98t270.5 -269.5t99.5 -377.5t-99.5 -377.5t-270.5 -270t-375 -98.5zM811 248q197 0 330 132.5
t133 336.5q0 205 -133 338t-330 133t-330 -133t-133 -338q0 -204 133 -336.5t330 -132.5z" />
    <glyph glyph-name="ohungarumlaut" unicode="&#x151;" horiz-adv-x="1216" 
d="M250 1153h262l172 283h-274zM604 1153h262l193 283h-275zM608 -29q-148 0 -272 71t-196 195.5t-72 274.5t72 274.5t196 195.5t272 71q149 0 273.5 -71t197 -195.5t72.5 -274.5t-72.5 -274.5t-197 -195.5t-273.5 -71zM608 229q120 0 199.5 79.5t79.5 203.5t-79.5 203.5
t-199.5 79.5q-118 0 -197 -80t-79 -203t79 -203t197 -80z" />
    <glyph glyph-name="OE" unicode="&#x152;" horiz-adv-x="1875" 
d="M1276 270h532v-270h-813q-101 -29 -204 -29q-203 0 -369.5 99t-260 269.5t-93.5 377.5q0 155 55 293t150.5 237.5t230 157t287.5 57.5q106 0 204 -28h803v-271h-522v-305h477v-266h-477v-322zM995 279v878q-95 31 -204 31q-195 0 -319 -132t-124 -339q0 -206 124 -337.5
t319 -131.5q122 0 204 31z" />
    <glyph glyph-name="oe" unicode="&#x153;" horiz-adv-x="2009" 
d="M1163 403q29 -98 105.5 -145t175.5 -47q159 0 237 102l213 -123q-73 -106 -186.5 -162.5t-259.5 -56.5q-147 0 -256.5 61t-173.5 169q-66 -107 -174 -168.5t-244 -61.5q-149 0 -271 71t-191.5 195.5t-69.5 274.5t69.5 274.5t191.5 195.5t271 71q135 0 243.5 -61
t172.5 -167q63 107 171.5 167.5t252.5 60.5q222 0 364 -156t142 -385q0 -45 -11 -109h-772zM1159 610h522q-22 104 -91 154.5t-160 50.5q-104 0 -175 -54t-96 -151zM608 229q120 0 199.5 79.5t79.5 203.5t-79.5 203.5t-199.5 79.5t-198 -79.5t-78 -203.5t78 -203.5
t198 -79.5z" />
    <glyph glyph-name="Racute" unicode="&#x154;" horiz-adv-x="1257" 
d="M922 1843l-228 -280h-254l164 280h318zM920 0l-289 498h-215v-498h-283v1434h574q130 0 240 -64t173.5 -173.5t63.5 -238.5q0 -133 -76 -246t-201 -171l318 -541h-305zM416 1169v-424h291q80 0 137 62t57 151t-57 150t-137 61h-291z" />
    <glyph glyph-name="racute" unicode="&#x155;" horiz-adv-x="729" 
d="M713 1434l-228 -281h-254l164 281h318zM385 848q38 99 122.5 147.5t188.5 48.5v-294q-54 6 -106.5 -4.5t-99.5 -39t-76 -84.5t-29 -133v-489h-264v1024h264v-176z" />
    <glyph glyph-name="Rcommaaccent" unicode="&#x156;" horiz-adv-x="1257" 
d="M907 541l318 -541h-305l-289 498h-215v-498h-283v1434h574q130 0 240 -64t173.5 -173.5t63.5 -238.5q0 -133 -76 -246t-201 -171zM416 1169v-424h291q80 0 137 62t57 151t-57 150t-137 61h-291zM528 -539l21 410h250l-62 -410h-209z" />
    <glyph glyph-name="rcommaaccent" unicode="&#x157;" horiz-adv-x="729" 
d="M385 848q38 99 122.5 147.5t188.5 48.5v-294q-54 6 -106.5 -4.5t-99.5 -39t-76 -84.5t-29 -133v-489h-264v1024h264v-176zM113 -539l20 410h250l-61 -410h-209z" />
    <glyph glyph-name="Rcaron" unicode="&#x158;" horiz-adv-x="1257" 
d="M463 1546l-217 297h262l90 -133l88 133h262l-217 -297h-268zM920 0l-289 498h-215v-498h-283v1434h574q130 0 240 -64t173.5 -173.5t63.5 -238.5q0 -133 -76 -246t-201 -171l318 -541h-305zM416 1169v-424h291q80 0 137 62t57 151t-57 150t-137 61h-291z" />
    <glyph glyph-name="rcaron" unicode="&#x159;" horiz-adv-x="729" 
d="M254 1137l-217 297h262l90 -134l88 134h262l-217 -297h-268zM385 848q38 99 122.5 147.5t188.5 48.5v-294q-54 6 -106.5 -4.5t-99.5 -39t-76 -84.5t-29 -133v-489h-264v1024h264v-176z" />
    <glyph glyph-name="Sacute" unicode="&#x15a;" horiz-adv-x="1193" 
d="M436 1579h254l228 281h-318zM623 -29q-214 0 -359 95t-205 260l242 141q84 -219 330 -219q119 0 174 42.5t55 108.5q0 75 -68 117t-241 92q-75 22 -130 43t-115.5 56.5t-98.5 78.5t-63 107t-25 143q0 130 67 229t173 148t231 49q175 0 307 -84t205 -237l-238 -137
q-41 88 -106 136t-168 48q-87 0 -138 -40.5t-51 -103.5q0 -67 56.5 -109t216.5 -91q184 -58 262 -102q172 -94 201 -262q6 -37 6 -77q0 -198 -144 -315t-376 -117z" />
    <glyph glyph-name="sacute" unicode="&#x15b;" horiz-adv-x="952" 
d="M791 1450l-228 -281h-254l164 281h318zM365 733q0 -27 22.5 -47t60 -32t85 -26t96.5 -27.5t96.5 -38.5t85 -57t60 -85t22.5 -121q0 -106 -58 -182t-149.5 -111t-204.5 -35q-154 0 -264 62.5t-166 181.5l230 129q22 -64 73 -98.5t127 -34.5q65 0 103.5 22.5t38.5 65.5
q0 30 -29 51.5t-76 36.5t-103.5 30t-112.5 38t-103 55.5t-76 88t-29 128.5q0 151 112 238.5t277 87.5q126 0 228 -56t161 -161l-225 -123q-49 104 -164 104q-52 0 -85 -22t-33 -62z" />
    <glyph glyph-name="Scedilla" unicode="&#x15e;" horiz-adv-x="1193" 
d="M1143 403q0 -174 -111 -285t-299 -138v-74q60 -14 102 -54.5t42 -105.5q0 -214 -451 -188v186q221 -15 221 41q0 23 -32 34.5t-97 16.5v141q-171 23 -289 114.5t-170 234.5l242 141q84 -219 330 -219q119 0 174 42.5t55 108.5q0 75 -68 117t-241 92q-75 22 -130 43
t-115.5 56.5t-98.5 78.5t-63 107t-25 143q0 130 67 229t173 148t231 49q175 0 307 -84t205 -237l-238 -137q-41 88 -106 136t-168 48q-87 0 -138 -40.5t-51 -103.5q0 -67 56.5 -109t216.5 -91q184 -58 262 -102q172 -94 201 -262q6 -37 6 -77z" />
    <glyph glyph-name="scedilla" unicode="&#x15f;" horiz-adv-x="952" 
d="M893 299q0 -126 -78.5 -206.5t-206.5 -108.5v-78q60 -14 102 -54.5t42 -105.5q0 -214 -451 -188v186q221 -15 221 41q0 23 -32 34.5t-97 16.5v141q-245 31 -342 238l230 129q22 -64 73 -98.5t127 -34.5q65 0 103.5 22.5t38.5 65.5q0 30 -29 51.5t-76 36.5t-103.5 30
t-112.5 38t-103 55.5t-76 88t-29 128.5q0 151 112 238.5t277 87.5q126 0 228 -56t161 -161l-225 -123q-49 104 -164 104q-52 0 -85 -22t-33 -62q0 -27 22.5 -47t60 -32t85 -26t96.5 -27.5t96.5 -38.5t85 -57t60 -85t22.5 -121z" />
    <glyph glyph-name="Scaron" unicode="&#x160;" horiz-adv-x="1193" 
d="M459 1563l-217 297h262l90 -134l88 134h262l-217 -297h-268zM674 844q184 -58 262 -102q172 -94 201 -262q6 -37 6 -77q0 -198 -144 -315t-376 -117q-214 0 -359 95t-205 260l242 141q84 -219 330 -219q119 0 174 42.5t55 108.5q0 75 -68 117t-241 92q-75 22 -130 43
t-115.5 56.5t-98.5 78.5t-63 107t-25 143q0 130 67 229t173 148t231 49q175 0 307 -84t205 -237l-238 -137q-41 88 -106 136t-168 48q-87 0 -138 -40.5t-51 -103.5q0 -67 56.5 -109t216.5 -91z" />
    <glyph glyph-name="scaron" unicode="&#x161;" horiz-adv-x="952" 
d="M332 1153l-217 297h262l90 -133l88 133h262l-217 -297h-268zM365 733q0 -27 22.5 -47t60 -32t85 -26t96.5 -27.5t96.5 -38.5t85 -57t60 -85t22.5 -121q0 -106 -58 -182t-149.5 -111t-204.5 -35q-154 0 -264 62.5t-166 181.5l230 129q22 -64 73 -98.5t127 -34.5
q65 0 103.5 22.5t38.5 65.5q0 30 -29 51.5t-76 36.5t-103.5 30t-112.5 38t-103 55.5t-76 88t-29 128.5q0 151 112 238.5t277 87.5q126 0 228 -56t161 -161l-225 -123q-49 104 -164 104q-52 0 -85 -22t-33 -62z" />
    <glyph glyph-name="uni0162" unicode="&#x162;" horiz-adv-x="1105" 
d="M1081 1434v-271h-387v-1163h-282v1163h-385v271h1054zM420 -539l20 410h250l-61 -410h-209z" />
    <glyph glyph-name="uni0163" unicode="&#x163;" horiz-adv-x="788" 
d="M707 770h-232v-426q0 -53 26.5 -78t78 -27.5t127.5 1.5v-240q-185 -20 -294 11t-155.5 111t-46.5 222v426h-178v254h178v207l264 80v-287h232v-254zM332 -539l20 410h250l-61 -410h-209z" />
    <glyph glyph-name="Tcaron" unicode="&#x164;" horiz-adv-x="1105" 
d="M412 1546l-217 297h262l90 -133l88 133h262l-217 -297h-268zM1081 1434v-271h-387v-1163h-282v1163h-385v271h1054z" />
    <glyph glyph-name="tcaron" unicode="&#x165;" horiz-adv-x="831" 
d="M586 1487h250l-62 -373h-209zM475 1311v-287h232v-254h-232v-426q0 -53 26.5 -78t78 -27.5t127.5 1.5v-240q-185 -20 -294 11t-155.5 111t-46.5 222v426h-178v254h178v207z" />
    <glyph glyph-name="Tbar" unicode="&#x166;" horiz-adv-x="1105" 
d="M1081 1163h-387v-334h244v-254h-244v-575h-282v575h-242v254h242v334h-385v271h1054v-271z" />
    <glyph glyph-name="tbar" unicode="&#x167;" horiz-adv-x="788" 
d="M707 770h-232v-149h164v-213h-164v-64q0 -53 26.5 -78t78 -27.5t127.5 1.5v-240q-185 -20 -294 11t-155.5 111t-46.5 222v64h-119v213h119v149h-178v254h178v207l264 80v-287h232v-254z" />
    <glyph glyph-name="Umacron" unicode="&#x16a;" horiz-adv-x="1337" 
d="M371 1565v215h594v-215h-594zM668 -29q-157 0 -280.5 59.5t-195 173.5t-71.5 265v965h280v-942q0 -112 64.5 -178t202.5 -66t202 66t64 178v942h283v-965q0 -151 -71.5 -265t-195.5 -173.5t-282 -59.5z" />
    <glyph glyph-name="umacron" unicode="&#x16b;" horiz-adv-x="1181" 
d="M879 1370v-215h-594v215h594zM797 1024h264v-1024h-264v115q-46 -69 -124.5 -106.5t-180.5 -37.5q-169 0 -278.5 113t-109.5 311v629h265v-596q0 -102 55 -156.5t147 -54.5q102 0 164 63t62 191v553z" />
    <glyph glyph-name="Uring" unicode="&#x16e;" horiz-adv-x="1337" 
d="M668 1452q-113 0 -185.5 69.5t-72.5 174.5q0 104 72.5 172.5t185.5 68.5q115 0 186.5 -68.5t71.5 -172.5q0 -106 -71.5 -175t-186.5 -69zM668 1618q40 0 61 21.5t21 56.5q0 34 -21 55t-61 21q-37 0 -58.5 -21.5t-21.5 -54.5q0 -35 21.5 -56.5t58.5 -21.5zM668 -29
q-157 0 -280.5 59.5t-195 173.5t-71.5 265v965h280v-942q0 -112 64.5 -178t202.5 -66t202 66t64 178v942h283v-965q0 -151 -71.5 -265t-195.5 -173.5t-282 -59.5z" />
    <glyph glyph-name="uring" unicode="&#x16f;" horiz-adv-x="1181" 
d="M582 1104q-113 0 -185.5 69.5t-72.5 174.5q0 104 72.5 172.5t185.5 68.5q115 0 186.5 -68.5t71.5 -172.5q0 -106 -71.5 -175t-186.5 -69zM582 1423q-37 0 -58.5 -21t-21.5 -54q0 -35 21.5 -56.5t58.5 -21.5q40 0 61 21.5t21 56.5q0 34 -21 54.5t-61 20.5zM797 1024h264
v-1024h-264v115q-46 -69 -124.5 -106.5t-180.5 -37.5q-169 0 -278.5 113t-109.5 311v629h265v-596q0 -102 55 -156.5t147 -54.5q102 0 164 63t62 191v553z" />
    <glyph glyph-name="Uhungarumlaut" unicode="&#x170;" horiz-adv-x="1337" 
d="M309 1546h262l172 283h-274zM664 1546h262l192 283h-274zM668 -29q-157 0 -280.5 59.5t-195 173.5t-71.5 265v965h280v-942q0 -112 64.5 -178t202.5 -66t202 66t64 178v942h283v-965q0 -151 -71.5 -265t-195.5 -173.5t-282 -59.5z" />
    <glyph glyph-name="uhungarumlaut" unicode="&#x171;" horiz-adv-x="1181" 
d="M657 1419l-172 -282h-262l160 282h274zM840 1137h-262l180 282h274zM797 1024h264v-1024h-264v115q-46 -69 -124.5 -106.5t-180.5 -37.5q-169 0 -278.5 113t-109.5 311v629h265v-596q0 -102 55 -156.5t147 -54.5q102 0 164 63t62 191v553z" />
    <glyph glyph-name="Uogonek" unicode="&#x172;" horiz-adv-x="1337" 
d="M934 1434h283v-965q0 -124 -48.5 -222.5t-136.5 -164.5q-105 -97 -146 -157t-42 -120q-3 -52 51 -55q23 -3 55 10v-166q-78 -32 -164 -32q-88 0 -142 46t-54 134q0 103 110 229h-32q-157 0 -280.5 59.5t-195 173.5t-71.5 265v965h280v-942q0 -112 64.5 -178t202.5 -66
t202 66t64 178v942z" />
    <glyph glyph-name="uogonek" unicode="&#x173;" horiz-adv-x="1181" 
d="M1061 1024v-1024q-51 -54 -80 -106t-29 -89q0 -55 52 -55q25 -3 57 10v-166q-78 -32 -166 -32q-87 0 -141 46t-54 134q0 107 131 258h-34v115q-46 -69 -124.5 -106.5t-180.5 -37.5q-169 0 -278.5 113t-109.5 311v629h265v-596q0 -102 55 -156.5t147 -54.5q102 0 164 63
t62 191v553h264z" />
    <glyph glyph-name="Wcircumflex" unicode="&#x174;" horiz-adv-x="2045" 
d="M1077 1679l-90 -133h-262l217 297h268l217 -297h-262zM1718 1434h297l-401 -1434h-322l-270 946l-268 -946h-322l-401 1434h297l274 -1063l299 1063h242l301 -1063z" />
    <glyph glyph-name="wcircumflex" unicode="&#x175;" horiz-adv-x="1576" 
d="M782 1270l-90 -133h-262l217 297h268l218 -297h-263zM1274 1024h280l-325 -1024h-252l-189 621l-188 -621h-252l-325 1024h280l174 -629l187 629h249l187 -631z" />
    <glyph glyph-name="Ycircumflex" unicode="&#x176;" horiz-adv-x="1271" 
d="M629 1679l-90 -133h-263l218 297h268l217 -297h-262zM1268 1434l-492 -875v-559h-280v559l-490 875h320l311 -598l311 598h320z" />
    <glyph glyph-name="ycircumflex" unicode="&#x177;" horiz-adv-x="1075" 
d="M532 1270l-90 -133h-262l217 297h269l217 -297h-262zM788 1024h283l-373 -1024q-79 -220 -211.5 -320.5t-328.5 -89.5v246q107 -1 169 45.5t99 151.5l-420 991h289l266 -688z" />
    <glyph glyph-name="Ydieresis" unicode="&#x178;" horiz-adv-x="1271" 
d="M440 1534q-57 0 -98 40t-41 97t41 98t98 41t97.5 -41t40.5 -98t-40.5 -97t-97.5 -40zM829 1534q-57 0 -98 40t-41 97t41 98t98 41t97.5 -41t40.5 -98t-40.5 -97t-97.5 -40zM1268 1434l-492 -875v-559h-280v559l-490 875h320l311 -598l311 598h320z" />
    <glyph glyph-name="Zacute" unicode="&#x179;" horiz-adv-x="1095" 
d="M877 1843l-228 -280h-254l164 280h318zM434 270h608v-270h-968v225l596 938h-582v271h942v-224z" />
    <glyph glyph-name="zacute" unicode="&#x17a;" horiz-adv-x="970" 
d="M811 1434l-227 -281h-254l164 281h317zM442 248h455v-248h-809v176l432 600h-411v248h768v-176z" />
    <glyph glyph-name="Zdotaccent" unicode="&#x17b;" horiz-adv-x="1095" 
d="M559 1538q-66 0 -113 47.5t-47 112.5t47 111t113 46q65 0 111.5 -46.5t46.5 -110.5q0 -65 -47 -112.5t-111 -47.5zM434 270h608v-270h-968v225l596 938h-582v271h942v-224z" />
    <glyph glyph-name="zdotaccent" unicode="&#x17c;" horiz-adv-x="970" 
d="M494 1128q-66 0 -113 47.5t-47 112.5t47 111.5t113 46.5q64 0 110.5 -46.5t46.5 -111.5t-46.5 -112.5t-110.5 -47.5zM442 248h455v-248h-809v176l432 600h-411v248h768v-176z" />
    <glyph glyph-name="Zcaron" unicode="&#x17d;" horiz-adv-x="1095" 
d="M418 1546l-217 297h262l90 -133l88 133h262l-217 -297h-268zM434 270h608v-270h-968v225l596 938h-582v271h942v-224z" />
    <glyph glyph-name="zcaron" unicode="&#x17e;" horiz-adv-x="970" 
d="M352 1137l-217 297h262l90 -134l88 134h263l-217 -297h-269zM442 248h455v-248h-809v176l432 600h-411v248h768v-176z" />
    <glyph glyph-name="florin" unicode="&#x192;" horiz-adv-x="903" 
d="M903 1180q-33 16 -68.5 17.5t-66.5 -11t-54.5 -44t-31.5 -77.5l-37 -217h186v-254h-229l-115 -678q-19 -111 -64.5 -188t-109.5 -112.5t-144.5 -44.5t-168.5 17v262q34 -16 69.5 -17t67 11.5t54.5 43.5t30 77l107 629h-172v254h217l45 268q37 217 168.5 296.5t316.5 31.5
v-264z" />
    <glyph glyph-name="Scommaaccent" unicode="&#x218;" horiz-adv-x="1193" 
d="M623 -29q-214 0 -359 95t-205 260l242 141q84 -219 330 -219q119 0 174 42.5t55 108.5q0 75 -68 117t-241 92q-75 22 -130 43t-115.5 56.5t-98.5 78.5t-63 107t-25 143q0 130 67 229t173 148t231 49q175 0 307 -84t205 -237l-238 -137q-41 88 -106 136t-168 48
q-87 0 -138 -40.5t-51 -103.5q0 -67 56.5 -109t216.5 -91q184 -58 262 -102q172 -94 201 -262q6 -37 6 -77q0 -198 -144 -315t-376 -117zM698 -539l62 410h-250l-21 -410h209z" />
    <glyph glyph-name="scommaaccent" unicode="&#x219;" horiz-adv-x="952" 
d="M365 733q0 -27 22.5 -47t60 -32t85 -26t96.5 -27.5t96.5 -38.5t85 -57t60 -85t22.5 -121q0 -106 -58 -182t-149.5 -111t-204.5 -35q-154 0 -264 62.5t-166 181.5l230 129q22 -64 73 -98.5t127 -34.5q65 0 103.5 22.5t38.5 65.5q0 30 -29 51.5t-76 36.5t-103.5 30
t-112.5 38t-103 55.5t-76 88t-29 128.5q0 151 112 238.5t277 87.5q126 0 228 -56t161 -161l-225 -123q-49 104 -164 104q-52 0 -85 -22t-33 -62zM365 -539l20 410h250l-62 -410h-208z" />
    <glyph glyph-name="uni021A" unicode="&#x21a;" horiz-adv-x="1105" 
d="M1081 1434v-271h-387v-1163h-282v1163h-385v271h1054zM420 -539l20 410h250l-61 -410h-209z" />
    <glyph glyph-name="uni021B" unicode="&#x21b;" horiz-adv-x="788" 
d="M707 770h-232v-426q0 -53 26.5 -78t78 -27.5t127.5 1.5v-240q-185 -20 -294 11t-155.5 111t-46.5 222v426h-178v254h178v207l264 80v-287h232v-254zM332 -539l20 410h250l-61 -410h-209z" />
    <glyph glyph-name="circumflex" unicode="&#x2c6;" horiz-adv-x="784" 
d="M743 1137h-262l-88 133l-90 -133h-262l217 297h268z" />
    <glyph glyph-name="caron" unicode="&#x2c7;" horiz-adv-x="784" 
d="M481 1434h262l-217 -297h-268l-217 297h262l90 -134z" />
    <glyph glyph-name="breve" unicode="&#x2d8;" horiz-adv-x="763" 
d="M381 1120q-161 0 -250.5 78t-89.5 219h235q0 -106 105 -106q106 0 106 106h236q0 -141 -89 -219t-253 -78z" />
    <glyph glyph-name="dotaccent" unicode="&#x2d9;" horiz-adv-x="415" 
d="M201 1128q-66 0 -113 47.5t-47 112.5t47 111.5t113 46.5q64 0 110.5 -46.5t46.5 -111.5t-46.5 -112.5t-110.5 -47.5z" />
    <glyph glyph-name="ring" unicode="&#x2da;" horiz-adv-x="600" 
d="M299 1104q-113 0 -185.5 69.5t-72.5 174.5q0 104 72.5 172.5t185.5 68.5q115 0 186.5 -68.5t71.5 -172.5q0 -106 -71.5 -175t-186.5 -69zM299 1270q40 0 61 21.5t21 56.5q0 34 -21 54.5t-61 20.5q-37 0 -58.5 -21t-21.5 -54q0 -35 21.5 -56.5t58.5 -21.5z" />
    <glyph glyph-name="ogonek" unicode="&#x2db;" horiz-adv-x="442" 
d="M238 -438q-88 0 -142.5 46t-54.5 134q0 116 135 258h225q-50 -53 -78 -105t-28 -90q-3 -55 51 -55q23 -3 55 10v-166q-78 -32 -163 -32z" />
    <glyph glyph-name="tilde" unicode="&#x2dc;" horiz-adv-x="776" 
d="M43 1147q0 95 22 161.5t58.5 99.5t85 42t101 -6t106.5 -49q60 -41 83 -33t23 82h215q0 -95 -22 -161.5t-59 -99.5t-85 -42t-100.5 6t-105.5 49q-60 41 -84.5 33t-24.5 -82h-213z" />
    <glyph glyph-name="hungarumlaut" unicode="&#x2dd;" horiz-adv-x="890" 
d="M41 1137h262l172 282h-274zM395 1137h262l193 282h-275z" />
    <glyph glyph-name="gravecomb" unicode="&#x300;" horiz-adv-x="0" 
d="M-41 1153l-164 281h-317l227 -281h254z" />
    <glyph glyph-name="acutecomb" unicode="&#x301;" horiz-adv-x="0" 
d="M-522 1153h254l227 281h-317z" />
    <glyph glyph-name="uni0302" unicode="&#x302;" horiz-adv-x="0" 
d="M-41 1137h-262l-88 133l-90 -133h-262l217 297h268z" />
    <glyph glyph-name="tildecomb" unicode="&#x303;" horiz-adv-x="0" 
d="M-719 1147q0 95 22 161.5t58.5 99.5t85 42t101 -6t106.5 -49q60 -41 83 -33t23 82h215q0 -95 -22 -161.5t-59 -99.5t-85 -42t-100.5 6t-105.5 49q-60 41 -84.5 33t-24.5 -82h-213z" />
    <glyph glyph-name="uni0304" unicode="&#x304;" horiz-adv-x="0" 
d="M-635 1155v215h594v-215h-594z" />
    <glyph glyph-name="uni0306" unicode="&#x306;" horiz-adv-x="0" 
d="M-383 1120q-161 0 -250.5 78t-89.5 219h236q0 -106 104 -106q107 0 107 106h235q0 -141 -89 -219t-253 -78z" />
    <glyph glyph-name="uni0307" unicode="&#x307;" horiz-adv-x="0" 
d="M-199 1128q-66 0 -112.5 47.5t-46.5 112.5t46.5 111.5t112.5 46.5q65 0 111.5 -47t46.5 -111q0 -65 -47 -112.5t-111 -47.5z" />
    <glyph glyph-name="uni0308" unicode="&#x308;" horiz-adv-x="0" 
d="M-567 1124q-57 0 -98.5 40.5t-41.5 97.5t41.5 98t98.5 41t97 -41t40 -98t-40 -97.5t-97 -40.5zM-178 1124q-57 0 -98 40.5t-41 97.5t41 98t98 41t97 -41t40 -98t-40 -97.5t-97 -40.5z" />
    <glyph glyph-name="uni030A" unicode="&#x30a;" horiz-adv-x="0" 
d="M-307 1104q-113 0 -185.5 69.5t-72.5 174.5q0 104 72.5 172.5t185.5 68.5q115 0 186.5 -68.5t71.5 -172.5q0 -106 -71.5 -175t-186.5 -69zM-307 1270q40 0 61 21.5t21 56.5q0 34 -21 54.5t-61 20.5q-37 0 -58.5 -21t-21.5 -54q0 -35 21.5 -56.5t58.5 -21.5z" />
    <glyph glyph-name="uni030B" unicode="&#x30b;" horiz-adv-x="0" 
d="M-850 1137h262l172 282h-274zM-496 1137h263l192 282h-274z" />
    <glyph glyph-name="uni030C" unicode="&#x30c;" horiz-adv-x="0" 
d="M-303 1434h262l-217 -297h-268l-217 297h262l90 -134z" />
    <glyph glyph-name="uni0312" unicode="&#x312;" horiz-adv-x="0" 
d="M-250 1997l-61 -410h250l20 410h-209z" />
    <glyph glyph-name="uni0326" unicode="&#x326;" horiz-adv-x="0" 
d="M-102 -539l61 410h-250l-20 -410h209z" />
    <glyph glyph-name="uni0327" unicode="&#x327;" horiz-adv-x="0" 
d="M-184 -94q60 -14 101.5 -54.5t41.5 -105.5q0 -214 -451 -188v186q222 -15 222 41q0 23 -32 34.5t-97 16.5v164h215v-94z" />
    <glyph glyph-name="uni0328" unicode="&#x328;" horiz-adv-x="0" 
d="M-221 -438q-88 0 -142.5 46t-54.5 134q0 116 135 258h226q-50 -53 -78.5 -105.5t-28.5 -89.5q-3 -55 51 -55q24 -3 56 10v-166q-78 -32 -164 -32z" />
    <glyph glyph-name="uni0394" unicode="&#x394;" horiz-adv-x="1337" 
d="M844 1434l487 -1434h-1325l488 1434h350zM395 264h545l-272 856z" />
    <glyph glyph-name="uni03A9" unicode="&#x3a9;" horiz-adv-x="1591" 
d="M1540 748q0 -142 -58 -265t-161 -213h192v-270h-567v270q141 45 227.5 165.5t86.5 281.5q0 205 -133 338t-330 133t-330 -133t-133 -338q0 -162 85.5 -282t225.5 -165v-270h-565v270h190q-103 90 -161 213t-58 265q0 148 58.5 281t158.5 227.5t238 150t291 55.5
q152 0 289.5 -55.5t237 -150t158 -227.5t58.5 -281z" />
    <glyph glyph-name="pi" unicode="&#x3c0;" horiz-adv-x="1361" 
d="M1317 1024v-248h-164v-776h-264v776h-408v-776h-264v776h-170v248h1270z" />
    <glyph glyph-name="uni0401" unicode="&#x401;" horiz-adv-x="1085" 
d="M377 1534q-57 0 -98 40t-41 97t41 98t98 41t97 -41t40 -98t-40 -97t-97 -40zM766 1534q-57 0 -98 40t-41 97t41 98t98 41t97 -41t40 -98t-40 -97t-97 -40zM416 270h604v-270h-887v1434h877v-271h-594v-305h542v-266h-542v-322z" />
    <glyph glyph-name="uni0402" unicode="&#x402;" horiz-adv-x="1439" 
d="M952 954q177 0 281 -103t104 -296v-158q0 -226 -109 -328.5t-335 -88.5v262q91 -6 127.5 30t36.5 125v129q0 174 -166 174q-98 0 -223 -41v-659h-281v1163h-360v271h1048v-271h-407v-254q145 45 284 45z" />
    <glyph glyph-name="uni0403" unicode="&#x403;" horiz-adv-x="972" 
d="M868 1841l-227 -280h-254l164 280h317zM948 1434v-271h-532v-1163h-283v1434h815z" />
    <glyph glyph-name="uni0404" unicode="&#x404;" horiz-adv-x="1482" 
d="M811 248q121 0 220.5 54.5t150.5 148.5l243 -142q-92 -155 -255.5 -246.5t-358.5 -91.5q-213 0 -384 99t-266 269.5t-95 377.5q0 208 95 378t266 268.5t384 98.5q193 0 357 -91.5t257 -246.5l-243 -141q-53 96 -151.5 150.5t-219.5 54.5q-175 0 -293.5 -91t-155.5 -247
h639v-264h-639q37 -155 156 -246.5t293 -91.5z" />
    <glyph glyph-name="uni0405" unicode="&#x405;" horiz-adv-x="1193" 
d="M623 -29q-214 0 -359 95t-205 260l242 141q84 -219 330 -219q119 0 174 42.5t55 108.5q0 75 -68 117t-241 92q-75 22 -130 43t-115.5 56.5t-98.5 78.5t-63 107t-25 143q0 130 67 229t173 148t231 49q175 0 307 -84t205 -237l-238 -137q-41 88 -106 136t-168 48
q-87 0 -138 -40.5t-51 -103.5q0 -67 56.5 -109t216.5 -91q184 -58 262 -102q172 -94 201 -262q6 -37 6 -77q0 -198 -144 -315t-376 -117z" />
    <glyph glyph-name="uni0406" unicode="&#x406;" horiz-adv-x="548" 
d="M133 1434h283v-1434h-283v1434z" />
    <glyph glyph-name="uni0407" unicode="&#x407;" horiz-adv-x="548" 
d="M80 1534q-57 0 -98 40t-41 97t41 98t98 41t97 -41t40 -98t-40 -97t-97 -40zM469 1534q-57 0 -98 40t-41 97t41 98t98 41t97 -41t40 -98t-40 -97t-97 -40zM133 1434h283v-1434h-283v1434z" />
    <glyph glyph-name="uni0408" unicode="&#x408;" horiz-adv-x="1165" 
d="M541 -29q-165 0 -286 70t-187 203l243 139q35 -69 89 -102t141 -33q113 0 168 53t55 145v988h280v-988q0 -224 -141.5 -349.5t-361.5 -125.5z" />
    <glyph glyph-name="uni0409" unicode="&#x409;" horiz-adv-x="1968" 
d="M1434 897q206 0 344.5 -126.5t138.5 -321.5q0 -196 -138.5 -322.5t-344.5 -126.5h-494v1163h-383v-569q0 -150 -30.5 -262.5t-80.5 -179t-121 -105t-144 -49t-158 -2.5v262q63 -7 107 4t78 46t51 104t17 174v848h945v-537h213zM1434 264q89 0 145.5 49t56.5 136
t-56.5 135.5t-145.5 48.5h-213v-369h213z" />
    <glyph glyph-name="uni040A" unicode="&#x40a;" horiz-adv-x="1961" 
d="M1425 897q135 0 246 -57t175.5 -160t64.5 -231q0 -196 -140 -322.5t-346 -126.5h-493v633h-516v-633h-283v1434h283v-537h516v537h282v-537h211zM1425 264q89 0 146 49t57 136t-57 135.5t-146 48.5h-211v-369h211z" />
    <glyph glyph-name="uni040B" unicode="&#x40b;" horiz-adv-x="1449" 
d="M952 954q177 0 281 -103t104 -296v-555h-280v526q0 174 -166 174q-98 0 -223 -41v-659h-281v1163h-360v271h1048v-271h-407v-254q145 45 284 45z" />
    <glyph glyph-name="uni040C" unicode="&#x40c;" horiz-adv-x="1259" 
d="M950 1841l-227 -280h-254l164 280h317zM1253 0h-325l-512 672v-672h-283v1434h283v-633l491 633h326l-531 -697z" />
    <glyph glyph-name="uni040E" unicode="&#x40e;" horiz-adv-x="1228" 
d="M915 1792v-229h-593v229h593zM926 1434h282l-430 -1039q-172 -417 -565 -395v264q115 -10 186 32t117 136l-469 1002h283l313 -693z" />
    <glyph glyph-name="uni040F" unicode="&#x40f;" horiz-adv-x="1337" 
d="M922 1434h282v-1434h-395v-274h-281v274h-395v1434h283v-1164h506v1164z" />
    <glyph glyph-name="uni0410" unicode="&#x410;" horiz-adv-x="1368" 
d="M1055 0l-86 258h-572l-86 -258h-305l502 1434h350l504 -1434h-307zM487 522h394l-197 586z" />
    <glyph glyph-name="uni0411" unicode="&#x411;" horiz-adv-x="1198" 
d="M682 891q209 0 342 -124.5t133 -320.5q0 -198 -132.5 -322t-342.5 -124h-549v1434h901v-271h-618v-272h266zM682 264q84 0 139.5 47.5t55.5 134.5q0 86 -55.5 133.5t-139.5 47.5h-266v-363h266z" />
    <glyph glyph-name="uni0412" unicode="&#x412;" horiz-adv-x="1239" 
d="M999 743q89 -51 139 -134.5t50 -192.5q0 -182 -129 -299t-318 -117h-608v1434h565q185 0 311 -113.5t126 -290.5t-136 -287zM698 1169h-282v-315h282q66 0 110 45t44 113t-43.5 112.5t-110.5 44.5zM741 264q72 0 119 48t47 122q0 72 -47 120t-119 48h-325v-338h325z" />
    <glyph glyph-name="uni0413" unicode="&#x413;" horiz-adv-x="972" 
d="M948 1434v-271h-532v-1163h-283v1434h815z" />
    <glyph glyph-name="uni0414" unicode="&#x414;" horiz-adv-x="1443" 
d="M1235 270h154v-544h-283v274h-793v-274h-282v544h139q119 164 119 486v678h946v-1164zM473 270h479v899h-381v-417q0 -312 -98 -482z" />
    <glyph glyph-name="uni0415" unicode="&#x415;" horiz-adv-x="1085" 
d="M416 270h604v-270h-887v1434h877v-271h-594v-305h542v-266h-542v-322z" />
    <glyph glyph-name="uni0416" unicode="&#x416;" horiz-adv-x="1851" 
d="M1827 0h-316l-444 653v-653h-283v653l-444 -653h-313l497 731l-477 703h313l424 -639v639h283v-639l424 639h315l-479 -703z" />
    <glyph glyph-name="uni0417" unicode="&#x417;" horiz-adv-x="1148" 
d="M893 741q97 -52 151 -138.5t54 -201.5q0 -193 -145.5 -311.5t-374.5 -118.5q-400 0 -535 338l244 137q64 -208 291 -208q117 0 178 48.5t61 133.5t-60 133.5t-173 48.5h-178v252h135q107 0 166 46.5t59 125.5t-51.5 125.5t-151.5 46.5q-183 0 -258 -180l-239 139
q145 305 497 305q214 0 349 -115t135 -303q0 -191 -154 -303z" />
    <glyph glyph-name="uni0418" unicode="&#x418;" horiz-adv-x="1378" 
d="M963 0v874l-615 -874h-215v1434h283v-877l614 877h215v-1434h-282z" />
    <glyph glyph-name="uni0419" unicode="&#x419;" horiz-adv-x="1378" 
d="M391 1565v229h594v-229h-594zM963 0v874l-615 -874h-215v1434h283v-877l614 877h215v-1434h-282z" />
    <glyph glyph-name="uni041A" unicode="&#x41a;" horiz-adv-x="1259" 
d="M1253 0h-325l-512 672v-672h-283v1434h283v-633l491 633h326l-531 -697z" />
    <glyph glyph-name="uni041B" unicode="&#x41b;" horiz-adv-x="1384" 
d="M23 0v262q127 -19 190 51t63 273v848h975v-1434h-280v1163h-414v-569q0 -150 -30.5 -262t-80.5 -178t-121 -104.5t-144 -48.5t-158 -1z" />
    <glyph glyph-name="uni041C" unicode="&#x41c;" horiz-adv-x="1669" 
d="M1536 1434v-1434h-281v930l-403 -666h-33l-403 664v-928h-283v1434h291l412 -678l409 678h291z" />
    <glyph glyph-name="uni041D" unicode="&#x41d;" horiz-adv-x="1361" 
d="M948 1434h281v-1434h-281v594h-532v-594h-283v1434h283v-570h532v570z" />
    <glyph glyph-name="uni041E" unicode="&#x41e;" horiz-adv-x="1622" 
d="M811 -29q-153 0 -290.5 58t-236.5 157.5t-157.5 238t-58.5 292.5q0 206 99 377.5t269.5 269.5t374.5 98t375 -98t270.5 -269.5t99.5 -377.5t-99.5 -377.5t-270.5 -270t-375 -98.5zM811 248q197 0 330 132.5t133 336.5q0 205 -133 338t-330 133t-330 -133t-133 -338
q0 -204 133 -336.5t330 -132.5z" />
    <glyph glyph-name="uni041F" unicode="&#x41f;" horiz-adv-x="1337" 
d="M1204 1434v-1434h-282v1163h-506v-1163h-283v1434h1071z" />
    <glyph glyph-name="uni0420" unicode="&#x420;" horiz-adv-x="1208" 
d="M668 1434q206 0 347.5 -140t141.5 -342t-141.5 -341.5t-347.5 -139.5h-252v-471h-283v1434h535zM668 735q90 0 149.5 62t59.5 155q0 94 -59 155.5t-150 61.5h-252v-434h252z" />
    <glyph glyph-name="uni0421" unicode="&#x421;" horiz-adv-x="1486" 
d="M813 -29q-213 0 -384 99t-266 269.5t-95 377.5q0 208 95 378t266 268.5t384 98.5q195 0 359.5 -91.5t257.5 -246.5l-244 -141q-53 96 -152 150.5t-221 54.5q-209 0 -337 -131t-128 -340q0 -207 128 -338t337 -131q123 0 222.5 54.5t150.5 148.5l244 -142
q-92 -155 -256.5 -246.5t-360.5 -91.5z" />
    <glyph glyph-name="uni0422" unicode="&#x422;" horiz-adv-x="1105" 
d="M1081 1434v-271h-387v-1163h-282v1163h-385v271h1054z" />
    <glyph glyph-name="uni0423" unicode="&#x423;" horiz-adv-x="1228" 
d="M926 1434h282l-430 -1039q-172 -417 -565 -395v264q115 -10 186 32t117 136l-469 1002h283l313 -693z" />
    <glyph glyph-name="uni0424" unicode="&#x424;" horiz-adv-x="1677" 
d="M1632 717q0 -245 -177.5 -398.5t-477.5 -183.5v-166h-277v166q-300 31 -476.5 184t-176.5 398t176.5 397.5t476.5 183.5v166h277v-166q300 -30 477.5 -183t177.5 -398zM977 393q373 44 373 324q0 281 -373 325v-649zM328 717q0 -281 372 -322v645q-372 -41 -372 -323z
" />
    <glyph glyph-name="uni0425" unicode="&#x425;" horiz-adv-x="1249" 
d="M1225 0h-322l-278 467l-279 -467h-319l438 735l-416 699h320l256 -430l256 430h319l-416 -697z" />
    <glyph glyph-name="uni0426" unicode="&#x426;" horiz-adv-x="1413" 
d="M1204 270h154v-544h-283v274h-942v1434h283v-1164h506v1164h282v-1164z" />
    <glyph glyph-name="uni0427" unicode="&#x427;" horiz-adv-x="1296" 
d="M881 1434h282v-1434h-282v524q-130 -55 -281 -55q-218 0 -358 122t-140 331v512h283v-476q0 -103 60 -161t161 -58q149 0 275 60v635z" />
    <glyph glyph-name="uni0428" unicode="&#x428;" horiz-adv-x="1931" 
d="M1516 1434h282v-1434h-1665v1434h283v-1164h409v1164h281v-1164h410v1164z" />
    <glyph glyph-name="uni0429" unicode="&#x429;" horiz-adv-x="2007" 
d="M1798 270h154v-544h-283v274h-1536v1434h283v-1164h409v1164h281v-1164h410v1164h282v-1164z" />
    <glyph glyph-name="uni042A" unicode="&#x42a;" horiz-adv-x="1419" 
d="M344 0v1163h-344v271h625v-471h254q206 0 347.5 -140t141.5 -342t-141.5 -341.5t-347.5 -139.5h-535zM625 264h254q89 0 147.5 61.5t58.5 155.5t-58.5 155.5t-147.5 61.5h-254v-434z" />
    <glyph glyph-name="uni042B" unicode="&#x42b;" horiz-adv-x="1701" 
d="M133 0v1434h283v-471h252q206 0 347.5 -140t141.5 -342t-141.5 -341.5t-347.5 -139.5h-535zM1288 0v1434h281v-1434h-281zM416 264h252q91 0 150 61.5t59 155.5t-59 155.5t-150 61.5h-252v-434z" />
    <glyph glyph-name="uni042C" unicode="&#x42c;" horiz-adv-x="1208" 
d="M668 963q206 0 347.5 -140t141.5 -342t-141.5 -341.5t-347.5 -139.5h-535v1434h283v-471h252zM668 264q91 0 150 61.5t59 155.5q0 93 -59.5 155t-149.5 62h-252v-434h252z" />
    <glyph glyph-name="uni042D" unicode="&#x42d;" horiz-adv-x="1482" 
d="M672 1462q213 0 384 -98.5t266 -268.5t95 -378q0 -207 -95 -377.5t-266 -269.5t-384 -99q-195 0 -359 91.5t-256 246.5l244 142q51 -94 150.5 -148.5t220.5 -54.5q174 0 292.5 91.5t155.5 246.5h-639v264h639q-37 156 -155 247t-293 91q-121 0 -219.5 -54.5
t-151.5 -150.5l-244 141q93 155 257.5 246.5t357.5 91.5z" />
    <glyph glyph-name="uni042E" unicode="&#x42e;" horiz-adv-x="2160" 
d="M1350 1462q204 0 375 -98t270.5 -269.5t99.5 -377.5q0 -153 -58.5 -291.5t-158 -238t-237.5 -158t-291 -58.5q-279 0 -483 179t-244 452h-207v-602h-283v1434h283v-562h213q53 259 253 424.5t468 165.5zM1350 248q197 0 329.5 132.5t132.5 336.5q0 205 -132.5 338
t-329.5 133q-198 0 -330.5 -131t-132.5 -340q0 -204 133 -336.5t330 -132.5z" />
    <glyph glyph-name="uni042F" unicode="&#x42f;" horiz-adv-x="1277" 
d="M1145 1434v-1434h-283v498h-162l-329 -498h-318l350 528q-136 50 -222.5 168.5t-86.5 261.5q0 129 63.5 238.5t173.5 173.5t240 64h574zM571 745h291v424h-291q-80 0 -137 -61t-57 -150t57 -151t137 -62z" />
    <glyph glyph-name="uni0430" unicode="&#x430;" 
d="M899 1024h264v-1024h-264v121q-121 -150 -334 -150q-205 0 -351 157t-146 384t146 384t351 157q213 0 334 -150v121zM614 223q124 0 204.5 80.5t80.5 208.5t-80.5 208.5t-204.5 80.5q-123 0 -202.5 -80.5t-79.5 -208.5t79.5 -208.5t202.5 -80.5z" />
    <glyph glyph-name="uni0431" unicode="&#x431;" horiz-adv-x="1161" 
d="M606 -29q-242 0 -390 155.5t-148 395.5q0 105 9 181t33.5 148t68.5 127.5t112.5 107t167.5 100.5q32 16 76 36.5t68.5 32t57 28t51 29t41 30.5t36 36.5t27 42t22.5 52.5l217 -125q-11 -53 -37 -96.5t-58.5 -75t-84 -61.5t-99.5 -51.5t-121 -49.5q-131 -51 -190.5 -102.5
t-85.5 -123.5q114 117 307 117q80 0 157 -31t139.5 -87t101 -143t38.5 -191q0 -210 -142 -346t-374 -136zM604 213q112 0 183 68t71 172q0 105 -71.5 173t-184.5 68q-101 0 -179.5 -63.5t-78.5 -169.5q0 -108 75 -178t185 -70z" />
    <glyph glyph-name="uni0432" unicode="&#x432;" horiz-adv-x="1046" 
d="M858 524q69 -34 106 -94t37 -139q0 -129 -89 -210t-253 -81h-538v1024h497q162 0 251 -79.5t89 -209.5q0 -137 -100 -211zM594 807h-225v-184h225q113 0 113 92t-113 92zM629 223q54 0 84 26t30 73q0 44 -30.5 68t-83.5 24h-260v-191h260z" />
    <glyph glyph-name="uni0433" unicode="&#x433;" horiz-adv-x="841" 
d="M821 1024v-254h-436v-770h-264v1024h700z" />
    <glyph glyph-name="uni0434" unicode="&#x434;" horiz-adv-x="1224" 
d="M1042 248h136v-522h-258v274h-635v-274h-258v522h125q44 66 66 149t22 213v414h802v-776zM434 248h350v538h-286v-176q0 -215 -64 -362z" />
    <glyph glyph-name="uni0435" unicode="&#x435;" horiz-adv-x="1189" 
d="M344 403q27 -97 103.5 -144.5t185.5 -47.5q74 0 134 28t95 74l213 -123q-73 -106 -186.5 -162.5t-259.5 -56.5q-126 0 -232 41.5t-178 114.5t-111.5 172t-39.5 213q0 232 151 386.5t389 154.5q148 0 267.5 -72.5t185 -196t65.5 -272.5q0 -51 -10 -109h-772zM340 608h522
q-23 104 -93.5 155.5t-160.5 51.5q-105 0 -175 -54t-93 -153z" />
    <glyph glyph-name="uni0436" unicode="&#x436;" horiz-adv-x="1527" 
d="M1503 0h-297l-313 459v-459h-258v459l-313 -459h-295l368 518l-348 506h295l293 -444v444h258v-444l293 444h297l-350 -506z" />
    <glyph glyph-name="uni0437" unicode="&#x437;" horiz-adv-x="921" 
d="M721 522q75 -37 115.5 -100t40.5 -143q0 -131 -109 -219.5t-305 -88.5q-312 0 -424 246l215 127q50 -139 211 -139q73 0 113 28t40 78q0 44 -30.5 69.5t-89.5 25.5h-146v225h111q58 0 88.5 24.5t30.5 69.5q0 44 -34.5 71t-92.5 27q-134 0 -191 -129l-213 123
q58 116 161 176t239 60q176 0 279.5 -89t103.5 -216q0 -150 -113 -226z" />
    <glyph glyph-name="uni0438" unicode="&#x438;" horiz-adv-x="1177" 
d="M860 1024h197v-1024h-258v582l-482 -582h-196v1024h258v-582z" />
    <glyph glyph-name="uni0439" unicode="&#x439;" horiz-adv-x="1177" 
d="M293 1155v229h594v-229h-594zM860 1024h197v-1024h-258v582l-482 -582h-196v1024h258v-582z" />
    <glyph glyph-name="uni043A" unicode="&#x43a;" horiz-adv-x="1075" 
d="M1065 0h-307l-373 465v-465h-264v1024h264v-451l352 451h316l-412 -506z" />
    <glyph glyph-name="uni043B" unicode="&#x43b;" horiz-adv-x="1118" 
d="M999 1024v-1024h-264v770h-282v-342q0 -239 -111.5 -345.5t-321.5 -82.5v248q83 -20 125.5 27.5t42.5 166.5v582h811z" />
    <glyph glyph-name="uni043C" unicode="&#x43c;" horiz-adv-x="1306" 
d="M1186 1024v-1024h-256v598l-260 -410h-33l-262 414v-602h-254v1024h260l272 -430l273 430h260z" />
    <glyph glyph-name="uni043D" unicode="&#x43d;" horiz-adv-x="1177" 
d="M793 1024h264v-1024h-264v389h-408v-389h-264v1024h264v-387h408v387z" />
    <glyph glyph-name="uni043E" unicode="&#x43e;" horiz-adv-x="1216" 
d="M608 -29q-148 0 -272 71t-196 195.5t-72 274.5t72 274.5t196 195.5t272 71q149 0 273.5 -71t197 -195.5t72.5 -274.5t-72.5 -274.5t-197 -195.5t-273.5 -71zM608 229q120 0 199.5 79.5t79.5 203.5t-79.5 203.5t-199.5 79.5q-118 0 -197 -80t-79 -203t79 -203t197 -80z
" />
    <glyph glyph-name="uni043F" unicode="&#x43f;" horiz-adv-x="1177" 
d="M1057 1024v-1024h-264v776h-408v-776h-264v1024h936z" />
    <glyph glyph-name="uni0440" unicode="&#x440;" 
d="M717 1053q135 0 250 -71t182.5 -195.5t67.5 -274.5t-67.5 -274.5t-182.5 -195.5t-250 -71q-214 0 -332 150v-531h-264v1434h264v-121q118 150 332 150zM668 223q124 0 204 80.5t80 208.5t-80 208.5t-204 80.5q-123 0 -203 -80.5t-80 -208.5t80 -208.5t203 -80.5z" />
    <glyph glyph-name="uni0441" unicode="&#x441;" horiz-adv-x="1097" 
d="M608 -29q-153 0 -277 71.5t-193.5 195t-69.5 274.5t69.5 274.5t193.5 195t277 71.5q149 0 272 -72.5t187 -192.5l-227 -133q-31 63 -93.5 100.5t-140.5 37.5q-119 0 -196.5 -79t-77.5 -202q0 -121 77.5 -200t196.5 -79q79 0 142 36.5t94 99.5l229 -131
q-67 -122 -190.5 -194.5t-272.5 -72.5z" />
    <glyph glyph-name="uni0442" unicode="&#x442;" horiz-adv-x="948" 
d="M928 1024v-254h-320v-770h-264v770h-324v254h908z" />
    <glyph glyph-name="uni0443" unicode="&#x443;" horiz-adv-x="1075" 
d="M788 1024h283l-373 -1024q-155 -432 -540 -410v246q104 -2 164.5 38.5t97.5 137.5l-414 1012h281l274 -688z" />
    <glyph glyph-name="uni0444" unicode="&#x444;" horiz-adv-x="1402" 
d="M1337 512q0 -204 -136 -349.5t-370 -178.5v-394h-258v394q-234 33 -369.5 178.5t-135.5 349.5t135.5 349.5t369.5 178.5v394h258v-394q234 -33 370 -178.5t136 -349.5zM328 512q0 -103 63.5 -176t181.5 -100v552q-118 -26 -181.5 -99t-63.5 -177zM831 238
q118 26 181 98.5t63 175.5q0 104 -62.5 176.5t-181.5 99.5v-550z" />
    <glyph glyph-name="uni0445" unicode="&#x445;" horiz-adv-x="1075" 
d="M1065 0h-305l-221 311l-224 -311h-305l375 522l-358 502h305l207 -289l206 289h304l-359 -500z" />
    <glyph glyph-name="uni0446" unicode="&#x446;" horiz-adv-x="1239" 
d="M1022 248h172v-522h-258v274h-815v1024h264v-776h373v776h264v-776z" />
    <glyph glyph-name="uni0447" unicode="&#x447;" horiz-adv-x="1107" 
d="M725 1024h264v-1024h-264v326q-112 -37 -244 -37q-186 0 -297.5 93.5t-111.5 274.5v367h264v-336q0 -153 190 -153q115 0 199 38v451z" />
    <glyph glyph-name="uni0448" unicode="&#x448;" horiz-adv-x="1705" 
d="M1321 1024h264v-1024h-1464v1024h264v-776h336v776h264v-776h336v776z" />
    <glyph glyph-name="uni0449" unicode="&#x449;" horiz-adv-x="1736" 
d="M1554 248h136v-522h-258v274h-1311v1024h264v-776h320v776h264v-776h321v776h264v-776z" />
    <glyph glyph-name="uni044A" unicode="&#x44a;" horiz-adv-x="1175" 
d="M743 696q173 0 279 -95.5t106 -252.5t-106 -252.5t-279 -95.5h-464v770h-279v254h543v-328h200zM743 233q56 0 91.5 31.5t35.5 83.5t-35.5 84.5t-91.5 32.5h-200v-232h200z" />
    <glyph glyph-name="uni044B" unicode="&#x44b;" horiz-adv-x="1468" 
d="M584 696q175 0 281 -95.5t106 -252.5t-106 -252.5t-281 -95.5h-463v1024h264v-328h199zM1083 1024h265v-1024h-265v1024zM586 233q56 0 91.5 31.5t35.5 83.5t-35.5 84.5t-91.5 32.5h-201v-232h201z" />
    <glyph glyph-name="uni044C" unicode="&#x44c;" horiz-adv-x="1015" 
d="M584 696q175 0 281 -95.5t106 -252.5t-106 -252.5t-281 -95.5h-463v1024h264v-328h199zM586 233q56 0 91.5 31.5t35.5 83.5t-35.5 84.5t-91.5 32.5h-201v-232h201z" />
    <glyph glyph-name="uni044D" unicode="&#x44d;" horiz-adv-x="1099" 
d="M498 1053q234 0 384 -151t150 -390t-150.5 -390t-385.5 -151q-157 0 -281.5 72.5t-187.5 194.5l223 129q28 -63 92.5 -102.5t157.5 -39.5q86 0 152.5 45.5t97.5 122.5h-349v238h349q-31 77 -97.5 122.5t-152.5 45.5q-89 0 -153 -38.5t-95 -101.5l-223 129
q66 122 189.5 193.5t279.5 71.5z" />
    <glyph glyph-name="uni044E" unicode="&#x44e;" horiz-adv-x="1660" 
d="M1053 1053q148 0 272.5 -71t197 -195.5t72.5 -274.5t-72.5 -274.5t-197 -195.5t-272.5 -71q-192 0 -336.5 117t-184.5 301h-147v-389h-264v1024h264v-387h150q40 183 183.5 299.5t334.5 116.5zM1053 229q119 0 198.5 79.5t79.5 203.5t-79.5 203.5t-198.5 79.5
q-118 0 -197.5 -80t-79.5 -203t79.5 -203t197.5 -80z" />
    <glyph glyph-name="uni044F" unicode="&#x44f;" horiz-adv-x="1062" 
d="M942 1024v-1024h-258v319h-92l-236 -319h-305l256 350q-98 41 -156.5 130t-58.5 192q0 92 43.5 171.5t130 130t197.5 50.5h479zM483 788q-58 0 -95.5 -33.5t-37.5 -90.5q0 -56 37.5 -88.5t95.5 -32.5h201v245h-201z" />
    <glyph glyph-name="uni0451" unicode="&#x451;" horiz-adv-x="1189" 
d="M401 1133q-57 0 -98 40t-41 97t41 98t98 41t97.5 -41t40.5 -98t-40.5 -97t-97.5 -40zM791 1133q-57 0 -98.5 40t-41.5 97t41.5 98t98.5 41t97 -41t40 -98t-40 -97t-97 -40zM344 403q27 -97 103.5 -144.5t185.5 -47.5q74 0 134 28t95 74l213 -123q-73 -106 -186.5 -162.5
t-259.5 -56.5q-126 0 -232 41.5t-178 114.5t-111.5 172t-39.5 213q0 232 151 386.5t389 154.5q148 0 267.5 -72.5t185 -196t65.5 -272.5q0 -51 -10 -109h-772zM340 608h522q-23 104 -93.5 155.5t-160.5 51.5q-105 0 -175 -54t-93 -153z" />
    <glyph glyph-name="uni0452" unicode="&#x452;" horiz-adv-x="1193" 
d="M702 1053q170 0 280 -113t110 -311v-649q0 -225 -110.5 -328.5t-336.5 -89.5v254q95 -6 138.5 32.5t43.5 131.5v616q0 101 -56 156t-148 55q-102 0 -164 -63t-62 -191v-553h-264v1135h-127v172h127v127h264v-127h289v-172h-289v-228q95 146 305 146z" />
    <glyph glyph-name="uni0453" unicode="&#x453;" horiz-adv-x="841" 
d="M756 1434l-228 -281h-254l164 281h318zM821 1024v-254h-436v-770h-264v1024h700z" />
    <glyph glyph-name="uni0454" unicode="&#x454;" horiz-adv-x="1099" 
d="M850 367l223 -129q-63 -122 -187.5 -194.5t-281.5 -72.5q-235 0 -385.5 151t-150.5 390t150 390t384 151q156 0 279.5 -71.5t189.5 -193.5l-223 -129q-31 63 -95 101.5t-153 38.5q-86 0 -152.5 -45.5t-97.5 -122.5h348v-238h-348q31 -77 97.5 -122.5t152.5 -45.5
q93 0 157.5 39.5t92.5 102.5z" />
    <glyph glyph-name="uni0455" unicode="&#x455;" horiz-adv-x="952" 
d="M365 733q0 -27 22.5 -47t60 -32t85 -26t96.5 -27.5t96.5 -38.5t85 -57t60 -85t22.5 -121q0 -106 -58 -182t-149.5 -111t-204.5 -35q-154 0 -264 62.5t-166 181.5l230 129q22 -64 73 -98.5t127 -34.5q65 0 103.5 22.5t38.5 65.5q0 30 -29 51.5t-76 36.5t-103.5 30
t-112.5 38t-103 55.5t-76 88t-29 128.5q0 151 112 238.5t277 87.5q126 0 228 -56t161 -161l-225 -123q-49 104 -164 104q-52 0 -85 -22t-33 -62z" />
    <glyph glyph-name="uni0456" unicode="&#x456;" horiz-adv-x="505" 
d="M252 1147q-66 0 -114 48t-48 114t48 115t114 49q67 0 115.5 -49t48.5 -115t-48.5 -114t-115.5 -48zM121 0v1024h264v-1024h-264z" />
    <glyph glyph-name="uni0457" unicode="&#x457;" horiz-adv-x="505" 
d="M57 1124q-57 0 -98 40.5t-41 97.5t41 98t98 41t97.5 -41t40.5 -98t-40.5 -97.5t-97.5 -40.5zM446 1124q-57 0 -98 40.5t-41 97.5t41 98t98 41t97.5 -41t40.5 -98t-40.5 -97.5t-97.5 -40.5zM121 0v1024h264v-1024h-264z" />
    <glyph glyph-name="uni0458" unicode="&#x458;" horiz-adv-x="540" 
d="M289 1147q-67 0 -115.5 48t-48.5 114t48.5 115t115.5 49q66 0 114 -49t48 -115t-48 -114t-114 -48zM156 -20v1044h264v-1044q0 -226 -110 -328.5t-337 -89.5v254q95 -6 139 32.5t44 131.5z" />
    <glyph glyph-name="uni0459" unicode="&#x459;" horiz-adv-x="1564" 
d="M1167 672q162 0 256.5 -90t94.5 -246q0 -155 -96.5 -245.5t-254.5 -90.5h-452v770h-262v-342q0 -238 -110.5 -346t-322.5 -94v248q84 -11 126 38.5t42 167.5v582h791v-352h188zM1169 233q45 0 76 26.5t31 76.5t-31 76t-76 26h-190v-205h190z" />
    <glyph glyph-name="uni045A" unicode="&#x45a;" horiz-adv-x="1617" 
d="M1206 672q162 0 263.5 -91t101.5 -245t-102.5 -245t-262.5 -91h-454v424h-383v-424h-265v1024h265v-352h383v352h264v-352h190zM1206 233q46 0 76.5 26.5t30.5 76.5t-30.5 76t-76.5 26h-190v-205h190z" />
    <glyph glyph-name="uni045B" unicode="&#x45b;" horiz-adv-x="1193" 
d="M702 1053q170 0 280 -113t110 -311v-629h-265v596q0 101 -56 156t-148 55q-102 0 -164 -63t-62 -191v-553h-264v1135h-127v172h127v127h264v-127h289v-172h-289v-228q95 146 305 146z" />
    <glyph glyph-name="uni045C" unicode="&#x45c;" horiz-adv-x="1075" 
d="M868 1434l-227 -281h-254l164 281h317zM1065 0h-307l-373 465v-465h-264v1024h264v-451l352 451h316l-412 -506z" />
    <glyph glyph-name="uni045E" unicode="&#x45e;" horiz-adv-x="1075" 
d="M836 1384v-229h-594v229h594zM788 1024h283l-373 -1024q-155 -432 -540 -410v246q104 -2 164.5 38.5t97.5 137.5l-414 1012h281l274 -688z" />
    <glyph glyph-name="uni045F" unicode="&#x45f;" horiz-adv-x="1177" 
d="M793 1024h264v-1024h-338v-274h-258v274h-340v1024h264v-776h408v776z" />
    <glyph glyph-name="uni0490" unicode="&#x490;" horiz-adv-x="972" 
d="M666 1679h282v-516h-532v-1163h-283v1434h533v245z" />
    <glyph glyph-name="uni0491" unicode="&#x491;" horiz-adv-x="841" 
d="M563 1231h258v-461h-436v-770h-264v1024h442v207z" />
    <glyph glyph-name="Wgrave" unicode="&#x1e80;" horiz-adv-x="2045" 
d="M1251 1563l-164 280h-317l227 -280h254zM432 0l-401 1434h297l274 -1063l299 1063h242l301 -1063l274 1063h297l-401 -1434h-322l-270 946l-268 -946h-322z" />
    <glyph glyph-name="wgrave" unicode="&#x1e81;" horiz-adv-x="1576" 
d="M956 1153h-254l-227 281h318zM1274 1024h280l-325 -1024h-252l-189 621l-188 -621h-252l-325 1024h280l174 -629l187 629h249l187 -631z" />
    <glyph glyph-name="Wacute" unicode="&#x1e82;" horiz-adv-x="2045" 
d="M920 1563h254l227 280h-318zM432 0l-401 1434h297l274 -1063l299 1063h242l301 -1063l274 1063h297l-401 -1434h-322l-270 946l-268 -946h-322z" />
    <glyph glyph-name="wacute" unicode="&#x1e83;" horiz-adv-x="1576" 
d="M1106 1434l-227 -281h-254l163 281h318zM1274 1024h280l-325 -1024h-252l-189 621l-188 -621h-252l-325 1024h280l174 -629l187 629h249l187 -631z" />
    <glyph glyph-name="Wdieresis" unicode="&#x1e84;" horiz-adv-x="2045" 
d="M889 1534q-57 0 -98 40t-41 97t41 98t98 41t97 -41t40 -98t-40 -97t-97 -40zM1278 1534q-57 0 -98 40t-41 97t41 98t98 41t97 -41t40 -98t-40 -97t-97 -40zM432 0l-401 1434h297l274 -1063l299 1063h242l301 -1063l274 1063h297l-401 -1434h-322l-270 946l-268 -946h-322
z" />
    <glyph glyph-name="wdieresis" unicode="&#x1e85;" horiz-adv-x="1576" 
d="M594 1124q-57 0 -98 40.5t-41 97.5t41 98t98 41t97 -41t40 -98t-40 -97.5t-97 -40.5zM983 1124q-57 0 -98 40.5t-41 97.5t41 98t98 41t97 -41t40 -98t-40 -97.5t-97 -40.5zM1274 1024h280l-325 -1024h-252l-189 621l-188 -621h-252l-325 1024h280l174 -629l187 629h249
l187 -631z" />
    <glyph glyph-name="Ygrave" unicode="&#x1ef2;" horiz-adv-x="1271" 
d="M803 1563h-254l-227 280h317zM1268 1434l-492 -875v-559h-280v559l-490 875h320l311 -598l311 598h320z" />
    <glyph glyph-name="ygrave" unicode="&#x1ef3;" horiz-adv-x="1075" 
d="M707 1153h-254l-228 281h318zM788 1024h283l-373 -1024q-79 -220 -211.5 -320.5t-328.5 -89.5v246q107 -1 169 45.5t99 151.5l-420 991h289l266 -688z" />
    <glyph glyph-name="endash" unicode="&#x2013;" horiz-adv-x="1320" 
d="M133 492v253h1055v-253h-1055z" />
    <glyph glyph-name="emdash" unicode="&#x2014;" horiz-adv-x="1525" 
d="M133 492v253h1260v-253h-1260z" />
    <glyph glyph-name="quoteleft" unicode="&#x2018;" horiz-adv-x="569" 
d="M100 864l154 570h215l-82 -570h-287z" />
    <glyph glyph-name="quoteright" unicode="&#x2019;" horiz-adv-x="569" 
d="M469 1436l-154 -570h-215l82 570h287z" />
    <glyph glyph-name="quotesinglbase" unicode="&#x201a;" horiz-adv-x="569" 
d="M469 283l-154 -570h-215l82 570h287z" />
    <glyph glyph-name="quotedblleft" unicode="&#x201c;" horiz-adv-x="948" 
d="M100 864l154 570h215l-82 -570h-287zM479 864l154 570h215l-82 -570h-287z" />
    <glyph glyph-name="quotedblright" unicode="&#x201d;" horiz-adv-x="948" 
d="M469 1436l-154 -570h-215l82 570h287zM848 1436l-154 -570h-215l82 570h287z" />
    <glyph glyph-name="quotedblbase" unicode="&#x201e;" horiz-adv-x="948" 
d="M469 283l-154 -570h-215l82 570h287zM848 283l-154 -570h-215l82 570h287z" />
    <glyph glyph-name="dagger" unicode="&#x2020;" horiz-adv-x="983" 
d="M891 1157v-254h-266v-903h-265v903h-268v254h268v277h265v-277h266z" />
    <glyph glyph-name="daggerdbl" unicode="&#x2021;" horiz-adv-x="983" 
d="M891 903h-266v-373h266v-254h-266v-276h-265v276h-268v254h268v373h-268v254h268v277h265v-277h266v-254z" />
    <glyph glyph-name="bullet" unicode="&#x2022;" horiz-adv-x="737" 
d="M373 436q-119 0 -202 83t-83 202q0 116 83.5 197t201.5 81q115 0 196.5 -81.5t81.5 -196.5q0 -118 -81 -201.5t-197 -83.5z" />
    <glyph glyph-name="ellipsis" unicode="&#x2026;" horiz-adv-x="1480" 
d="M274 -27q-72 0 -123 51t-51 123t51 123.5t123 51.5t123.5 -51.5t51.5 -123.5t-51.5 -123t-123.5 -51zM741 -27q-72 0 -123 51t-51 123t51 123.5t123 51.5t123 -51.5t51 -123.5t-51 -123t-123 -51zM1206 -27q-72 0 -123 51t-51 123t51 123.5t123 51.5t123 -51.5t51 -123.5
t-51 -123t-123 -51z" />
    <glyph glyph-name="perthousand" unicode="&#x2030;" horiz-adv-x="2332" 
d="M438 786q-148 0 -247 98t-99 240q0 141 99 239.5t247 98.5q147 0 245.5 -97.5t98.5 -240.5q0 -142 -98 -240t-246 -98zM238 217l933 1038l125 -69l-936 -1041zM436 993q56 0 92.5 38t36.5 93t-36.5 92t-92.5 37q-55 0 -91 -37t-36 -92q0 -56 36 -93.5t91 -37.5zM1130 -25
q-148 0 -246 98.5t-98 239.5t98 239.5t246 98.5t246.5 -98.5t98.5 -239.5t-98.5 -239.5t-246.5 -98.5zM1896 -25q-148 0 -247 98.5t-99 239.5t99 239.5t247 98.5q147 0 246 -98.5t99 -239.5t-99 -239.5t-246 -98.5zM1130 182q56 0 91.5 38.5t35.5 92.5q0 56 -35.5 93.5
t-91.5 37.5t-91 -37.5t-35 -93.5t35 -93.5t91 -37.5zM1894 182q57 0 93 38.5t36 92.5q0 56 -35.5 93.5t-93.5 37.5q-55 0 -91 -37.5t-36 -93.5t36 -93.5t91 -37.5z" />
    <glyph glyph-name="guilsinglleft" unicode="&#x2039;" horiz-adv-x="727" 
d="M598 1018l-225 -385l225 -383h-244l-225 383l225 385h244z" />
    <glyph glyph-name="guilsinglright" unicode="&#x203a;" horiz-adv-x="727" 
d="M373 1018l225 -385l-225 -383h-244l225 383l-225 385h244z" />
    <glyph glyph-name="fraction" unicode="&#x2044;" horiz-adv-x="389" 
d="M-123 0h-184l819 1434h184z" />
    <glyph glyph-name="Euro" unicode="&#x20ac;" horiz-adv-x="1251" 
d="M973 418l233 -133q-68 -153 -188 -233.5t-281 -80.5q-228 0 -374 149t-187 406h-143v160h129v31v49h-129v158h145q44 251 189 394.5t370 143.5q156 0 274 -77t189 -222l-235 -135q-38 82 -93.5 121t-134.5 39q-214 0 -274 -264h420v-158h-441v-49v-31h441v-160h-424
q57 -278 278 -278q82 0 139 41.5t97 128.5z" />
    <glyph glyph-name="uni20BD" unicode="&#x20bd;" horiz-adv-x="1230" 
d="M715 498h-254v-113h457v-180h-457v-205h-281v205h-153v180h153v113h-153v247h153v689h535q133 0 244 -64t175 -173.5t64 -238.5q0 -130 -64 -235.5t-174.5 -165t-244.5 -59.5zM461 1169v-424h254q86 0 144.5 61.5t58.5 151.5q0 89 -58.5 150t-144.5 61h-254z" />
    <glyph glyph-name="uni2116" unicode="&#x2116;" horiz-adv-x="2127" 
d="M1718 784q-147 0 -245.5 99t-98.5 239q0 141 98 239.5t246 98.5t246 -98.5t98 -239.5t-97 -239.5t-247 -98.5zM963 1434h282v-1434h-215l-614 877v-877h-283v1434h215l615 -875v875zM1718 999q54 0 87.5 34.5t33.5 88.5q0 53 -34 88t-87 35t-87 -35t-34 -88t34 -88
t87 -35zM1401 426v248h639v-248h-639z" />
    <glyph glyph-name="trademark" unicode="&#x2122;" horiz-adv-x="968" 
d="M418 1434v-115h-113v-295h-125v295h-112v115h350zM784 1434h119v-410h-119v223l-98 -149h-10l-98 149v-223h-119v410h119l104 -158z" />
    <glyph glyph-name="estimated" unicode="&#x212e;" horiz-adv-x="1617" 
d="M809 1454q166 0 309 -58t240.5 -157.5t153 -234.5t55.5 -287q0 -31 -31 -31h-1147q-31 0 -31 -31v-393q0 -21 15 -39q173 -182 477 -182q296 0 473 199q15 18 37 18h76q20 0 25.5 -12t-7.5 -27q-106 -113 -260 -176t-344 -63q-181 0 -332.5 58t-253 157.5t-157.5 234
t-56 287.5q0 152 55.5 287t153 234.5t240.5 157.5t309 58zM1260 1171q0 21 -15 39q-174 183 -436 183t-436 -183q-15 -18 -15 -39v-393q0 -30 31 -30h840q31 0 31 30v393z" />
    <glyph glyph-name="oneeighth" unicode="&#x215b;" horiz-adv-x="1650" 
d="M444 614h-219v598l-168 -47l-51 181l246 88h192v-820zM1059 1434h184l-819 -1434h-184zM1489 430q58 -33 88.5 -87.5t30.5 -119.5q0 -115 -83 -183.5t-231 -68.5t-231.5 68.5t-83.5 183.5q0 65 31.5 119t89.5 88q-92 63 -92 172q0 113 80.5 179.5t205.5 66.5t206 -66.5
t81 -179.5q0 -109 -92 -172zM1294 662q-46 0 -72 -20t-26 -58t26 -59t72 -21q43 0 71 21.5t28 58.5t-28 57.5t-71 20.5zM1294 160q50 0 78.5 25.5t28.5 68.5q0 42 -29 67t-78 25q-52 0 -80 -25t-28 -67q0 -43 28 -68.5t80 -25.5z" />
    <glyph glyph-name="threeeighths" unicode="&#x215c;" horiz-adv-x="1816" 
d="M657 862q0 -132 -84 -204t-233 -72q-238 0 -320 182l185 106q36 -96 135 -96q47 0 72.5 22t25.5 62q0 38 -29 60t-75 22h-39l-82 119l141 172h-297v199h564v-162l-148 -176q88 -25 136 -85.5t48 -148.5zM1225 1434h184l-819 -1434h-184zM1655 430q58 -33 88.5 -87.5
t30.5 -119.5q0 -115 -83 -183.5t-231 -68.5t-231.5 68.5t-83.5 183.5q0 65 31.5 119t89.5 88q-92 63 -92 172q0 113 80.5 179.5t205.5 66.5t206 -66.5t81 -179.5q0 -109 -92 -172zM1460 662q-46 0 -72 -20t-26 -58t26 -59t72 -21q43 0 71 21.5t28 58.5t-28 57.5t-71 20.5z
M1460 160q50 0 78.5 25.5t28.5 68.5q0 42 -29 67t-78 25q-52 0 -80 -25t-28 -67q0 -43 28 -68.5t80 -25.5z" />
    <glyph glyph-name="fiveeighths" unicode="&#x215d;" horiz-adv-x="1787" 
d="M645 854q0 -129 -82.5 -198.5t-216.5 -69.5q-237 0 -319 182l180 102q36 -96 133 -96q51 0 77.5 23t26.5 61q0 40 -26.5 64t-77.5 24h-262l33 488h495v-199h-311l-8 -111h67q133 0 212 -67.5t79 -202.5zM1196 1434h184l-819 -1434h-184zM1626 430q58 -33 88.5 -87.5
t30.5 -119.5q0 -116 -83 -184t-230 -68q-148 0 -232 68.5t-84 183.5q0 65 31.5 119t89.5 88q-92 63 -92 172q0 113 81 179.5t206 66.5t205.5 -66.5t80.5 -179.5q0 -109 -92 -172zM1432 662q-46 0 -72.5 -20t-26.5 -58t26.5 -59t72.5 -21q43 0 70.5 21.5t27.5 58.5
t-27.5 57.5t-70.5 20.5zM1432 160q50 0 78 25.5t28 68.5q0 42 -28.5 67t-77.5 25q-52 0 -80.5 -25t-28.5 -67q0 -43 28.5 -68.5t80.5 -25.5z" />
    <glyph glyph-name="seveneighths" unicode="&#x215e;" horiz-adv-x="1708" 
d="M313 614h-227l248 621h-328v199h565v-168zM1116 1434h184l-819 -1434h-184zM1546 430q58 -33 88.5 -87.5t30.5 -119.5q0 -116 -83 -184t-230 -68q-148 0 -232 68.5t-84 183.5q0 65 31.5 119t89.5 88q-92 63 -92 172q0 113 81 179.5t206 66.5t205.5 -66.5t80.5 -179.5
q0 -109 -92 -172zM1352 662q-46 0 -72.5 -20t-26.5 -58t26.5 -59t72.5 -21q43 0 70.5 21.5t27.5 58.5t-27.5 57.5t-70.5 20.5zM1352 160q50 0 78 25.5t28 68.5q0 42 -28.5 67t-77.5 25q-52 0 -80.5 -25t-28.5 -67q0 -43 28.5 -68.5t80.5 -25.5z" />
    <glyph glyph-name="arrowleft" unicode="&#x2190;" horiz-adv-x="1634" 
d="M1542 844v-254h-973l488 -488h-350l-615 615l615 614h350l-488 -487h973z" />
    <glyph glyph-name="arrowup" unicode="&#x2191;" horiz-adv-x="1413" 
d="M1321 819v-350l-481 481v-950h-265v952l-483 -483v350l615 615z" />
    <glyph glyph-name="arrowright" unicode="&#x2192;" horiz-adv-x="1634" 
d="M928 1331l614 -614l-614 -615h-350l487 488h-973v254h973l-487 487h350z" />
    <glyph glyph-name="arrowdown" unicode="&#x2193;" horiz-adv-x="1413" 
d="M840 483l481 482v-351l-614 -614l-615 614v351l483 -484v953h265v-951z" />
    <glyph glyph-name="arrowboth" unicode="&#x2194;" horiz-adv-x="2222" 
d="M1573 1276l557 -559l-557 -557h-344l426 430h-1092l430 -430h-344l-557 557l557 559h344l-430 -432h1096l-430 432h344z" />
    <glyph glyph-name="arrowupdn" unicode="&#x2195;" horiz-adv-x="1300" 
d="M1208 834l-426 428v-1088l426 426v-344l-557 -559l-559 559v344l426 -424v1084l-426 -426v344l559 559l557 -559v-344z" />
    <glyph glyph-name="uni2196" unicode="&#x2196;" horiz-adv-x="1316" 
d="M1225 303l-178 -180l-707 704v-686l-248 246v868h869l247 -245h-690z" />
    <glyph glyph-name="uni2197" unicode="&#x2197;" horiz-adv-x="1316" 
d="M356 1255h869v-868l-246 -246v688l-707 -706l-180 180l707 707h-688z" />
    <glyph glyph-name="uni2198" unicode="&#x2198;" horiz-adv-x="1316" 
d="M979 1264l246 -246v-868h-869l-245 245h688l-707 707l180 180l707 -707v689z" />
    <glyph glyph-name="uni2199" unicode="&#x2199;" horiz-adv-x="1316" 
d="M1225 1102l-707 -707h690l-247 -245h-869v868l248 246v-686l707 704z" />
    <glyph glyph-name="partialdiff" unicode="&#x2202;" horiz-adv-x="1196" 
d="M492 1462q121 0 231.5 -53.5t195 -148.5t135 -236.5t50.5 -306.5q0 -180 -45 -324t-123.5 -235t-181 -139t-222.5 -48q-104 0 -189 34.5t-140.5 94.5t-85 139.5t-29.5 170.5q0 212 124.5 345.5t338.5 133.5q156 0 283 -82q-21 189 -117 296.5t-258 108.5q-118 3 -236 -65
v242q115 73 269 73zM543 221q121 0 195.5 96.5t95.5 264.5q-105 73 -246 73q-104 0 -170 -62.5t-66 -174.5q0 -90 52 -143.5t139 -53.5z" />
    <glyph glyph-name="emptyset" unicode="&#x2205;" horiz-adv-x="1646" 
d="M1352 1237q100 -102 156.5 -236.5t56.5 -283.5q0 -202 -99.5 -372.5t-270 -270t-372.5 -99.5q-213 0 -393 113l-102 -129h-219l188 236q-102 103 -158.5 237.5t-56.5 284.5q0 151 58.5 288.5t157.5 236.5t236.5 157.5t288.5 58.5q215 0 394 -112l102 129h221zM266 717
q0 -107 38.5 -204.5t107.5 -174.5l690 866q-126 74 -279 74q-152 0 -280 -74.5t-202.5 -203.5t-74.5 -283zM823 156q153 0 281 75t202 204t74 282q0 220 -143 379l-692 -867q127 -73 278 -73z" />
    <glyph glyph-name="product" unicode="&#x220f;" horiz-adv-x="1310" 
d="M133 -410v1844h1045v-1844h-265v1590h-516v-1590h-264z" />
    <glyph glyph-name="summation" unicode="&#x2211;" horiz-adv-x="1153" 
d="M72 -410v226l436 716l-406 674v228h942v-254h-630l391 -648l-420 -688h690v-254h-1003z" />
    <glyph glyph-name="minus" unicode="&#x2212;" horiz-adv-x="1136" 
d="M109 594v248h921v-248h-921z" />
    <glyph glyph-name="radical" unicode="&#x221a;" horiz-adv-x="1384" 
d="M551 0l-250 408h-209v254h361l204 -355l447 1331h270l-567 -1638h-256z" />
    <glyph glyph-name="infinity" unicode="&#x221e;" horiz-adv-x="1654" 
d="M1178 1075q160 0 265 -99.5t105 -258.5t-105 -259t-265 -100q-176 0 -351 179q-175 -179 -350 -179q-162 0 -267.5 99.5t-105.5 259.5q0 159 105.5 258.5t267.5 99.5q176 0 350 -178q174 178 351 178zM489 596q91 0 183 121q-92 121 -183 121q-53 0 -86.5 -34.5
t-33.5 -86.5t33.5 -86.5t86.5 -34.5zM1165 596q53 0 87 34.5t34 86.5t-34 86.5t-87 34.5q-90 0 -182 -121q92 -121 182 -121z" />
    <glyph glyph-name="integral" unicode="&#x222b;" horiz-adv-x="903" 
d="M0 -418v264q47 -19 91.5 -17.5t80.5 36.5t47 96l195 1149q37 218 168 297t321 31v-262q-49 18 -95 16.5t-82 -36t-46 -95.5l-197 -1151q-15 -89 -47 -156.5t-77 -107.5t-102 -62t-121 -20.5t-136 18.5z" />
    <glyph glyph-name="approxequal" unicode="&#x2248;" horiz-adv-x="1165" 
d="M592 776q-100 46 -164 56t-96 -5t-70 -55l-170 57q55 204 180 261.5t301 -27.5q131 -64 195 -55.5t90 104.5l215 -104q-44 -193 -174 -255t-307 23zM307 322l-215 104q44 194 174 255.5t307 -24.5q76 -35 128.5 -50t89.5 -8.5t59.5 20t52.5 43.5l170 -58
q-55 -203 -179 -260.5t-302 27.5q-131 64 -195 55.5t-90 -104.5z" />
    <glyph glyph-name="notequal" unicode="&#x2260;" horiz-adv-x="1075" 
d="M983 805h-324l-79 -176h403v-248h-514l-121 -268h-164l121 268h-213v248h324l80 176h-404v248h514l121 268h164l-121 -268h213v-248z" />
    <glyph glyph-name="lessequal" unicode="&#x2264;" horiz-adv-x="1081" 
d="M989 1337v-274l-592 -184l592 -183v-274l-897 340v233zM92 113v247h897v-247h-897z" />
    <glyph glyph-name="greaterequal" unicode="&#x2265;" horiz-adv-x="1081" 
d="M92 1337l897 -342v-233l-897 -340v274l592 183l-592 184v274zM92 113v247h897v-247h-897z" />
    <glyph glyph-name="lozenge" unicode="&#x25ca;" horiz-adv-x="1136" 
d="M469 0l-381 717l381 717h201l381 -717l-381 -717h-201zM569 348l195 369l-195 368l-196 -368z" />
    <glyph glyph-name="i.loclTRK" horiz-adv-x="505" 
d="M252 1128q-66 0 -113 47.5t-47 112.5t47 111.5t113 46.5q64 0 111 -47t47 -111q0 -65 -47 -112.5t-111 -47.5zM121 0v1024h264v-1024h-264z" />
    <glyph glyph-name="f_f_j" horiz-adv-x="1708" 
d="M1587 1024v-1044q0 -226 -109 -328.5t-335 -89.5v254q93 -6 136.5 32.5t43.5 131.5v790h-301v-770h-264v770h-303v-770h-265v770h-147v254h147v10q0 217 121.5 330t360.5 98v-254q-107 8 -162 -32.5t-55 -141.5v-10h303v31q0 428 481 428q107 0 242 -29v-242
q-150 17 -242 17q-109 0 -163 -37.5t-54 -136.5v-31h565z" />
    <glyph glyph-name="f_j" horiz-adv-x="1140" 
d="M1020 1024v-1044q0 -226 -110 -328.5t-337 -89.5v254q95 -6 139 32.5t44 131.5v790h-301v-770h-265v770h-147v254h147v10q0 428 482 428q108 0 239 -28v-242q-138 16 -239 16q-110 0 -163.5 -37.5t-53.5 -136.5v-10h565z" />
    <glyph glyph-name="uni0414.loclBGR" horiz-adv-x="1495" 
d="M1298 270h162v-544h-282v274h-861v-274h-280v544h162l374 1164h351zM494 270h507l-253 844z" />
    <glyph glyph-name="uni041B.loclBGR" horiz-adv-x="1325" 
d="M487 1434h351l483 -1434h-309l-348 1102l-351 -1102h-307z" />
    <glyph glyph-name="uni0424.loclBGR" horiz-adv-x="1759" 
d="M1694 717q0 -304 -184 -501t-496 -232v-189h-266v189q-312 35 -496 232t-184 501t184 501t496 232v188h266v-188q312 -35 496 -232t184 -501zM348 717q0 -200 101.5 -322t298.5 -151v948q-198 -30 -299 -152.5t-101 -322.5zM1014 244q196 30 296.5 151.5t100.5 321.5
t-100.5 322.5t-296.5 152.5v-948z" />
    <glyph glyph-name="uni0414.ss01" horiz-adv-x="1443" 
d="M1235 270h154v-270h-1358v270h139q119 164 119 486v678h946v-1164zM473 270h479v899h-381v-417q0 -312 -98 -482z" />
    <glyph glyph-name="uni0426.ss01" horiz-adv-x="1413" 
d="M1204 270h154v-270h-1225v1434h283v-1164h506v1164h282v-1164z" />
    <glyph glyph-name="uni0429.ss01" horiz-adv-x="2007" 
d="M1798 270h154v-270h-1819v1434h283v-1164h409v1164h281v-1164h410v1164h282v-1164z" />
    <glyph glyph-name="uni0414.loclBGR.ss01" horiz-adv-x="1495" 
d="M1298 270h162v-270h-1423v270h162l374 1164h351zM494 270h507l-253 844z" />
    <glyph glyph-name="uni0432.loclBGR" horiz-adv-x="1159" 
d="M858 838q114 -46 175 -148.5t61 -251.5q0 -220 -129 -343.5t-359 -123.5q-221 0 -353 136t-132 362v487q0 228 127 367t338 139q179 0 289 -96.5t110 -259.5q0 -138 -127 -268zM586 1214q-92 0 -146.5 -71t-54.5 -187v-118l96 20q71 13 125 16q121 97 121 201
q0 63 -37.5 101t-103.5 38zM606 227q106 0 164.5 55.5t58.5 155.5q0 120 -94 166.5t-254 13.5l-96 -20v-129q0 -112 59.5 -177t161.5 -65z" />
    <glyph glyph-name="uni0433.loclBGR" horiz-adv-x="952" 
d="M682 348l229 -131q-56 -119 -166.5 -182.5t-263.5 -63.5q-114 0 -205 35t-148.5 111t-57.5 182q0 77 28.5 134.5t74 90.5t100.5 56t110 37.5t100.5 28.5t74 35.5t28.5 51.5q0 40 -32.5 62t-82.5 22q-115 0 -168 -106l-223 123q58 104 160.5 161.5t230.5 57.5
q164 0 274.5 -87.5t110.5 -238.5q0 -66 -22 -117.5t-58.5 -82.5t-83 -54.5t-94.5 -36.5t-94.5 -26.5t-83 -25t-58.5 -31.5t-22 -48q0 -45 37.5 -69.5t103.5 -24.5q76 0 127.5 36t73.5 101z" />
    <glyph glyph-name="uni0434.loclBGR" 
d="M905 1024h258v-975q0 -98 -29.5 -179.5t-80.5 -137.5t-119.5 -95t-145 -57t-159.5 -18q-167 0 -293 63.5t-193 186.5l226 129q24 -44 53.5 -73.5t84.5 -50t130 -20.5q126 0 197 66t71 186v111q-117 -156 -327 -156q-143 0 -260.5 70.5t-183.5 190.5t-66 263
q0 142 66 262.5t184 191.5t260 71q210 0 327 -156v127zM618 248q125 0 206 78.5t81 201.5q0 121 -81 200t-206 79t-205.5 -79t-80.5 -200q0 -123 80.5 -201.5t205.5 -78.5z" />
    <glyph glyph-name="uni0436.loclBGR" horiz-adv-x="1527" 
d="M1503 0h-297l-313 457v-457h-258v457l-313 -457h-295l368 518l-348 506h295l293 -442v852h258v-852l293 442h297l-350 -506z" />
    <glyph glyph-name="uni0438.loclBGR" horiz-adv-x="1181" 
d="M797 1024h264v-1024h-264v115q-46 -69 -124.5 -106.5t-180.5 -37.5q-169 0 -278.5 113t-109.5 311v629h265v-596q0 -102 55 -156.5t147 -54.5q102 0 164 63t62 191v553z" />
    <glyph glyph-name="uni0439.loclBGR" horiz-adv-x="1181" 
d="M879 1384v-229h-594v229h594zM797 1024h264v-1024h-264v115q-46 -69 -124.5 -106.5t-180.5 -37.5q-169 0 -278.5 113t-109.5 311v629h265v-596q0 -102 55 -156.5t147 -54.5q102 0 164 63t62 191v553z" />
    <glyph glyph-name="uni043A.loclBGR" horiz-adv-x="1075" 
d="M1065 0h-307l-373 465v-465h-264v1434h264v-861l352 451h316l-412 -506z" />
    <glyph glyph-name="uni043B.loclBGR" horiz-adv-x="1091" 
d="M1085 0h-290l-250 717l-248 -717h-291l389 1024h301z" />
    <glyph glyph-name="uni043F.loclBGR" horiz-adv-x="1181" 
d="M690 1053q169 0 278 -113t109 -311v-629h-264v596q0 102 -55.5 156.5t-147.5 54.5q-102 0 -163.5 -63t-61.5 -191v-553h-264v1024h264v-115q46 69 124.5 106.5t180.5 37.5z" />
    <glyph glyph-name="uni0442.loclBGR" horiz-adv-x="1744" 
d="M1253 1053q175 0 281 -115t106 -307v-631h-264v612q0 92 -45 143.5t-127 51.5q-89 0 -139.5 -59.5t-50.5 -172.5v-575h-264v612q0 92 -45 143.5t-127 51.5q-88 0 -140.5 -60t-52.5 -172v-575h-264v1024h264v-109q91 138 285 138q188 0 278 -148q101 148 305 148z" />
    <glyph glyph-name="uni0446.loclBGR" horiz-adv-x="1261" 
d="M1126 248h88v-522h-258v294q-85 35 -127 113q-106 -162 -337 -162q-168 0 -278 113.5t-110 310.5v629h265v-594q0 -103 55 -158t147 -55q102 0 164 63t62 191v553h264v-711q0 -31 17 -48t48 -17z" />
    <glyph glyph-name="uni0448.loclBGR" horiz-adv-x="1744" 
d="M1360 1024h264v-1024h-264v109q-91 -138 -285 -138q-188 0 -278 148q-101 -148 -305 -148q-175 0 -281.5 115t-106.5 307v631h265v-612q0 -92 45 -143.5t127 -51.5q89 0 139.5 59.5t50.5 172.5v575h264v-612q0 -92 45 -143.5t127 -51.5q88 0 140.5 60t52.5 172v575z" />
    <glyph glyph-name="uni0449.loclBGR" horiz-adv-x="1824" 
d="M1690 248h88v-522h-258v294q-79 30 -121 103q-102 -152 -307 -152q-201 0 -295 150q-101 -150 -305 -150q-175 0 -281.5 115t-106.5 307v631h265v-610q0 -93 44.5 -145t127.5 -52q89 0 139.5 59.5t50.5 172.5v575h264v-610q0 -93 44.5 -145t127.5 -52q88 0 140.5 60
t52.5 172v575h264v-711q0 -31 17.5 -48t48.5 -17z" />
    <glyph glyph-name="uni044C.loclBGR" horiz-adv-x="1009" 
d="M549 739q200 0 308 -98.5t108 -273.5q0 -169 -120 -282.5t-310 -113.5q-200 0 -315.5 112t-115.5 298v643h258v-285h187zM535 221q73 0 122.5 45.5t49.5 102.5q0 62 -41.5 99.5t-116.5 37.5h-187v-125q0 -69 46.5 -114.5t126.5 -45.5z" />
    <glyph glyph-name="uni044A.loclBGR" horiz-adv-x="1185" 
d="M725 739q200 0 307 -98.5t107 -273.5q0 -169 -120 -282.5t-310 -113.5q-200 0 -315 111.5t-115 298.5v395h-279v248h537v-285h188zM709 221q73 0 122.5 45.5t49.5 102.5q0 62 -40.5 99.5t-115.5 37.5h-188v-125q0 -69 47 -114.5t125 -45.5z" />
    <glyph glyph-name="uni044E.loclBGR" horiz-adv-x="1660" 
d="M1053 1053q148 0 272.5 -71t197 -195.5t72.5 -274.5t-72.5 -274.5t-197 -195.5t-272.5 -71q-192 0 -336.5 117t-184.5 301h-147v-389h-264v1434h264v-797h150q40 183 183.5 299.5t334.5 116.5zM1053 229q119 0 198.5 79.5t79.5 203.5t-79.5 203.5t-198.5 79.5
q-118 0 -197.5 -80t-79.5 -203t79.5 -203t197.5 -80z" />
    <glyph glyph-name="zero.sinf" horiz-adv-x="837" 
d="M418 -356q-170 0 -270.5 118.5t-100.5 319.5t100.5 319.5t270.5 118.5t271.5 -118.5t101.5 -319.5t-101.5 -319.5t-271.5 -118.5zM418 -137q71 0 109 56.5t38 162.5t-38 162.5t-109 56.5q-69 0 -107.5 -57t-38.5 -162t38.5 -162t107.5 -57z" />
    <glyph glyph-name="one.sinf" horiz-adv-x="542" 
d="M252 492h192v-820h-219v598l-168 -47l-51 180z" />
    <glyph glyph-name="two.sinf" horiz-adv-x="714" 
d="M49 -328v144l307 305q72 69 72 125q0 34 -23 53.5t-61 19.5q-84 0 -127 -104l-178 102q40 94 118.5 148.5t188.5 54.5q130 0 216.5 -72.5t86.5 -185.5q0 -72 -36 -134.5t-103 -129.5l-133 -127h285v-199h-613z" />
    <glyph glyph-name="three.sinf" horiz-adv-x="706" 
d="M473 154q88 -25 136 -85.5t48 -148.5q0 -132 -84 -204t-233 -72q-238 0 -320 182l185 106q36 -96 135 -96q47 0 72.5 22t25.5 62q0 38 -29 60t-75 22h-39l-82 119l141 172h-297v199h564v-162z" />
    <glyph glyph-name="four.sinf" horiz-adv-x="731" 
d="M698 4v-201h-84v-131h-208v131h-383v201l264 488h233l-252 -488h138v141h208v-141h84z" />
    <glyph glyph-name="five.sinf" horiz-adv-x="688" 
d="M356 182q133 0 212 -67.5t79 -202.5q0 -129 -82.5 -198.5t-216.5 -69.5q-237 0 -319 182l180 102q36 -96 133 -96q51 0 77.5 23t26.5 61q0 40 -26.5 64t-77.5 24h-262l33 488h495v-199h-311l-8 -111h67z" />
    <glyph glyph-name="six.sinf" horiz-adv-x="696" 
d="M379 225q129 -9 207 -88.5t78 -199.5q0 -129 -87.5 -211t-228.5 -82q-140 0 -227.5 82.5t-87.5 210.5q0 82 39 149l256 406h225zM348 -172q52 0 82.5 28.5t30.5 80.5q0 50 -30.5 77t-82.5 27q-51 0 -80.5 -27t-29.5 -77q0 -52 30 -80.5t80 -28.5z" />
    <glyph glyph-name="seven.sinf" horiz-adv-x="604" 
d="M6 492h565v-168l-258 -652h-227l248 621h-328v199z" />
    <glyph glyph-name="eight.sinf" horiz-adv-x="714" 
d="M553 102q119 -69 119 -206q0 -115 -83 -183.5t-231 -68.5t-231.5 68.5t-83.5 183.5q0 65 31.5 118.5t89.5 87.5q-92 63 -92 172q0 113 80.5 179.5t205.5 66.5t206 -66.5t81 -179.5q0 -109 -92 -172zM358 334q-46 0 -72 -20t-26 -58t26 -59t72 -21q43 0 71 21.5t28 58.5
t-28 57.5t-71 20.5zM358 -168q50 0 78.5 25.5t28.5 68.5q0 42 -29 67t-78 25q-52 0 -80 -25t-28 -67q0 -43 28 -68.5t80 -25.5z" />
    <glyph glyph-name="nine.sinf" horiz-adv-x="696" 
d="M664 227q0 -82 -39 -149l-254 -406h-228l174 267q-128 9 -206 89t-78 199q0 128 87.5 210.5t227.5 82.5q141 0 228.5 -82t87.5 -211zM238 227q0 -50 29.5 -77t80.5 -27q52 0 82.5 27t30.5 77q0 52 -30.5 80.5t-82.5 28.5q-50 0 -80 -28.5t-30 -80.5z" />
    <glyph glyph-name="zero.tf" horiz-adv-x="1183" 
d="M592 -29q-270 0 -422 204t-152 542q0 222 66 389t197 261.5t311 94.5q269 0 421 -204t152 -541q0 -222 -66.5 -389.5t-197 -262t-309.5 -94.5zM592 248q144 0 217.5 120t73.5 349t-73.5 350t-217.5 121t-218.5 -121t-74.5 -350q0 -228 74.5 -348.5t218.5 -120.5z" />
    <glyph glyph-name="one.tf" horiz-adv-x="1183" 
d="M756 270h389v-270h-1086v270h414v865l-270 -76l-70 241l377 134h246v-1164z" />
    <glyph glyph-name="two.tf" horiz-adv-x="1183" 
d="M70 0v211l522 473q101 89 153 159.5t52 143.5q0 84 -56 142.5t-163 58.5q-171 0 -267 -187l-237 140q75 157 208 239t298 82q220 0 358.5 -129.5t138.5 -328.5q0 -134 -73.5 -249t-219.5 -245l-270 -238h588v-272h-1032z" />
    <glyph glyph-name="three.tf" horiz-adv-x="1183" 
d="M778 868q158 -43 252 -149.5t94 -267.5q0 -150 -71 -260.5t-190 -165t-269 -54.5q-198 0 -340 85.5t-209 250.5l242 139q33 -95 107 -146.5t186 -51.5q127 0 194.5 54t67.5 149q0 94 -67.5 148t-194.5 54h-58l-112 166l295 350h-615v265h969v-234z" />
    <glyph glyph-name="four.tf" horiz-adv-x="1183" 
d="M1149 506v-262h-154v-244h-284v244h-693v262l476 928h303l-475 -928h389v330h284v-330h154z" />
    <glyph glyph-name="five.tf" horiz-adv-x="1183" 
d="M606 911q110 0 204 -30.5t164 -88.5t110 -148t40 -202t-42 -202.5t-114 -148.5t-166.5 -89t-201.5 -31q-199 0 -341.5 85.5t-209.5 250.5l242 139q68 -198 301 -198q123 0 186.5 52t63.5 142q0 89 -64 142t-186 53h-461l57 797h869v-265h-611l-20 -258h180z" />
    <glyph glyph-name="six.tf" horiz-adv-x="1183" 
d="M596 983q249 -3 396 -142t147 -364q0 -226 -150 -366t-403 -140t-403 140t-150 366q0 191 108 324l455 633h326zM586 238q126 0 199 63t73 176t-73.5 177.5t-198.5 64.5q-126 0 -198.5 -64t-72.5 -178q0 -113 72.5 -176t198.5 -63z" />
    <glyph glyph-name="seven.tf" horiz-adv-x="1183" 
d="M51 1434h1065v-240l-543 -1194h-297l525 1163h-750v271z" />
    <glyph glyph-name="eight.tf" horiz-adv-x="1183" 
d="M934 745q101 -57 156 -147t55 -199q0 -197 -148 -312.5t-405 -115.5t-405 115.5t-148 312.5q0 109 55 199t156 147q-162 107 -162 297q0 198 143 309t361 111q141 0 253.5 -47t181.5 -143.5t69 -229.5q0 -188 -162 -297zM592 1196q-104 0 -163.5 -45t-59.5 -123
q0 -77 60 -123.5t163 -46.5t163 46.5t60 123.5q0 78 -59.5 123t-163.5 45zM592 238q131 0 201.5 52t70.5 146t-70.5 145.5t-201.5 51.5t-202 -51.5t-71 -145.5t71 -146t202 -52z" />
    <glyph glyph-name="nine.tf" horiz-adv-x="1183" 
d="M1149 956q0 -175 -92 -303l-469 -653h-326l326 451q-249 3 -397 141.5t-148 363.5q0 227 150.5 366.5t402.5 139.5q254 0 403.5 -139t149.5 -367zM326 956q0 -113 73 -176t197 -63q127 0 199.5 62.5t72.5 176.5t-72.5 177t-199.5 63q-124 0 -197 -63.5t-73 -176.5z" />
    <glyph glyph-name="zero.dnom" horiz-adv-x="837" 
d="M418 -29q-170 0 -270.5 119t-100.5 320t100.5 319.5t270.5 118.5t271.5 -118.5t101.5 -319.5t-101.5 -320t-271.5 -119zM418 190q71 0 109 57t38 163t-38 162.5t-109 56.5q-69 0 -107.5 -57t-38.5 -162t38.5 -162.5t107.5 -57.5z" />
    <glyph glyph-name="one.dnom" horiz-adv-x="546" 
d="M252 819h192v-819h-219v598l-168 -47l-51 180z" />
    <glyph glyph-name="two.dnom" horiz-adv-x="729" 
d="M49 0v143l307 306q72 69 72 124q0 34 -23 54t-61 20q-84 0 -127 -104l-178 102q40 94 118.5 148.5t188.5 54.5q130 0 216.5 -72.5t86.5 -185.5q0 -72 -36 -134.5t-103 -129.5l-133 -127h285v-199h-613z" />
    <glyph glyph-name="three.dnom" horiz-adv-x="712" 
d="M473 481q88 -25 136 -85.5t48 -147.5q0 -132 -84 -204.5t-233 -72.5q-237 0 -320 183l185 106q36 -96 135 -96q47 0 72.5 22t25.5 62q0 38 -29 60t-75 22h-39l-82 119l141 172h-297v198h564v-162z" />
    <glyph glyph-name="four.dnom" horiz-adv-x="731" 
d="M698 332v-201h-84v-131h-208v131h-383v201l264 487h233l-252 -487h138v141h208v-141h84z" />
    <glyph glyph-name="five.dnom" horiz-adv-x="684" 
d="M354 510q133 0 212 -67.5t79 -202.5q0 -129 -82.5 -199t-216.5 -70q-236 0 -319 183l180 102q36 -96 133 -96q51 0 77.5 23t26.5 61q0 40 -26.5 64t-77.5 24h-262l33 487h495v-198h-311l-8 -111h67z" />
    <glyph glyph-name="six.dnom" horiz-adv-x="696" 
d="M379 553q129 -9 207 -89t78 -200q0 -129 -87.5 -211t-228.5 -82q-140 0 -227.5 82.5t-87.5 210.5q0 83 39 150l256 405h225zM348 156q52 0 82.5 28t30.5 80q0 50 -30.5 77.5t-82.5 27.5q-50 0 -80 -27.5t-30 -77.5q0 -52 30 -80t80 -28z" />
    <glyph glyph-name="seven.dnom" horiz-adv-x="604" 
d="M6 819h565v-168l-258 -651h-227l248 621h-328v198z" />
    <glyph glyph-name="eight.dnom" horiz-adv-x="714" 
d="M553 430q58 -33 88.5 -87.5t30.5 -119.5q0 -115 -83 -183.5t-231 -68.5t-231.5 68.5t-83.5 183.5q0 65 31.5 119t89.5 88q-92 63 -92 172q0 113 80.5 179.5t205.5 66.5t206 -66.5t81 -179.5q0 -109 -92 -172zM358 662q-46 0 -72 -20t-26 -58t26 -59t72 -21q43 0 71 21.5
t28 58.5t-28 57.5t-71 20.5zM358 160q50 0 78.5 25.5t28.5 68.5q0 42 -29 67t-78 25q-52 0 -80 -25t-28 -67q0 -43 28 -68.5t80 -25.5z" />
    <glyph glyph-name="nine.dnom" horiz-adv-x="696" 
d="M664 555q0 -82 -39 -149l-254 -406h-228l174 266q-128 9 -206 89.5t-78 199.5q0 128 87.5 210.5t227.5 82.5q141 0 228.5 -82t87.5 -211zM238 555q0 -50 29.5 -77t80.5 -27q52 0 82.5 27t30.5 77q0 52 -30.5 80.5t-82.5 28.5q-50 0 -80 -28.5t-30 -80.5z" />
    <glyph glyph-name="zero.numr" horiz-adv-x="837" 
d="M418 586q-170 0 -270.5 118.5t-100.5 319.5t100.5 319.5t270.5 118.5t271.5 -118.5t101.5 -319.5t-101.5 -319.5t-271.5 -118.5zM418 805q71 0 109 56.5t38 162.5t-38 162.5t-109 56.5q-69 0 -107.5 -57t-38.5 -162t38.5 -162t107.5 -57z" />
    <glyph glyph-name="one.numr" horiz-adv-x="546" 
d="M252 1434h192v-820h-219v598l-168 -47l-51 181z" />
    <glyph glyph-name="two.numr" horiz-adv-x="729" 
d="M49 614v144l307 305q72 69 72 125q0 34 -23 54t-61 20q-84 0 -127 -105l-178 103q40 94 118 148t189 54q130 0 216.5 -72.5t86.5 -185.5q0 -72 -36 -134.5t-103 -129.5l-133 -127h285v-199h-613z" />
    <glyph glyph-name="three.numr" horiz-adv-x="712" 
d="M473 1096q88 -25 136 -85.5t48 -148.5q0 -132 -84 -204t-233 -72q-238 0 -320 182l185 106q36 -96 135 -96q47 0 72.5 22t25.5 62q0 38 -29 60t-75 22h-39l-82 119l141 172h-297v199h564v-162z" />
    <glyph glyph-name="four.numr" horiz-adv-x="731" 
d="M698 946v-201h-84v-131h-208v131h-383v201l264 488h233l-252 -488h138v141h208v-141h84z" />
    <glyph glyph-name="five.numr" horiz-adv-x="684" 
d="M354 1124q133 0 212 -67.5t79 -202.5q0 -129 -82.5 -198.5t-216.5 -69.5q-237 0 -319 182l180 102q36 -96 133 -96q51 0 77.5 23t26.5 61q0 40 -26.5 64t-77.5 24h-262l33 488h495v-199h-311l-8 -111h67z" />
    <glyph glyph-name="six.numr" horiz-adv-x="696" 
d="M379 1167q129 -9 207 -88.5t78 -199.5q0 -129 -87.5 -211t-228.5 -82q-140 0 -227.5 82.5t-87.5 210.5q0 82 39 149l256 406h225zM348 770q52 0 82.5 28.5t30.5 80.5q0 50 -30.5 77t-82.5 27q-51 0 -80.5 -27t-29.5 -77q0 -52 30 -80.5t80 -28.5z" />
    <glyph glyph-name="seven.numr" horiz-adv-x="604" 
d="M6 1434h565v-168l-258 -652h-227l248 621h-328v199z" />
    <glyph glyph-name="eight.numr" horiz-adv-x="714" 
d="M553 1044q119 -69 119 -206q0 -115 -83 -183.5t-231 -68.5t-231.5 68.5t-83.5 183.5q0 65 31.5 118.5t89.5 87.5q-92 63 -92 173q0 113 80.5 179t205.5 66t206 -66t81 -179q0 -110 -92 -173zM358 1276q-46 0 -72 -20t-26 -58t26 -59t72 -21q43 0 71 21.5t28 58.5
t-28 57.5t-71 20.5zM358 774q50 0 78.5 25.5t28.5 68.5q0 42 -29 67.5t-78 25.5q-51 0 -79.5 -25.5t-28.5 -67.5q0 -43 28 -68.5t80 -25.5z" />
    <glyph glyph-name="nine.numr" horiz-adv-x="696" 
d="M664 1169q0 -82 -39 -149l-254 -406h-228l174 267q-128 9 -206 89t-78 199q0 128 87.5 210.5t227.5 82.5q141 0 228.5 -82t87.5 -211zM238 1169q0 -50 29.5 -77t80.5 -27q52 0 82.5 27t30.5 77q0 52 -30.5 80.5t-82.5 28.5q-50 0 -80 -28.5t-30 -80.5z" />
    <glyph glyph-name="zero.sups" horiz-adv-x="837" 
d="M418 913q-170 0 -270.5 119t-100.5 320t100.5 319.5t270.5 118.5t271.5 -118.5t101.5 -319.5t-101.5 -320t-271.5 -119zM418 1133q71 0 109 56.5t38 162.5t-38 162.5t-109 56.5q-69 0 -107.5 -57t-38.5 -162t38.5 -162t107.5 -57z" />
    <glyph glyph-name="one.sups" horiz-adv-x="546" 
d="M252 1761h192v-819h-219v598l-168 -47l-51 180z" />
    <glyph glyph-name="two.sups" horiz-adv-x="729" 
d="M49 942v143l307 306q72 69 72 125q0 34 -23 53.5t-61 19.5q-84 0 -127 -104l-178 102q40 94 118.5 148.5t188.5 54.5q130 0 216.5 -72.5t86.5 -185.5q0 -72 -36 -134.5t-103 -129.5l-133 -127h285v-199h-613z" />
    <glyph glyph-name="three.sups" horiz-adv-x="712" 
d="M473 1423q88 -25 136 -85.5t48 -147.5q0 -132 -84 -204.5t-233 -72.5q-237 0 -320 183l185 106q36 -96 135 -96q47 0 72.5 22t25.5 62q0 38 -29 60t-75 22h-39l-82 119l141 172h-297v198h564v-162z" />
    <glyph glyph-name="four.sups" horiz-adv-x="731" 
d="M698 1274v-201h-84v-131h-208v131h-383v201l264 487h233l-252 -487h138v141h208v-141h84z" />
    <glyph glyph-name="five.sups" horiz-adv-x="684" 
d="M354 1452q133 0 212 -67.5t79 -202.5q0 -129 -82.5 -199t-216.5 -70q-236 0 -319 183l180 102q36 -96 133 -96q51 0 77.5 23t26.5 61q0 40 -26.5 64t-77.5 24h-262l33 487h495v-198h-311l-8 -111h67z" />
    <glyph glyph-name="six.sups" horiz-adv-x="696" 
d="M379 1495q129 -9 207 -89t78 -200q0 -129 -87.5 -211t-228.5 -82q-140 0 -227.5 82.5t-87.5 210.5q0 83 39 150l256 405h225zM348 1098q52 0 82.5 28t30.5 80q0 50 -30.5 77.5t-82.5 27.5q-50 0 -80 -27.5t-30 -77.5q0 -52 30 -80t80 -28z" />
    <glyph glyph-name="seven.sups" horiz-adv-x="604" 
d="M6 1761h565v-168l-258 -651h-227l248 621h-328v198z" />
    <glyph glyph-name="eight.sups" horiz-adv-x="714" 
d="M553 1372q58 -33 88.5 -87.5t30.5 -119.5q0 -115 -83 -183.5t-231 -68.5t-231.5 68.5t-83.5 183.5q0 65 31.5 119t89.5 88q-92 63 -92 172q0 113 80.5 179.5t205.5 66.5t206 -66.5t81 -179.5q0 -109 -92 -172zM358 1604q-46 0 -72 -20t-26 -58t26 -59t72 -21
q43 0 71 21.5t28 58.5t-28 57.5t-71 20.5zM358 1102q50 0 78.5 25.5t28.5 68.5q0 42 -29 67t-78 25q-52 0 -80 -25t-28 -67q0 -43 28 -68.5t80 -25.5z" />
    <glyph glyph-name="nine.sups" horiz-adv-x="696" 
d="M664 1497q0 -82 -39 -149l-254 -406h-228l174 266q-128 9 -206 89.5t-78 199.5q0 128 87.5 210.5t227.5 82.5q141 0 228.5 -82t87.5 -211zM238 1497q0 -50 29.5 -77t80.5 -27q52 0 82.5 27t30.5 77q0 52 -30.5 80.5t-82.5 28.5q-50 0 -80 -28.5t-30 -80.5z" />
    <glyph glyph-name="cent.tf" horiz-adv-x="1183" 
d="M883 573l229 -131q-67 -122 -190.5 -194t-272.5 -72q-70 0 -125 14l-61 -190h-119l72 225q-141 64 -224 195t-83 297q0 230 154 385t386 155q55 0 99 -8l59 185h119l-70 -217q81 -32 146.5 -90.5t105.5 -133.5l-227 -133q-35 72 -107 107l-168 -527q12 -2 41 -2
q79 0 142 36t94 99zM373 717q0 -77 33.5 -139.5t91.5 -98.5l168 518h-19q-119 0 -196.5 -78.5t-77.5 -201.5z" />
    <glyph glyph-name="dollar.tf" horiz-adv-x="1183" 
d="M1133 399q0 -181 -119 -292t-320 -132v-180h-137v178q-189 12 -318.5 102.5t-187.5 241.5l244 142q36 -93 98 -147.5t164 -67.5v356q-4 0 -12 4q-54 20 -91 34.5t-86 38.5t-81.5 47t-68 57.5t-56 72.5t-34 88.5t-13.5 108.5q0 184 125.5 291t316.5 118v178h137v-182
q141 -19 246 -94.5t162 -206.5l-238 -139q-51 135 -170 166v-346q176 -64 247 -106q152 -90 183 -239q9 -43 9 -92zM395 1053q0 -51 36 -87.5t126 -76.5v303q-82 -7 -122 -44.5t-40 -94.5zM694 244q81 11 118.5 49t37.5 94q0 54 -34.5 88t-121.5 72v-303z" />
    <glyph glyph-name="Euro.tf" horiz-adv-x="1183" 
d="M913 424l232 -133q-57 -148 -172.5 -234t-267.5 -86q-216 0 -352.5 149t-174.5 406h-135v160h123v31v49h-123v158h139q39 251 174.5 394.5t348.5 143.5q147 0 260.5 -81t171.5 -220l-236 -135q-27 73 -79 117.5t-117 44.5q-189 0 -240 -264h356v-158h-372v-49v-31h372
v-160h-358q47 -278 242 -278q69 0 124.5 48t83.5 128z" />
    <glyph glyph-name="florin.tf" horiz-adv-x="1183" 
d="M1137 1180q-93 34 -162.5 4.5t-93.5 -119.5l-60 -217h250v-254h-319l-185 -678q-30 -110 -82 -186t-118.5 -113t-148.5 -45.5t-171 16.5v262q93 -33 161.5 -4t92.5 119l172 629h-244v254h312l73 268q59 215 197.5 295.5t325.5 32.5v-264z" />
    <glyph glyph-name="uni20BD.tf" horiz-adv-x="1183" 
d="M653 498h-196v-113h399v-180h-399v-205h-283v205h-154v180h154v113h-154v247h154v689h479q133 0 244.5 -64t175.5 -173.5t64 -238.5q0 -130 -64.5 -235.5t-175 -165t-244.5 -59.5zM457 1169v-424h196q86 0 144.5 61.5t58.5 151.5q0 89 -58.5 150t-144.5 61h-196z" />
    <glyph glyph-name="sterling.tf" horiz-adv-x="1183" 
d="M494 272h669v-272h-1102v272h150v289h-123v248h123v205q0 90 26 165.5t69.5 127t102 87t122.5 52t131 16.5q156 0 272 -79t172 -220l-242 -139q-27 83 -73 123.5t-121 40.5q-76 0 -126 -47t-50 -137v-195h430v-248h-430v-289z" />
    <glyph glyph-name="yen.tf" horiz-adv-x="1183" 
d="M1180 1434l-392 -693h275v-163h-330v-93h330v-166h-330v-319h-282v319h-330v166h330v93h-330v163h274l-391 693h320l268 -516l268 516h320z" />
    <glyph glyph-name="brevecy" horiz-adv-x="737" 
d="M72 1155v229h594v-229h-594z" />
    </font>
</defs>
</svg>
